SplineFontDB: 3.0
FontName: Vazir-Bold
FullName: Vazir Bold
FamilyName: Vazir
Weight: Bold
Copyright: Copyright (c) 2003 by Bitstream, Inc. All Rights Reserved.\nDejaVu changes are in public domain\nChanges by Saber Rastikerdar are in public domain.
Version: 2.1.0
ItalicAngle: 0
UnderlinePosition: -100
UnderlineWidth: 100
Ascent: 1536
Descent: 512
InvalidEm: 0
LayerCount: 2
Layer: 0 1 "Back" 1
Layer: 1 1 "Fore" 0
XUID: [1021 502 1027637223 7976065]
UniqueID: 4242704
UseUniqueID: 1
FSType: 0
OS2Version: 1
OS2_WeightWidthSlopeOnly: 0
OS2_UseTypoMetrics: 1
CreationTime: 1431850356
ModificationTime: 1466167758
PfmFamily: 33
TTFWeight: 700
TTFWidth: 5
LineGap: 0
VLineGap: 0
Panose: 2 11 6 3 3 8 4 2 2 4
OS2TypoAscent: 2100
OS2TypoAOffset: 0
OS2TypoDescent: -900
OS2TypoDOffset: 0
OS2TypoLinegap: 0
OS2WinAscent: 2100
OS2WinAOffset: 0
OS2WinDescent: 900
OS2WinDOffset: 0
HheadAscent: 2100
HheadAOffset: 0
HheadDescent: -900
HheadDOffset: 0
OS2SubXSize: 1331
OS2SubYSize: 1433
OS2SubXOff: 0
OS2SubYOff: 286
OS2SupXSize: 1331
OS2SupYSize: 1433
OS2SupXOff: 0
OS2SupYOff: 983
OS2StrikeYSize: 102
OS2StrikeYPos: 530
OS2Vendor: 'PfEd'
OS2CodePages: 00000040.20080000
OS2UnicodeRanges: 80002003.80000000.00000008.00000000
Lookup: 1 9 0 "'fina' Terminal Forms in Arabic lookup 9" { "'fina' Terminal Forms in Arabic lookup 9 subtable"  } ['fina' ('arab' <'KUR ' 'SND ' 'URD ' 'dflt' > ) ]
Lookup: 1 9 0 "'medi' Medial Forms in Arabic lookup 11" { "'medi' Medial Forms in Arabic lookup 11 subtable"  } ['medi' ('arab' <'KUR ' 'SND ' 'URD ' 'dflt' > ) ]
Lookup: 1 9 0 "'init' Initial Forms in Arabic lookup 13" { "'init' Initial Forms in Arabic lookup 13 subtable"  } ['init' ('arab' <'KUR ' 'SND ' 'URD ' 'dflt' > ) ]
Lookup: 4 1 1 "'rlig' Required Ligatures in Arabic lookup 14" { "'rlig' Required Ligatures in Arabic lookup 14 subtable"  } ['rlig' ('arab' <'KUR ' 'dflt' > ) ]

StartChar: exclam
Encoding: 33 33 1
Width: 886
VWidth: 2286
GlyphClass: 2
Flags: W
LayerCount: 2
Fore
SplineSet
300.383789062 1535.97265625 m 5,0,-1
 585.62890625 1535.97265625 l 5,1,-1
 585.62890625 901.684570312 l 5,2,-1
 562.918945312 496.55859375 l 5,3,-1
 324.223632812 496.55859375 l 5,4,-1
 300.37109375 902.043945312 l 5,5,-1
 300.383789062 1535.97265625 l 5,0,-1
281.595703125 323.336914062 m 1,6,-1
 604.404296875 323.336914062 l 1,7,-1
 604.404296875 0 l 1,8,-1
 281.595703125 0 l 1,9,-1
 281.595703125 323.336914062 l 1,6,-1
EndSplineSet
EndChar

StartChar: parenleft
Encoding: 40 40 2
Width: 878
GlyphClass: 2
Flags: W
GlyphCompositionVertical: 3  uni239D%0,0,48,2968 uni239C%1,48,48,2999 uni239B%0,48,0,3009
LayerCount: 2
Fore
SplineSet
714 -270 m 5,0,-1
 475 -270 l 1,1,2
 322 -23 322 -23 249 199.5 c 128,-1,3
 176 422 176 422 176 641 c 256,4,5
 176 860 176 860 249.5 1084.5 c 128,-1,6
 323 1309 323 1309 475 1554 c 1,7,-1
 714 1554 l 5,8,9
 586 1317 586 1317 522 1090.5 c 132,-1,10
 458 864 458 864 458 643 c 260,11,12
 458 422 458 422 521.5 195 c 132,-1,13
 585 -32 585 -32 714 -270 c 5,0,-1
EndSplineSet
EndChar

StartChar: parenright
Encoding: 41 41 3
Width: 877
GlyphClass: 2
Flags: W
GlyphCompositionVertical: 3  uni23A0%0,0,48,2968 uni239F%1,48,48,2999 uni239E%0,48,0,3009
LayerCount: 2
Fore
SplineSet
164 -270 m 5,0,1
 293 -32 293 -32 356.5 195 c 132,-1,2
 420 422 420 422 420 643 c 260,3,4
 420 864 420 864 356 1090.5 c 132,-1,5
 292 1317 292 1317 164 1554 c 5,6,-1
 412 1554 l 1,7,8
 564 1309 564 1309 637.5 1084.5 c 128,-1,9
 711 860 711 860 711 641 c 256,10,11
 711 422 711 422 638 199.5 c 128,-1,12
 565 -23 565 -23 412 -270 c 1,13,-1
 164 -270 l 5,0,1
EndSplineSet
EndChar

StartChar: period
Encoding: 46 46 4
Width: 744
VWidth: 2286
GlyphClass: 2
Flags: W
LayerCount: 2
Fore
SplineSet
210.381835938 323.336914062 m 1,0,-1
 533.19140625 323.336914062 l 1,1,-1
 533.19140625 0 l 1,2,-1
 210.381835938 0 l 1,3,-1
 210.381835938 323.336914062 l 1,0,-1
EndSplineSet
EndChar

StartChar: colon
Encoding: 58 58 5
Width: 800
VWidth: 2286
GlyphClass: 2
Flags: W
LayerCount: 2
Fore
SplineSet
238.381835938 993.096679688 m 1,0,-1
 561.19140625 993.096679688 l 1,1,-1
 561.19140625 669.759765625 l 1,2,-1
 238.381835938 669.759765625 l 1,3,-1
 238.381835938 993.096679688 l 1,0,-1
238.381835938 323.336914062 m 1,4,-1
 561.19140625 323.336914062 l 1,5,-1
 561.19140625 0 l 1,6,-1
 238.381835938 0 l 1,7,-1
 238.381835938 323.336914062 l 1,4,-1
EndSplineSet
EndChar

StartChar: afii57388
Encoding: 1548 1548 7
Width: 790
VWidth: 2293
GlyphClass: 2
Flags: W
LayerCount: 2
Fore
SplineSet
426.151367188 0 m 0,0,1
 353.444335938 0.849609375 353.444335938 0.849609375 304.559570312 40.4404296875 c 128,-1,2
 255.67578125 80.0302734375 255.67578125 80.0302734375 240.274414062 150.6171875 c 0,3,4
 226.40234375 214.9375 226.40234375 214.9375 250.098632812 317.567382812 c 0,5,6
 291.826171875 501.138671875 291.826171875 501.138671875 484.079101562 685.09765625 c 2,7,-1
 509.62890625 709.545898438 l 1,8,-1
 648.4296875 620.825195312 l 1,9,-1
 601.561523438 581.43359375 l 2,10,11
 545.40625 534.235351562 545.40625 534.235351562 512.184570312 477.021484375 c 128,-1,12
 478.962890625 419.807617188 478.962890625 419.807617188 466.90234375 350.227539062 c 1,13,14
 549.96875 339.954101562 549.96875 339.954101562 590.0703125 283.756835938 c 128,-1,15
 630.171875 227.559570312 630.171875 227.559570312 619.896484375 141.713867188 c 0,16,17
 611.560546875 72.0625 611.560546875 72.0625 558.891601562 36.03125 c 128,-1,18
 506.221679688 0 506.221679688 0 426.151367188 0 c 0,0,1
EndSplineSet
EndChar

StartChar: uni0615
Encoding: 1557 1557 8
Width: -27
VWidth: 2304
GlyphClass: 4
Flags: W
AnchorPoint: "Anchor-10" 557.519 1383.15 mark 0
AnchorPoint: "Anchor-9" 557.519 1383.15 mark 0
AnchorPoint: "Anchor-1" 569.519 2080.6 basemark 0
AnchorPoint: "Anchor-1" 557.519 1383.15 mark 0
LayerCount: 2
Fore
SplineSet
474.836914062 1530.54980469 m 1,0,-1
 574.0390625 1530.54980469 l 2,1,2
 660.237513606 1530.54980469 660.237513606 1530.54980469 713.122809335 1561.77490235 c 0,3,4
 768 1595 768 1595 768 1638 c 0,5,6
 768 1668 768 1668 744 1681 c 0,7,8
 701 1705 701 1705 635 1667 c 0,9,10
 562 1625 562 1625 474.836914062 1530.54980469 c 1,0,-1
846.700195312 1640.93164062 m 0,11,12
 847.000184408 1451.88378906 847.000184408 1451.88378906 600.02734375 1451.88378906 c 2,13,-1
 293.467773438 1451.88378906 l 1,14,-1
 293.467773438 1530.54980469 l 1,15,-1
 384.991210938 1530.54980469 l 1,16,-1
 384.991210938 1981.38769531 l 1,17,-1
 464.787109375 1980.38769531 l 1,18,-1
 464 1605 l 1,19,20
 561 1715 561 1715 647.014648438 1747.5234375 c 0,21,22
 717.794865592 1773.35384839 717.794865592 1773.35384839 766 1756 c 0,23,24
 847 1726 847 1726 846.700195312 1640.93164062 c 0,11,12
EndSplineSet
EndChar

StartChar: uni061B
Encoding: 1563 1563 9
Width: 779
VWidth: 2293
GlyphClass: 2
Flags: W
LayerCount: 2
Fore
SplineSet
251.381835938 323.336914062 m 1,0,-1
 574.19140625 323.336914062 l 1,1,-1
 574.19140625 0 l 1,2,-1
 251.381835938 0 l 1,3,-1
 251.381835938 323.336914062 l 1,0,-1
541.056640625 511.2421875 m 128,-1,5
 488.043945312 474.918945312 488.043945312 474.918945312 423.470703125 475.986328125 c 128,-1,6
 358.897460938 477.053710938 358.897460938 477.053710938 320.701171875 494.998046875 c 0,7,8
 177.91300024 562.073515137 177.91300024 562.073515137 231.270507812 793.76953125 c 0,9,10
 273.162109375 977.7890625 273.162109375 977.7890625 465.32421875 1161.38085938 c 2,11,-1
 490.551757812 1185.48339844 l 1,12,-1
 630.961914062 1098.14453125 l 1,13,-1
 584.278320312 1058.19628906 l 2,14,15
 472.286132812 962.361328125 472.286132812 962.361328125 448.166015625 826.001953125 c 1,16,17
 524.569335938 816.370117188 524.569335938 816.370117188 567.103515625 764.148925781 c 128,-1,18
 609.637695312 711.927734375 609.637695312 711.927734375 601.853515625 629.746582031 c 128,-1,4
 594.069335938 547.565429688 594.069335938 547.565429688 541.056640625 511.2421875 c 128,-1,5
EndSplineSet
EndChar

StartChar: uni061F
Encoding: 1567 1567 10
Width: 1183
VWidth: 2286
GlyphClass: 2
Flags: W
LayerCount: 2
Fore
SplineSet
490.381835938 323.336914062 m 1,0,-1
 813.19140625 323.336914062 l 1,1,-1
 813.19140625 0 l 1,2,-1
 490.381835938 0 l 1,3,-1
 490.381835938 323.336914062 l 1,0,-1
517.069335938 494.142578125 m 1,4,-1
 517.069335938 504.841796875 l 2,5,6
 517 631 517 631 332.7984899 794.838989337 c 0,7,8
 149 959 149 959 149.2984899 1137.33898934 c 0,9,10
 150 1316 150 1316 277 1426.5 c 128,-1,11
 404 1537 404 1537 614 1537 c 128,-1,12
 824 1537 824 1537 1055.6953125 1399.35351562 c 1,13,-1
 948 1182 l 5,14,15
 867 1234 867 1234 782.349081558 1266.59459756 c 0,16,17
 597 1337 597 1337 489.017578125 1244.03125 c 0,18,19
 416 1181 416 1181 440.26171875 1083.26757812 c 0,20,21
 455 1024 455 1024 534.62890625 949.258789062 c 1,22,-1
 627.72265625 857.19921875 l 2,23,24
 789.928710938 697.070376134 789.928710938 697.070376134 789.928710938 523.791992188 c 2,25,-1
 789.928710938 494.142578125 l 1,26,-1
 517.069335938 494.142578125 l 1,4,-1
EndSplineSet
EndChar

StartChar: uni0621
Encoding: 1569 1569 11
Width: 936
VWidth: 2438
GlyphClass: 2
Flags: W
AnchorPoint: "Anchor-7" 362.995 -225.737 basechar 0
AnchorPoint: "Anchor-10" 389.902 1373.84 basechar 0
LayerCount: 2
Fore
SplineSet
128.530273438 -17.2880859375 m 1,0,-1
 128.530273438 282.270507812 l 5,1,-1
 281.372070312 337.08984375 l 5,2,3
 97 420 97 420 97.72265625 634.520507812 c 4,4,5
 99 841 99 841 276.25 937.8046875 c 4,6,7
 454.291090967 1034.15753354 454.291090967 1034.15753354 694.322265625 966.748046875 c 6,8,-1
 727.155273438 957.52734375 l 5,9,-1
 727.155273438 719.3828125 l 5,10,-1
 673.436523438 729.991210938 l 6,11,12
 421 780 421 780 356.578125 692.78125 c 4,13,14
 339 669 339 669 339.4140625 625.491210938 c 4,15,16
 339.005253036 514.427128517 339.005253036 514.427128517 480.0703125 484.725585938 c 4,17,18
 625.664916979 454.070551937 625.664916979 454.070551937 772.176757812 534.5390625 c 6,19,-1
 838.83984375 571.15234375 l 5,20,-1
 838.83984375 256.34765625 l 1,21,-1
 128.530273438 -17.2880859375 l 1,0,-1
EndSplineSet
EndChar

StartChar: uni0627
Encoding: 1575 1575 17
Width: 585
VWidth: 2438
GlyphClass: 2
Flags: W
AnchorPoint: "Anchor-10" 303.532 1609.3 basechar 0
AnchorPoint: "Anchor-7" 306.827 -221.836 basechar 0
LayerCount: 2
Fore
SplineSet
159.939453125 1503.23046875 m 1,0,-1
 442.89453125 1503.23046875 l 5,1,-1
 442.89453125 0.607421875 l 5,2,-1
 159.939453125 0.607421875 l 1,3,-1
 159.939453125 1503.23046875 l 1,0,-1
EndSplineSet
Substitution2: "'fina' Terminal Forms in Arabic lookup 9 subtable" uniFE8E
EndChar

StartChar: uni062D
Encoding: 1581 1581 23
Width: 1386
VWidth: 2438
GlyphClass: 2
Flags: W
AnchorPoint: "Anchor-10" 521.889 1340.9 basechar 0
AnchorPoint: "Anchor-7" 456.367 -717.2 basechar 0
LayerCount: 2
Fore
SplineSet
1278.50976562 815 m 1,0,-1
 1266.54199219 494.180664062 l 5,1,2
 1131 492 1131 492 967.405273438 477.587890625 c 4,3,4
 625.114914428 431.95947548 625.114914428 431.95947548 477.71484375 287.3828125 c 4,5,6
 357 170 357 170 357.107421875 36.69140625 c 4,7,8
 357 -85 357 -85 474.5 -161 c 132,-1,9
 592 -237 592 -237 840.290039062 -237.734375 c 4,10,11
 1028 -238 1028 -238 1221.62792969 -169.850585938 c 5,12,-1
 1288.49511719 -458.64453125 l 1,13,14
 1084 -546 1084 -546 808.073242188 -542.426757812 c 0,15,16
 452 -539 452 -539 274.344238281 -380.943359375 c 0,17,18
 97 -223 97 -223 98.017578125 38.650390625 c 0,19,20
 99 310 99 310 320.888671875 496.58984375 c 0,21,22
 496 644 496 644 766 703 c 1,23,-1
 679 751 l 0,24,25
 635 778 635 778 596.762695312 792.799804688 c 0,26,27
 519 821 519 821 451.650390625 777.669921875 c 0,28,29
 379.393803663 732.247555207 379.393803663 732.247555207 317.26171875 650.43359375 c 2,30,-1
 290.76171875 615.5390625 l 1,31,-1
 93.2578125 767.384765625 l 1,32,-1
 123.325195312 804.446289062 l 2,33,34
 209 910 209 910 237.84765625 939.201171875 c 0,35,36
 366 1064 366 1064 535.249023438 1065.14453125 c 0,37,38
 635 1066 635 1066 770.943359375 979.576171875 c 0,39,40
 1000.36679425 833.76688516 1000.36679425 833.76688516 1230.4140625 818.245117188 c 2,41,-1
 1278.50976562 815 l 1,0,-1
EndSplineSet
Substitution2: "'fina' Terminal Forms in Arabic lookup 9 subtable" uniFEA2
Substitution2: "'medi' Medial Forms in Arabic lookup 11 subtable" uniFEA4
Substitution2: "'init' Initial Forms in Arabic lookup 13 subtable" uniFEA3
EndChar

StartChar: uni062F
Encoding: 1583 1583 25
Width: 1064
VWidth: 2438
GlyphClass: 2
Flags: W
AnchorPoint: "Anchor-10" 347.274 1265.12 basechar 0
AnchorPoint: "Anchor-7" 396.608 -234.523 basechar 0
LayerCount: 2
Fore
SplineSet
407.731445312 319.447265625 m 4,0,1
 703 319 703 319 703.705078125 424.295898438 c 4,2,3
 704 457 704 457 657.803710938 526.110351562 c 4,4,5
 558.108695407 675.836756408 558.108695407 675.836756408 339.234375 830.709960938 c 6,6,-1
 303.669921875 855.875 l 5,7,-1
 448.638671875 1075.48046875 l 5,8,-1
 486.70703125 1047.86816406 l 6,9,10
 967 699 967 699 966.74609375 389.72265625 c 4,11,12
 967 241 967 241 854 128 c 4,13,14
 728 2 728 2 483.076160957 1.8271484375 c 4,15,16
 243.845682035 2.00011157156 243.845682035 2.00011157156 134.018554688 23.4970703125 c 6,17,-1
 97.662109375 30.61328125 l 5,18,-1
 97.662109375 351.388671875 l 5,19,-1
 149.85546875 342.9375 l 6,20,21
 298 319 298 319 407.731445312 319.447265625 c 4,0,1
EndSplineSet
Substitution2: "'fina' Terminal Forms in Arabic lookup 9 subtable" uniFEAA
EndChar

StartChar: uni0631
Encoding: 1585 1585 27
Width: 884
VWidth: 2393
GlyphClass: 2
Flags: W
AnchorPoint: "Anchor-10" 502.335 933.338 basechar 0
AnchorPoint: "Anchor-7" 315.636 -648.411 basechar 0
LayerCount: 2
Fore
SplineSet
441.995117188 569.118164062 m 5,0,-1
 692.728515625 662.911132812 l 1,1,2
 788 438 788 438 786.482421875 231.440429688 c 0,3,4
 785 15 785 15 704.19921875 -128.78125 c 0,5,6
 543.161596699 -415.712073035 543.161596699 -415.712073035 87.5390625 -463.80859375 c 2,7,-1
 45.9462890625 -468.19921875 l 1,8,-1
 0.0859375 -155.715820312 l 1,9,-1
 49.1220703125 -151.360351562 l 2,10,11
 297 -129 297 -129 412.732421875 -25.9697265625 c 0,12,13
 519 68 519 68 519.37890625 239.326171875 c 4,14,15
 520 399 520 399 441.995117188 569.118164062 c 5,0,-1
EndSplineSet
PairPos2: "'kern' Horizontal Kerning lookup 15-1" uniFEE7 dx=-150 dy=0 dh=-150 dv=0 dx=0 dy=0 dh=0 dv=0
PairPos2: "'kern' Horizontal Kerning lookup 15-2" uniFB90 dx=-190 dy=0 dh=-190 dv=0 dx=0 dy=0 dh=0 dv=0
PairPos2: "'kern' Horizontal Kerning lookup 15-2" uniFB8E dx=-190 dy=0 dh=-190 dv=0 dx=0 dy=0 dh=0 dv=0
PairPos2: "'kern' Horizontal Kerning lookup 15-2" uni06A9 dx=-190 dy=0 dh=-190 dv=0 dx=0 dy=0 dh=0 dv=0
PairPos2: "'kern' Horizontal Kerning lookup 15-2" uni064A dx=-50 dy=0 dh=-50 dv=0 dx=0 dy=0 dh=0 dv=0
PairPos2: "'kern' Horizontal Kerning lookup 15-2" afii57414 dx=-50 dy=0 dh=-50 dv=0 dx=0 dy=0 dh=0 dv=0
PairPos2: "'kern' Horizontal Kerning lookup 15-2" uni0649 dx=-50 dy=0 dh=-50 dv=0 dx=0 dy=0 dh=0 dv=0
PairPos2: "'kern' Horizontal Kerning lookup 15-2" uniFEEB dx=-150 dy=0 dh=-150 dv=0 dx=0 dy=0 dh=0 dv=0
PairPos2: "'kern' Horizontal Kerning lookup 15-2" uni0647 dx=-150 dy=0 dh=-150 dv=0 dx=0 dy=0 dh=0 dv=0
PairPos2: "'kern' Horizontal Kerning lookup 15-2" uni0646 dx=-50 dy=0 dh=-50 dv=0 dx=0 dy=0 dh=0 dv=0
PairPos2: "'kern' Horizontal Kerning lookup 15-2" uniFEE3 dx=-150 dy=0 dh=-150 dv=0 dx=0 dy=0 dh=0 dv=0
PairPos2: "'kern' Horizontal Kerning lookup 15-2" uni0645 dx=-150 dy=0 dh=-150 dv=0 dx=0 dy=0 dh=0 dv=0
PairPos2: "'kern' Horizontal Kerning lookup 15-2" uniFEFB dx=-120 dy=0 dh=-120 dv=0 dx=0 dy=0 dh=0 dv=0
PairPos2: "'kern' Horizontal Kerning lookup 15-2" uniFEDF dx=-120 dy=0 dh=-120 dv=0 dx=0 dy=0 dh=0 dv=0
PairPos2: "'kern' Horizontal Kerning lookup 15-2" uni0644 dx=-50 dy=0 dh=-50 dv=0 dx=0 dy=0 dh=0 dv=0
PairPos2: "'kern' Horizontal Kerning lookup 15-2" uniFEDB dx=-190 dy=0 dh=-190 dv=0 dx=0 dy=0 dh=0 dv=0
PairPos2: "'kern' Horizontal Kerning lookup 15-2" uni0643 dx=-120 dy=0 dh=-120 dv=0 dx=0 dy=0 dh=0 dv=0
PairPos2: "'kern' Horizontal Kerning lookup 15-2" uniFED7 dx=-150 dy=0 dh=-150 dv=0 dx=0 dy=0 dh=0 dv=0
PairPos2: "'kern' Horizontal Kerning lookup 15-2" uni0642 dx=-50 dy=0 dh=-50 dv=0 dx=0 dy=0 dh=0 dv=0
PairPos2: "'kern' Horizontal Kerning lookup 15-2" uniFED3 dx=-150 dy=0 dh=-150 dv=0 dx=0 dy=0 dh=0 dv=0
PairPos2: "'kern' Horizontal Kerning lookup 15-2" uni0641 dx=-150 dy=0 dh=-150 dv=0 dx=0 dy=0 dh=0 dv=0
PairPos2: "'kern' Horizontal Kerning lookup 15-2" uniFECF dx=-150 dy=0 dh=-150 dv=0 dx=0 dy=0 dh=0 dv=0
PairPos2: "'kern' Horizontal Kerning lookup 15-2" uniFECB dx=-150 dy=0 dh=-150 dv=0 dx=0 dy=0 dh=0 dv=0
PairPos2: "'kern' Horizontal Kerning lookup 15-2" uniFEC7 dx=-150 dy=0 dh=-150 dv=0 dx=0 dy=0 dh=0 dv=0
PairPos2: "'kern' Horizontal Kerning lookup 15-2" uni0638 dx=-150 dy=0 dh=-150 dv=0 dx=0 dy=0 dh=0 dv=0
PairPos2: "'kern' Horizontal Kerning lookup 15-2" uniFEC3 dx=-150 dy=0 dh=-150 dv=0 dx=0 dy=0 dh=0 dv=0
PairPos2: "'kern' Horizontal Kerning lookup 15-2" uni0637 dx=-150 dy=0 dh=-150 dv=0 dx=0 dy=0 dh=0 dv=0
PairPos2: "'kern' Horizontal Kerning lookup 15-2" uniFEBF dx=-150 dy=0 dh=-150 dv=0 dx=0 dy=0 dh=0 dv=0
PairPos2: "'kern' Horizontal Kerning lookup 15-2" uni0636 dx=-150 dy=0 dh=-150 dv=0 dx=0 dy=0 dh=0 dv=0
PairPos2: "'kern' Horizontal Kerning lookup 15-2" uniFEBB dx=-150 dy=0 dh=-150 dv=0 dx=0 dy=0 dh=0 dv=0
PairPos2: "'kern' Horizontal Kerning lookup 15-2" uni0635 dx=-150 dy=0 dh=-150 dv=0 dx=0 dy=0 dh=0 dv=0
PairPos2: "'kern' Horizontal Kerning lookup 15-2" uniFEB7 dx=-150 dy=0 dh=-150 dv=0 dx=0 dy=0 dh=0 dv=0
PairPos2: "'kern' Horizontal Kerning lookup 15-2" uni0634 dx=-150 dy=0 dh=-150 dv=0 dx=0 dy=0 dh=0 dv=0
PairPos2: "'kern' Horizontal Kerning lookup 15-2" uniFEB3 dx=-150 dy=0 dh=-150 dv=0 dx=0 dy=0 dh=0 dv=0
PairPos2: "'kern' Horizontal Kerning lookup 15-2" uni0633 dx=-150 dy=0 dh=-150 dv=0 dx=0 dy=0 dh=0 dv=0
PairPos2: "'kern' Horizontal Kerning lookup 15-2" uni0630 dx=-150 dy=0 dh=-150 dv=0 dx=0 dy=0 dh=0 dv=0
PairPos2: "'kern' Horizontal Kerning lookup 15-2" uni062F dx=-150 dy=0 dh=-150 dv=0 dx=0 dy=0 dh=0 dv=0
PairPos2: "'kern' Horizontal Kerning lookup 15-2" uniFEA7 dx=-150 dy=0 dh=-150 dv=0 dx=0 dy=0 dh=0 dv=0
PairPos2: "'kern' Horizontal Kerning lookup 15-2" uniFEA3 dx=-150 dy=0 dh=-150 dv=0 dx=0 dy=0 dh=0 dv=0
PairPos2: "'kern' Horizontal Kerning lookup 15-2" uniFE9F dx=-150 dy=0 dh=-150 dv=0 dx=0 dy=0 dh=0 dv=0
PairPos2: "'kern' Horizontal Kerning lookup 15-2" uniFE9B dx=-150 dy=0 dh=-150 dv=0 dx=0 dy=0 dh=0 dv=0
PairPos2: "'kern' Horizontal Kerning lookup 15-2" uni062B dx=-150 dy=0 dh=-150 dv=0 dx=0 dy=0 dh=0 dv=0
PairPos2: "'kern' Horizontal Kerning lookup 15-2" uniFE97 dx=-150 dy=0 dh=-150 dv=0 dx=0 dy=0 dh=0 dv=0
PairPos2: "'kern' Horizontal Kerning lookup 15-2" uni062A dx=-150 dy=0 dh=-150 dv=0 dx=0 dy=0 dh=0 dv=0
PairPos2: "'kern' Horizontal Kerning lookup 15-2" uni0629 dx=-150 dy=0 dh=-150 dv=0 dx=0 dy=0 dh=0 dv=0
PairPos2: "'kern' Horizontal Kerning lookup 15-2" uniFE91 dx=-50 dy=0 dh=-50 dv=0 dx=0 dy=0 dh=0 dv=0
PairPos2: "'kern' Horizontal Kerning lookup 15-2" uni0628 dx=-150 dy=0 dh=-150 dv=0 dx=0 dy=0 dh=0 dv=0
PairPos2: "'kern' Horizontal Kerning lookup 15-2" uni0627 dx=-120 dy=0 dh=-120 dv=0 dx=0 dy=0 dh=0 dv=0
PairPos2: "'kern' Horizontal Kerning lookup 15-2" uni0623 dx=-120 dy=0 dh=-120 dv=0 dx=0 dy=0 dh=0 dv=0
PairPos2: "'kern' Horizontal Kerning lookup 15-2" uni0622 dx=-120 dy=0 dh=-120 dv=0 dx=0 dy=0 dh=0 dv=0
PairPos2: "'kern' Horizontal Kerning lookup 15-2" uni0621 dx=-150 dy=0 dh=-150 dv=0 dx=0 dy=0 dh=0 dv=0
PairPos2: "'kern' Horizontal Kerning lookup 15-2" uniFB94 dx=-190 dy=0 dh=-190 dv=0 dx=0 dy=0 dh=0 dv=0
PairPos2: "'kern' Horizontal Kerning lookup 15-2" uniFB92 dx=-190 dy=0 dh=-190 dv=0 dx=0 dy=0 dh=0 dv=0
PairPos2: "'kern' Horizontal Kerning lookup 15-2" afii57509 dx=-190 dy=0 dh=-190 dv=0 dx=0 dy=0 dh=0 dv=0
PairPos2: "'kern' Horizontal Kerning lookup 15-2" afii57506 dx=-150 dy=0 dh=-150 dv=0 dx=0 dy=0 dh=0 dv=0
PairPos2: "'kern' Horizontal Kerning lookup 15-2" afii57440 dx=-150 dy=0 dh=-150 dv=0 dx=0 dy=0 dh=0 dv=0
PairPos2: "'kern' Horizontal Kerning lookup 15-2" uniFE8B dx=-150 dy=0 dh=-150 dv=0 dx=0 dy=0 dh=0 dv=0
Substitution2: "'fina' Terminal Forms in Arabic lookup 9 subtable" uniFEAE
EndChar

StartChar: uni0633
Encoding: 1587 1587 29
Width: 2601
VWidth: 2393
GlyphClass: 2
Flags: W
AnchorPoint: "Anchor-10" 636.938 972.991 basechar 0
AnchorPoint: "Anchor-7" 460.709 -689.993 basechar 0
LayerCount: 2
Fore
SplineSet
2106 0 m 0,0,1
 1929 0 1929 0 1850.49902344 107.052734375 c 1,2,3
 1767 0 1767 0 1598.95410156 0 c 0,4,5
 1516 0 1516 0 1449.99023438 29.56640625 c 1,6,7
 1393 -481 1393 -481 769.655273438 -479.9296875 c 0,8,9
 445 -479 445 -479 271.517578125 -322.110839844 c 0,10,11
 98 -165 98 -165 97.90234375 139.110351562 c 0,12,13
 98 311 98 311 190.262695312 579.458007812 c 1,14,-1
 428 509.225585938 l 1,15,16
 361 312 361 312 360.809570312 164.690429688 c 0,17,18
 360 -172 360 -172 777.319335938 -171.6796875 c 0,19,20
 1000 -172 1000 -172 1102.09375 -88.6650390625 c 0,21,22
 1204 -5 1204 -5 1204.07519531 168.896484375 c 0,23,24
 1203.99980749 295.322844235 1203.99980749 295.322844235 1138.59960938 550.486328125 c 2,25,-1
 1126.97167969 595.853515625 l 1,26,-1
 1386.6875 649.336914062 l 1,27,28
 1387 645 1387 645 1432.76757812 447.255859375 c 24,29,30
 1463 319 1463 319 1577.62304688 319.421875 c 0,31,32
 1636 320 1636 320 1658.84570312 330.337890625 c 0,33,34
 1714.14588381 356.067876604 1714.14588381 356.067876604 1724.18359375 444.328125 c 2,35,-1
 1748.96386719 662.217773438 l 1,36,-1
 1961.90332031 662.217773438 l 1,37,-1
 1991.53808594 444.513671875 l 2,38,39
 2001 375 2001 375 2026.328125 347.513671875 c 0,40,41
 2053 319 2053 319 2114.46191406 319.088867188 c 0,42,43
 2159 319 2159 319 2187.73535156 345.16015625 c 0,44,45
 2282.82004466 429.839737162 2282.82004466 429.839737162 2178.59179688 704.995117188 c 6,46,-1
 2163.31152344 745.333984375 l 5,47,-1
 2397.52636719 845.578125 l 5,48,-1
 2416.42871094 807.452148438 l 6,49,50
 2493 654 2493 654 2503.72070312 461.391601562 c 0,51,52
 2516 257 2516 257 2402.75195312 129.0390625 c 0,53,54
 2290 0 2290 0 2106 0 c 0,0,1
EndSplineSet
Substitution2: "'fina' Terminal Forms in Arabic lookup 9 subtable" uniFEB2
Substitution2: "'medi' Medial Forms in Arabic lookup 11 subtable" uniFEB4
Substitution2: "'init' Initial Forms in Arabic lookup 13 subtable" uniFEB3
EndChar

StartChar: uni0635
Encoding: 1589 1589 31
Width: 2579
VWidth: 2393
GlyphClass: 2
Flags: W
AnchorPoint: "Anchor-10" 654.816 972.991 basechar 0
AnchorPoint: "Anchor-7" 599.904 -695.235 basechar 0
LayerCount: 2
Fore
SplineSet
1440.23535156 419.120117188 m 1,0,1
 1779 901 1779 901 2094.13769531 901.103515625 c 4,2,3
 2285 901 2285 901 2384.12597656 788.004882812 c 4,4,5
 2484 673 2484 673 2481.40722656 475.659179688 c 0,6,7
 2477 192 2477 192 2270.83007812 81.00390625 c 0,8,9
 2118.81313882 -1.10092431522 2118.81313882 -1.10092431522 1752.98925781 -0.828125 c 2,10,-1
 1751.6796875 -0.8271484375 l 2,11,12
 1747.80943678 -0.879908324901 1747.80943678 -0.879908324901 1728.38476562 -0.7353515625 c 2,13,-1
 1629.44140625 0.0009765625 l 2,14,15
 1512 1 1512 1 1444.671875 51.06640625 c 1,16,17
 1419 -294 1419 -294 1122.78808594 -418.265625 c 0,18,19
 977 -480 977 -480 768.37109375 -479.950195312 c 0,20,21
 325 -480 325 -480 172.913085938 -197.165039062 c 0,22,23
 21 86 21 86 190.262695312 579.458007812 c 1,24,-1
 427 509.225585938 l 1,25,26
 361 314 361 314 360.809570312 164.70703125 c 0,27,28
 360 -172 360 -172 778.26953125 -171.680664062 c 0,29,30
 1002 -172 1002 -172 1103.28027344 -88.7265625 c 0,31,32
 1205 -6 1205 -6 1204.04101562 172.244140625 c 0,33,34
 1202.99793098 302.25788963 1202.99793098 302.25788963 1138.64160156 550.362304688 c 2,35,-1
 1126.84863281 595.826171875 l 1,36,-1
 1386.15332031 649.864257812 l 1,37,-1
 1396.54980469 601.567382812 l 2,38,39
 1434 426 1434 426 1440.23535156 419.120117188 c 1,0,1
1664.92773438 320.618164062 m 1,40,-1
 1784.31347656 320.618164062 l 2,41,42
 1944.65800208 321.038417774 1944.65800208 321.038417774 2038.16210938 329.087890625 c 0,43,44
 2223 345 2223 345 2222.71289062 476.553710938 c 0,45,46
 2223 625 2223 625 2095.17089844 624.971679688 c 0,47,48
 1910 625 1910 625 1664.92773438 320.618164062 c 1,40,-1
EndSplineSet
Substitution2: "'fina' Terminal Forms in Arabic lookup 9 subtable" uniFEBA
Substitution2: "'medi' Medial Forms in Arabic lookup 11 subtable" uniFEBC
Substitution2: "'init' Initial Forms in Arabic lookup 13 subtable" uniFEBB
EndChar

StartChar: uni0637
Encoding: 1591 1591 33
Width: 1498
VWidth: 2393
GlyphClass: 2
Flags: W
AnchorPoint: "Anchor-10" 473.599 1681.85 basechar 0
AnchorPoint: "Anchor-7" 651.982 -267.158 basechar 0
LayerCount: 2
Fore
SplineSet
583.657226562 320.35546875 m 1,0,-1
 703.04296875 320.35546875 l 2,1,2
 862 320 862 320 956.891601562 328.825195312 c 0,3,4
 1141 345 1141 345 1141.44238281 476.291015625 c 0,5,6
 1142 625 1142 625 1013.90039062 624.708984375 c 0,7,8
 828 625 828 625 583.657226562 320.35546875 c 1,0,-1
577.616210938 688.884765625 m 1,9,10
 792 898 792 898 1004.22949219 896.723632812 c 4,11,12
 1206 895 1206 895 1305 782.5 c 4,13,14
 1403 671 1403 671 1400.14746094 475.108398438 c 0,15,16
 1396 185 1396 185 1197.578125 78.412109375 c 0,17,18
 1052 0 1052 0 662.5 0 c 2,19,-1
 97.7392578125 0 l 1,20,-1
 97.7392578125 320.102539062 l 1,21,-1
 273.529296875 320.248046875 l 1,22,23
 292 356 292 356 294.662109375 364.032226562 c 1,24,-1
 294.662109375 1503.81542969 l 1,25,-1
 577.616210938 1503.81542969 l 1,26,-1
 577.616210938 688.884765625 l 1,9,10
EndSplineSet
Substitution2: "'fina' Terminal Forms in Arabic lookup 9 subtable" uniFEC2
Substitution2: "'medi' Medial Forms in Arabic lookup 11 subtable" uniFEC4
Substitution2: "'init' Initial Forms in Arabic lookup 13 subtable" uniFEC3
EndChar

StartChar: uni0639
Encoding: 1593 1593 35
Width: 1344
VWidth: 2438
GlyphClass: 2
Flags: W
AnchorPoint: "Anchor-10" 512.555 1479.15 basechar 0
AnchorPoint: "Anchor-7" 410.631 -745.218 basechar 0
LayerCount: 2
Fore
SplineSet
356.174804688 18.38671875 m 4,0,1
 356 -239 356 -239 838.5 -239 c 0,2,3
 1028 -239 1028 -239 1187.62011719 -184.37890625 c 1,4,-1
 1254.6171875 -473.620117188 l 1,5,6
 1080 -544 1080 -544 803.60546875 -543.674804688 c 0,7,8
 346 -543 346 -543 177.491210938 -268.513671875 c 0,9,10
 98 -139 98 -139 97.97265625 22.369140625 c 4,11,12
 99 318 99 318 383.747070312 516.526367188 c 5,13,14
 286 577 286 577 240.013671875 676.841796875 c 4,15,16
 212 738 212 738 210.927734375 806.9921875 c 4,17,18
 209 1041 209 1041 386.293945312 1154.1328125 c 4,19,20
 637 1313 637 1313 988.534179688 1136.02929688 c 5,21,-1
 922.380859375 911.348632812 l 5,22,23
 756 988 756 988 636.811523438 981.379882812 c 4,24,25
 546 976 546 976 503.340820312 939.490234375 c 4,26,27
 461 903 461 903 461.158203125 842.079101562 c 4,28,29
 461 781 461 781 498.194335938 735.856445312 c 4,30,31
 523 706 523 706 616.340820312 653.973632812 c 5,32,33
 809.740109015 719.91139249 809.740109015 719.91139249 1066.67382812 714.533203125 c 6,34,-1
 1109.26855469 713.641601562 l 5,35,-1
 1117.21679688 442.297851562 l 5,36,-1
 1071.46972656 441.513671875 l 6,37,38
 830 437 830 437 679.876953125 374.006835938 c 4,39,40
 559 323 559 323 489.416015625 256.86328125 c 4,41,42
 356 130 356 130 356.174804688 18.38671875 c 4,0,1
EndSplineSet
Substitution2: "'fina' Terminal Forms in Arabic lookup 9 subtable" uniFECA
Substitution2: "'medi' Medial Forms in Arabic lookup 11 subtable" uniFECC
Substitution2: "'init' Initial Forms in Arabic lookup 13 subtable" uniFECB
EndChar

StartChar: afii57440
Encoding: 1600 1600 37
Width: 676
VWidth: 2438
GlyphClass: 2
Flags: W
AnchorPoint: "Anchor-10" 343.175 1443.04 basechar 0
AnchorPoint: "Anchor-7" 343.175 -84.6133 basechar 0
LayerCount: 2
Fore
SplineSet
-11.42578125 0 m 1,0,-1
 -11.42578125 320.2421875 l 5,1,-1
 686.775390625 320.2421875 l 5,2,-1
 686.775390625 0 l 1,3,-1
 -11.42578125 0 l 1,0,-1
EndSplineSet
EndChar

StartChar: uni0643
Encoding: 1603 1603 40
Width: 2022
VWidth: 2438
GlyphClass: 2
Flags: W
AnchorPoint: "Anchor-10" 693.485 1482.58 basechar 0
AnchorPoint: "Anchor-7" 594.645 -228.483 basechar 0
LayerCount: 2
Fore
SplineSet
799.956054688 875.872070312 m 2,0,1
 862.974609375 867.684570312 862.974609375 867.684570312 921.211602833 867.684570312 c 128,-1,2
 979.44859629 867.684570312 979.44859629 867.684570312 1034.6969544 889.122070312 c 128,-1,3
 1089.9453125 910.559570312 1089.9453125 910.559570312 1089.9453125 940.339629949 c 128,-1,4
 1089.9453125 970.119689586 1089.9453125 970.119689586 1015.40917969 981.853790106 c 128,-1,5
 940.873046875 993.587890625 940.873046875 993.587890625 889.198015298 1050.213976 c 128,-1,6
 837.52298372 1106.84006138 837.52298372 1106.84006138 856.725782484 1196.32644067 c 0,7,8
 892.763691586 1364.26560634 892.763691586 1364.26560634 1178.34863281 1383.54101562 c 2,9,-1
 1226.37890625 1386.78320312 l 1,10,-1
 1226.37890625 1243.1875 l 1,11,-1
 1184.75878906 1240.05273438 l 2,12,13
 1065.23535156 1231.05078125 1065.23535156 1231.05078125 1012.62402344 1186.55761719 c 0,14,15
 1000.75683594 1176.52138571 1000.75683594 1176.52138571 1000.75683594 1166.09565379 c 128,-1,16
 1000.75683594 1155.66992188 1000.75683594 1155.66992188 1002.18652344 1149.92871094 c 0,17,18
 1009.56407244 1120.3026108 1009.56407244 1120.3026108 1079.85137216 1109.96917649 c 128,-1,19
 1150.13867188 1099.63574219 1150.13867188 1099.63574219 1193.35449219 1062.53710938 c 128,-1,20
 1236.5703125 1025.43847656 1236.5703125 1025.43847656 1236.5703125 962.434082031 c 0,21,22
 1236.5703125 833.166357148 1236.5703125 833.166357148 1112.49316406 762.99968248 c 128,-1,23
 988.416015625 692.833007812 988.416015625 692.833007812 786.859375 725.96484375 c 2,24,-1
 749.158203125 732.162109375 l 1,25,-1
 749.158203125 882.471679688 l 1,26,-1
 799.956054688 875.872070312 l 2,0,1
367.26953125 616.55859375 m 0,27,28
 371 519 371 519 445.5 439 c 0,29,30
 547 331 547 331 918.5 318.5 c 0,31,32
 1119 312 1119 312 1273.42285156 328.224609375 c 0,33,34
 1587.17028035 361.017797869 1587.17028035 361.017797869 1603.23828125 514.33203125 c 2,35,-1
 1609.390625 573.03515625 l 1,36,-1
 1609.390625 1504.27050781 l 1,37,-1
 1889.7265625 1504.27050781 l 1,38,-1
 1889.7265625 490.111328125 l 1,39,40
 1891 354 1891 354 1843.81640625 276.4921875 c 0,41,42
 1708 54 1708 54 1291.99707031 13.52734375 c 0,43,44
 1166 1 1166 1 911 3 c 128,-1,45
 656 5 656 5 494.5 51.5 c 128,-1,46
 333 98 333 98 225.892970322 223.713284811 c 0,47,48
 119 349 119 349 99.0595703125 535.649414062 c 0,49,50
 85.0087257263 671.915377364 85.0087257263 671.915377364 138.439453125 823.258789062 c 2,51,-1
 151.389648438 859.940429688 l 1,52,-1
 400.790039062 810.881835938 l 1,53,54
 364 705 364 705 367.26953125 616.55859375 c 0,27,28
EndSplineSet
Substitution2: "'fina' Terminal Forms in Arabic lookup 9 subtable" uniFEDA
Substitution2: "'medi' Medial Forms in Arabic lookup 11 subtable" uniFEDC
Substitution2: "'init' Initial Forms in Arabic lookup 13 subtable" uniFEDB
EndChar

StartChar: uni0644
Encoding: 1604 1604 41
Width: 1479
VWidth: 2438
GlyphClass: 2
Flags: W
AnchorPoint: "Anchor-10" 517.778 1217.9 basechar 0
AnchorPoint: "Anchor-7" 482.788 -524.038 basechar 0
LayerCount: 2
Fore
SplineSet
1062.55175781 267.3515625 m 0,0,1
 1061 511 1061 511 1065.19042969 533.678710938 c 2,2,-1
 1065.19042969 1503.19140625 l 1,3,-1
 1347.04589844 1503.19140625 l 1,4,-1
 1347.04589844 533.533203125 l 2,5,6
 1346.9900129 336.851782806 1346.9900129 336.851782806 1344.421875 248.555664062 c 0,7,8
 1336 -41 1336 -41 1173 -208.5 c 128,-1,9
 1010 -376 1010 -376 725 -376 c 128,-1,10
 440 -376 440 -376 269 -227 c 128,-1,11
 98 -78 98 -78 97.9619140625 212.107421875 c 0,12,13
 98 359 98 359 162.04296875 526.18359375 c 1,14,-1
 400 462 l 1,15,16
 354 305 354 305 353.930664062 228.36328125 c 0,17,18
 354 95 354 95 442 13.5 c 128,-1,19
 530 -68 530 -68 710 -68 c 0,20,21
 881 -68 881 -68 972 12.5 c 0,22,23
 1064 94 1064 94 1062.55175781 267.3515625 c 0,0,1
EndSplineSet
Substitution2: "'fina' Terminal Forms in Arabic lookup 9 subtable" uniFEDE
Substitution2: "'medi' Medial Forms in Arabic lookup 11 subtable" uniFEE0
Substitution2: "'init' Initial Forms in Arabic lookup 13 subtable" uniFEDF
EndChar

StartChar: uni0645
Encoding: 1605 1605 42
Width: 1235
VWidth: 2393
GlyphClass: 2
Flags: W
AnchorPoint: "Anchor-10" 656.078 1118.98 basechar 0
AnchorPoint: "Anchor-7" 225.936 -667.918 basechar 0
LayerCount: 2
Fore
SplineSet
872.701171875 548.03125 m 0,0,1
 798 680 798 680 685.458984375 679.333984375 c 0,2,3
 586 679 586 679 580.040039062 556.498046875 c 0,4,5
 578 512 578 512 579.021484375 466.943359375 c 1,6,7
 867.615130339 427.780824704 867.615130339 427.780824704 896.368164062 469.231445312 c 4,8,9
 907 485 907 485 872.701171875 548.03125 c 0,0,1
97.7392578125 -9.26171875 m 2,10,11
 97.7392578125 418.964983663 97.7392578125 418.964983663 328.209960938 449.916015625 c 1,12,13
 331 738 331 738 465.470703125 855.935546875 c 0,14,15
 551 931 551 931 666.813476562 930.447265625 c 0,16,17
 827 931 827 931 939.166015625 835.844726562 c 0,18,19
 1061 731 1061 731 1104.19238281 594.80859375 c 0,20,21
 1147 462 1147 462 1140 413 c 1,22,23
 1131 318 1131 318 1087.4609375 254.34375 c 0,24,25
 1009 142 1009 142 899.46484375 145.154296875 c 0,26,27
 875 146 875 146 540.364257812 156.642578125 c 0,28,29
 436 160 436 160 402 111 c 0,30,31
 375.727539062 72.6017878598 375.727539062 72.6017878598 375.727539062 -101.63671875 c 2,32,-1
 375.727539062 -581.821289062 l 1,33,-1
 97.7392578125 -581.821289062 l 1,34,-1
 97.7392578125 -9.26171875 l 2,10,11
EndSplineSet
Substitution2: "'init' Initial Forms in Arabic lookup 13 subtable" uniFEE3
Substitution2: "'medi' Medial Forms in Arabic lookup 11 subtable" uniFEE4
Substitution2: "'fina' Terminal Forms in Arabic lookup 9 subtable" uniFEE2
EndChar

StartChar: uni0647
Encoding: 1607 1607 44
Width: 969
VWidth: 2393
GlyphClass: 2
Flags: W
AnchorPoint: "Anchor-10" 511.621 1343.85 basechar 0
AnchorPoint: "Anchor-7" 422.459 -297.324 basechar 0
LayerCount: 2
Fore
SplineSet
482.458984375 646.114257812 m 1,0,1
 342 513 342 513 341.606445312 418.2109375 c 0,2,3
 342 294 342 294 491.92578125 291.858398438 c 0,4,5
 637 290 637 290 637.544921875 407.919921875 c 0,6,7
 637 511 637 511 482.458984375 646.114257812 c 1,0,1
450.385742188 1009.20605469 m 2,8,9
 876.000637448 661.604380031 876.000637448 661.604380031 876.4921875 356.533203125 c 4,10,11
 877 156 877 156 719.197265625 60.275390625 c 0,12,13
 625 3 625 3 493.39453125 3.5087890625 c 0,14,15
 365 4 365 4 275.521484375 48.533203125 c 0,16,17
 91 139 91 139 91.083984375 352.59765625 c 0,18,19
 91 545 91 545 242.444335938 728.8828125 c 1,20,-1
 302.837890625 803.393554688 l 1,21,-1
 249.73046875 848.168945312 l 1,22,-1
 416.127929688 1037.18457031 l 1,23,-1
 450.385742188 1009.20605469 l 2,8,9
EndSplineSet
Substitution2: "'fina' Terminal Forms in Arabic lookup 9 subtable" uniFEEA
Substitution2: "'medi' Medial Forms in Arabic lookup 11 subtable" uniFEEC
Substitution2: "'init' Initial Forms in Arabic lookup 13 subtable" uniFEEB
EndChar

StartChar: uni0648
Encoding: 1608 1608 45
Width: 957
VWidth: 2438
GlyphClass: 2
Flags: W
AnchorPoint: "Anchor-10" 418.293 1176.9 basechar 0
AnchorPoint: "Anchor-7" 379.53 -632.771 basechar 0
LayerCount: 2
Fore
SplineSet
604.407226562 310.760742188 m 1,0,1
 598 585 598 585 496.799804688 585.522460938 c 0,2,3
 429 586 429 586 389 482 c 4,4,5
 373.061932709 442.853869812 373.061932709 442.853869812 373.866155895 402 c 0,6,7
 376 320 376 320 476.703125 307.465820312 c 0,8,9
 526 301 526 301 604.407226562 310.760742188 c 1,0,1
792.727539062 639.974609375 m 0,10,11
 874 471 874 471 858.747070312 195.95703125 c 0,12,13
 841 -122 841 -122 655.263671875 -288.439453125 c 0,14,15
 491.588582649 -435.369326203 491.588582649 -435.369326203 164.314453125 -464.091796875 c 2,16,-1
 123.288085938 -467.692382812 l 1,17,-1
 78.3486328125 -157.063476562 l 1,18,-1
 126.83984375 -152.358398438 l 2,19,20
 503 -116 503 -116 567.013671875 4.7373046875 c 1,21,22
 510 -1 510 -1 479.288085938 -0.732421875 c 0,23,24
 281 1 281 1 187.059570312 137.791992188 c 0,25,26
 50 338 50 338 171.666992188 613.034179688 c 0,27,28
 284 869 284 869 488.483398438 868.953125 c 0,29,30
 683 869 683 869 792.727539062 639.974609375 c 0,10,11
EndSplineSet
Substitution2: "'fina' Terminal Forms in Arabic lookup 9 subtable" uniFEEE
EndChar

StartChar: uni0649
Encoding: 1609 1609 46
Width: 1554
VWidth: 2438
GlyphClass: 2
Flags: W
AnchorPoint: "Anchor-10" 508.206 1119.7 basechar 0
AnchorPoint: "Anchor-7" 485.913 -599.935 basechar 0
LayerCount: 2
Fore
SplineSet
1048.16210938 -47.8310546875 m 0,0,1
 1186.23016191 8.91662415493 1186.23016191 8.91662415493 1196.42480469 67.892578125 c 0,2,3
 1199 84 1199 84 1152.78613281 85.173828125 c 0,4,5
 1110 86 1110 86 1053.83496094 91.2509765625 c 0,6,7
 898 106 898 106 830.139648438 190.35546875 c 4,8,9
 744 297 744 297 795.599609375 524.23046875 c 0,10,11
 838 713 838 713 992.106445312 821.78515625 c 0,12,13
 1130.84957559 920.892548405 1130.84957559 920.892548405 1371.82226562 906.938476562 c 2,14,-1
 1414.45507812 904.469726562 l 1,15,-1
 1394.37695312 611.31640625 l 1,16,-1
 1330.17480469 611.31640625 l 2,17,18
 1146 611 1146 611 1078.31445312 509.522460938 c 0,19,20
 1052 470 1052 470 1042 425.659179688 c 0,21,22
 1033 386 1033 386 1049.9296875 370.927734375 c 0,23,24
 1076 348 1076 348 1195.29589844 340.318359375 c 0,25,26
 1325 333 1325 333 1391.40234375 275.120117188 c 0,27,28
 1457 218 1457 218 1456.65429688 116.287109375 c 0,29,30
 1456 -91 1456 -91 1305.54003906 -226.947265625 c 0,31,32
 1104 -410 1104 -410 736.256835938 -403.994140625 c 0,33,34
 285 -397 285 -397 154.004882812 -90.7783203125 c 0,35,36
 8 252 8 252 227.436523438 661.534179688 c 1,37,-1
 468 566 l 1,38,39
 342 345 342 345 367.98828125 166.626953125 c 0,40,41
 405 -96 405 -96 751.634765625 -95.3603515625 c 0,42,43
 932 -95 932 -95 1048.16210938 -47.8310546875 c 0,0,1
EndSplineSet
Substitution2: "'fina' Terminal Forms in Arabic lookup 9 subtable" uniFEF0
Substitution2: "'medi' Medial Forms in Arabic lookup 11 subtable" uniFBE9
Substitution2: "'init' Initial Forms in Arabic lookup 13 subtable" uniFBE8
EndChar

StartChar: uni064B
Encoding: 1611 1611 48
Width: -27
VWidth: 2304
GlyphClass: 4
Flags: W
AnchorPoint: "Anchor-10" 609.519 1111.82 mark 0
AnchorPoint: "Anchor-9" 609.519 1111.82 mark 0
AnchorPoint: "Anchor-1" 569.519 1660.78 basemark 0
AnchorPoint: "Anchor-1" 609.519 1111.82 mark 0
LayerCount: 2
Fore
SplineSet
295.123188484 1180.73643085 m 1,0,-1
 815.6796875 1393.5958145 l 1,1,-1
 815.6796875 1257.248136 l 1,2,-1
 292.015625 1043.11904236 l 1,3,-1
 292.015625 1176.10839844 l 1,4,-1
 295.123188484 1180.73643085 l 1,0,-1
295.123188484 1454.2403371 m 1,5,-1
 815.6796875 1667.09972075 l 1,6,-1
 815.6796875 1530.75204225 l 1,7,-1
 292.015625 1316.62294861 l 1,8,-1
 292.015625 1449.61230469 l 1,9,-1
 295.123188484 1454.2403371 l 1,5,-1
EndSplineSet
EndChar

StartChar: uni064C
Encoding: 1612 1612 49
Width: -27
VWidth: 2304
GlyphClass: 4
Flags: W
AnchorPoint: "Anchor-10" 676.432 1216.14 mark 0
AnchorPoint: "Anchor-9" 676.432 1216.14 mark 0
AnchorPoint: "Anchor-1" 567.983 1908.35 basemark 0
AnchorPoint: "Anchor-1" 676.432 1216.14 mark 0
LayerCount: 2
Fore
SplineSet
652.655273437 1722.86425781 m 0,0,1
 626.941901121 1722.86425781 626.941901121 1722.86425781 610.577077904 1715.67541271 c 0,2,3
 594.805573241 1708.74720441 594.805573241 1708.74720441 587.234675324 1694.96039401 c 0,4,5
 584.684286236 1690.31606632 584.684286236 1690.31606632 582.965680752 1684.79361811 c 128,-1,6
 581.247075268 1679.2711699 581.247075268 1679.2711699 580.355471228 1672.69448727 c 128,-1,7
 579.463867188 1666.11780463 579.463867188 1666.11780463 579.463867188 1658.640625 c 0,8,9
 579.463867188 1611.60232124 579.463867188 1611.60232124 635.168582039 1589.32008429 c 0,10,11
 638.681992001 1587.91489713 638.681992001 1587.91489713 642.876867213 1586.34622101 c 0,12,13
 644.979907561 1585.5597878 644.979907561 1585.5597878 647.227394089 1584.74187922 c 128,-1,14
 649.474880617 1583.92397063 649.474880617 1583.92397063 651.865984633 1583.07493273 c 0,15,16
 656.65191204 1581.37553625 656.65191204 1581.37553625 662.030698963 1579.54262303 c 128,-1,17
 667.40895139 1577.70994208 667.40895139 1577.70994208 673.286495735 1575.77636424 c 128,-1,18
 679.164375753 1573.84270185 679.164375753 1573.84270185 685.534313391 1571.8092903 c 0,19,20
 689.454515612 1570.55789334 689.454515612 1570.55789334 694.391150691 1569.00864779 c 1,21,-1
 703.899301408 1591.1919626 l 2,22,23
 714.69140625 1616.37475189 714.69140625 1616.37475189 714.69140625 1653.09667969 c 0,24,25
 714.69140625 1670.37688207 714.69140625 1670.37688207 709.377600835 1683.1396421 c 128,-1,26
 704.06379542 1695.90240213 704.06379542 1695.90240213 693.442758752 1704.64794944 c 0,27,28
 671.31994901 1722.86425781 671.31994901 1722.86425781 652.655273437 1722.86425781 c 0,0,1
332.106876891 1515.59561108 m 2,29,30
 333.24353205 1406.7266804 333.24353205 1406.7266804 362.771881839 1353.97435501 c 128,-1,31
 392.300231628 1301.22202963 392.300231628 1301.22202963 449.511236289 1301.76654344 c 0,32,33
 513.930479204 1301.98618296 513.930479204 1301.98618296 585.826705486 1371.77518863 c 0,34,35
 606.914299314 1391.98057993 606.914299314 1391.98057993 623.657343001 1414.51200201 c 128,-1,36
 640.400386688 1437.0434241 640.400386688 1437.0434241 652.862028027 1461.97145451 c 2,37,-1
 657.331428573 1470.91195839 l 1,38,-1
 647.599153494 1472.97688371 l 2,39,40
 637.14435015 1475.13971319 637.14435015 1475.13971319 627.346932101 1477.59703867 c 128,-1,41
 617.548934788 1480.05476081 617.548934788 1480.05476081 608.355633872 1482.82351205 c 128,-1,42
 599.159647066 1485.5933685 599.159647066 1485.5933685 590.617556178 1488.67242415 c 128,-1,43
 582.069211456 1491.75417149 582.069211456 1491.75417149 574.154037519 1495.14964525 c 0,44,45
 570.18821058 1496.85091694 570.18821058 1496.85091694 566.387510103 1498.63276229 c 128,-1,46
 562.586809625 1500.41460765 562.586809625 1500.41460765 558.950984199 1502.27751207 c 0,47,48
 556.525503498 1503.52026666 556.525503498 1503.52026666 554.172435714 1504.79851013 c 128,-1,49
 551.819367929 1506.07675359 551.819367929 1506.07675359 549.534869659 1507.39277656 c 128,-1,50
 547.250371389 1508.70879954 547.250371389 1508.70879954 545.038308425 1510.06058349 c 0,51,52
 538.385116873 1514.12632562 538.385116873 1514.12632562 532.403467469 1518.52646773 c 0,53,54
 529.407238951 1520.73051386 529.407238951 1520.73051386 526.577080465 1523.01810567 c 128,-1,55
 523.746921978 1525.30569748 523.746921978 1525.30569748 521.083376737 1527.67702422 c 0,56,57
 515.741774171 1532.43259765 515.741774171 1532.43259765 511.077567545 1537.53679611 c 128,-1,58
 506.401822269 1542.65362171 506.401822269 1542.65362171 502.423130092 1548.10388497 c 0,59,60
 463.954598098 1600.80050414 463.954598098 1600.80050414 464.500964367 1640.13887549 c 0,61,62
 465.711815098 1727.32012819 465.711815098 1727.32012819 501.151390717 1771.197698 c 0,63,64
 516.732505428 1791.38232388 516.732505428 1791.38232388 537.015999007 1804.95114125 c 128,-1,65
 557.29452922 1818.51663834 557.29452922 1818.51663834 581.901544034 1825.27639101 c 128,-1,66
 606.376987767 1832 606.376987767 1832 635 1832 c 128,-1,67
 663.535456674 1832 663.535456674 1832 688.276483791 1826.49016389 c 128,-1,68
 713.017510908 1820.98032778 713.017510908 1820.98032778 734.010335406 1809.8822487 c 128,-1,69
 755.003159904 1798.78416962 755.003159904 1798.78416962 771.996247926 1782.14510426 c 0,70,71
 822.97315154 1732.23021948 822.97315154 1732.23021948 823.526648506 1645.19897159 c 0,72,73
 823.771280752 1624.45425824 823.771280752 1624.45425824 820.467301519 1603.24799688 c 128,-1,74
 817.163322287 1582.04173553 817.163322287 1582.04173553 810.326565081 1560.39894149 c 2,75,-1
 807.321298983 1550.88531489 l 1,76,-1
 817.310094805 1550.36114319 l 2,77,78
 823.565135616 1550.02006918 823.565135616 1550.02006918 830.634598771 1549.71874625 c 128,-1,79
 837.704061926 1549.41742332 837.704061926 1549.41742332 845.588124581 1549.15586488 c 128,-1,80
 853.472187236 1548.89430645 853.472187236 1548.89430645 862.173881868 1548.6726635 c 128,-1,81
 870.8755765 1548.45102056 870.8755765 1548.45102056 880.38309705 1548.26966562 c 2,82,-1
 890.192382812 1548.08255454 l 1,83,-1
 890.192382812 1439.16125328 l 1,84,-1
 880.028823936 1439.32750954 l 2,85,86
 859.061432422 1439.67049572 859.061432422 1439.67049572 844.874049376 1440.20288132 c 128,-1,87
 830.686666331 1440.73526691 830.686666331 1440.73526691 822.95606008 1441.47851746 c 2,88,-1
 758.5190711 1447.67374016 l 1,89,90
 741.736744031 1410.00953771 741.736744031 1410.00953771 718.520004327 1375.97078906 c 0,91,92
 694.175364365 1340.27839249 694.175364365 1340.27839249 662.226032472 1307.57393251 c 0,93,94
 640.493465326 1285.33629438 640.493465326 1285.33629438 620.645245296 1267.92417675 c 128,-1,95
 600.797025266 1250.51205912 600.797025266 1250.51205912 582.572140622 1237.74794755 c 128,-1,96
 564.347255979 1224.98383599 564.347255979 1224.98383599 547.858085483 1216.99960607 c 128,-1,97
 531.367714286 1209.01479475 531.367714286 1209.01479475 514.677901934 1203.67593486 c 128,-1,98
 497.988089582 1198.33707496 497.988089582 1198.33707496 481.074309812 1195.64629582 c 128,-1,99
 464.160530042 1192.95551667 464.160530042 1192.95551667 447.076091194 1192.93164238 c 0,100,101
 416.515169196 1192.94979575 416.515169196 1192.94979575 389.944968111 1202.614999 c 128,-1,102
 363.343914547 1212.29142518 363.343914547 1212.29142518 341.068880552 1231.43325879 c 0,103,104
 329.979091978 1240.96316064 329.979091978 1240.96316064 319.966800327 1252.76269542 c 128,-1,105
 309.954508677 1264.5622302 309.954508677 1264.5622302 301.015540382 1278.61338946 c 0,106,107
 295.069654221 1287.9597246 295.069654221 1287.9597246 289.595746217 1298.30083392 c 128,-1,108
 284.121838213 1308.64194325 284.121838213 1308.64194325 279.13152425 1319.94577218 c 128,-1,109
 274.141210288 1331.24960112 274.141210288 1331.24960112 269.611236841 1343.55745351 c 0,110,111
 262.033145322 1364.22497583 262.033145322 1364.22497583 256.879199354 1390.24735731 c 128,-1,112
 251.725253385 1416.26973878 251.725253385 1416.26973878 248.986754695 1447.48281679 c 128,-1,113
 246.248256006 1478.69589481 246.248256006 1478.69589481 245.863830097 1515.3864415 c 2,114,-1
 245.757957181 1525.49121094 l 1,115,-1
 332.003561054 1525.49121094 l 1,116,-1
 332.106876891 1515.59561108 l 2,29,30
EndSplineSet
EndChar

StartChar: uni064D
Encoding: 1613 1613 50
Width: -27
VWidth: 2304
GlyphClass: 4
Flags: W
AnchorPoint: "Anchor-7" 552.623 75.7275 mark 0
AnchorPoint: "Anchor-6" 552.623 75.7275 mark 0
AnchorPoint: "Anchor-0" 635.519 -468.112 basemark 0
AnchorPoint: "Anchor-0" 552.623 75.7275 mark 0
LayerCount: 2
Fore
SplineSet
297.295898438 -530.321400434 m 1,0,-1
 297.295898438 -393.973721945 l 1,1,-1
 820.959960938 -179.844628296 l 1,2,-1
 820.959960938 -316.19131121 l 1,3,-1
 297.295898438 -530.321400434 l 1,0,-1
297.295898438 -256.817494184 m 1,4,-1
 297.295898438 -120.469815695 l 1,5,-1
 820.959960938 93.6592779545 l 1,6,-1
 820.959960938 -42.6874049601 l 1,7,-1
 297.295898438 -256.817494184 l 1,4,-1
EndSplineSet
EndChar

StartChar: uni064E
Encoding: 1614 1614 51
Width: -27
VWidth: 2304
GlyphClass: 4
Flags: W
AnchorPoint: "Anchor-10" 577.839 1361.15 mark 0
AnchorPoint: "Anchor-9" 577.839 1361.15 mark 0
AnchorPoint: "Anchor-1" 537.839 1686.13 basemark 0
AnchorPoint: "Anchor-1" 577.839 1361.15 mark 0
LayerCount: 2
Fore
SplineSet
261.391601562 1315.56629487 m 1,0,-1
 261.391601562 1451.91396745 l 1,1,-1
 785.055664062 1666.04405669 l 1,2,-1
 785.055664062 1529.69638411 l 1,3,-1
 261.391601562 1315.56629487 l 1,0,-1
EndSplineSet
EndChar

StartChar: uni064F
Encoding: 1615 1615 52
Width: -27
VWidth: 2304
GlyphClass: 4
Flags: W
AnchorPoint: "Anchor-10" 615.623 1281.01 mark 0
AnchorPoint: "Anchor-9" 615.623 1281.01 mark 0
AnchorPoint: "Anchor-1" 546.519 1923.2 basemark 0
AnchorPoint: "Anchor-1" 615.623 1281.01 mark 0
LayerCount: 2
Fore
SplineSet
822.590865022 1454.22554341 m 2,0,1
 767.996351262 1454.97177839 767.996351262 1454.97177839 695.452901679 1462.46860827 c 1,2,3
 682.221530743 1444.38538591 682.221530743 1444.38538591 668.051032634 1428.32898672 c 128,-1,4
 653.880534524 1412.27258753 653.880534524 1412.27258753 638.292522813 1397.68145854 c 0,5,6
 606.226036222 1367.66568418 606.226036222 1367.66568418 568.678579298 1344.51945307 c 0,7,8
 448.038630385 1269.10642269 448.038630385 1269.10642269 311.372874843 1264.0069542 c 2,9,-1
 301 1263.61990663 l 1,10,-1
 301 1372.42139559 l 1,11,-1
 310.675073259 1372.73593068 l 2,12,13
 318.452159087 1372.98876249 318.452159087 1372.98876249 326.07890447 1373.49447105 c 128,-1,14
 333.705649853 1374.0001796 333.705649853 1374.0001796 341.178750802 1374.75850617 c 128,-1,15
 348.65185175 1375.51683273 348.65185175 1375.51683273 355.97444928 1376.52742625 c 128,-1,16
 363.297046811 1377.53801977 363.297046811 1377.53801977 370.467707302 1378.80107284 c 128,-1,17
 377.638367794 1380.06412591 377.638367794 1380.06412591 384.658237203 1381.57880606 c 128,-1,18
 391.678106611 1383.09348622 391.678106611 1383.09348622 398.547746378 1384.86046747 c 128,-1,19
 405.417386144 1386.62744873 405.417386144 1386.62744873 412.135947162 1388.6454172 c 128,-1,20
 418.854508181 1390.66338567 418.854508181 1390.66338567 425.424546953 1392.93349678 c 128,-1,21
 431.994585726 1395.20360789 431.994585726 1395.20360789 438.413258085 1397.72406635 c 128,-1,22
 444.831930444 1400.24452481 444.831930444 1400.24452481 451.103663263 1403.01693737 c 0,23,24
 513.822303917 1430.7416431 513.822303917 1430.7416431 562.380542952 1483.90988237 c 2,25,-1
 571.859010819 1493.89317655 l 1,26,-1
 558.59288451 1496.83819306 l 2,27,28
 553.98656354 1497.79106267 553.98656354 1497.79106267 542.890683446 1503.02871161 c 128,-1,29
 531.794803352 1508.26636054 531.794803352 1508.26636054 510.890101718 1519.12594581 c 0,30,31
 506.370413281 1521.4738359 506.370413281 1521.4738359 501.985719734 1524.06484092 c 128,-1,32
 497.601415042 1526.6556232 497.601415042 1526.6556232 493.358870602 1529.48491703 c 128,-1,33
 489.116803137 1532.31388671 489.116803137 1532.31388671 485.012634581 1535.38286183 c 128,-1,34
 480.908653608 1538.45165359 480.908653608 1538.45165359 476.948213593 1541.75574099 c 128,-1,35
 472.988193364 1545.05942016 472.988193364 1545.05942016 469.168421076 1548.59959791 c 128,-1,36
 465.348726702 1552.13961115 465.348726702 1552.13961115 461.673659586 1555.91144882 c 128,-1,37
 457.998869169 1559.68289634 457.998869169 1559.68289634 454.465969777 1563.68726686 c 128,-1,38
 450.933111831 1567.69145583 450.933111831 1567.69145583 447.545264564 1571.92406683 c 128,-1,39
 444.15752769 1576.15639484 444.15752769 1576.15639484 440.912639157 1580.61828302 c 0,40,41
 411.006698143 1621.73895192 411.006698143 1621.73895192 410.904302379 1671.79271827 c 0,42,43
 411.00522777 1767.98800462 411.00522777 1767.98800462 485.73559996 1824.33351946 c 0,44,45
 501.236230675 1836.08312766 501.236230675 1836.08312766 527.273943451 1841.60306957 c 0,46,47
 552.731407771 1847 552.731407771 1847 589 1847 c 0,48,49
 601.300134234 1847 601.300134234 1847 613.006978384 1845.59629793 c 128,-1,50
 624.713822533 1844.19259586 624.713822533 1844.19259586 635.804480433 1841.39070594 c 128,-1,51
 646.895138333 1838.58881603 646.895138333 1838.58881603 657.37323577 1834.38608447 c 128,-1,52
 667.851333207 1830.18335291 667.851333207 1830.18335291 677.691406719 1824.59089143 c 128,-1,53
 687.531480231 1818.99842994 687.531480231 1818.99842994 696.739894054 1812.00761408 c 128,-1,54
 705.948307876 1805.01679821 705.948307876 1805.01679821 714.497031253 1796.64433717 c 128,-1,55
 723.091002988 1788.22756073 723.091002988 1788.22756073 730.264812044 1778.77585349 c 128,-1,56
 737.4386211 1769.32414624 737.4386211 1769.32414624 743.174730364 1758.86458653 c 128,-1,57
 748.910839628 1748.40502683 748.910839628 1748.40502683 753.203263742 1736.95203679 c 128,-1,58
 757.489666284 1725.51511344 757.489666284 1725.51511344 760.346052914 1713.12162917 c 128,-1,59
 763.202439544 1700.72814491 763.202439544 1700.72814491 764.627038352 1687.44006013 c 128,-1,60
 766.051637161 1674.15197536 766.051637161 1674.15197536 766.06248278 1659.91015272 c 0,61,62
 765.997179581 1624.72193228 765.997179581 1624.72193228 750.592290201 1575.21807131 c 2,63,-1
 747.658394415 1565.79018536 l 1,64,-1
 757.51501766 1565.20757844 l 2,65,66
 776.406499309 1564.10361263 776.406499309 1564.10361263 792.712724935 1563.55896825 c 128,-1,67
 809.018950561 1563.01432387 809.018950561 1563.01432387 822.717325283 1563.02831509 c 2,68,-1
 832.727539062 1563.03853931 l 1,69,-1
 832.727539062 1454.08698845 l 1,70,-1
 822.590865022 1454.22554341 l 2,0,1
636.926097867 1583.85626185 m 1,71,-1
 646.434320491 1606.0383222 l 2,72,73
 649.096895031 1612.25189261 649.096895031 1612.25189261 651.112833527 1619.21795334 c 128,-1,74
 653.128772022 1626.18401407 653.128772022 1626.18401407 654.489118327 1633.90447667 c 0,75,76
 657.227539062 1649.44601547 657.227539062 1649.44601547 657.227539062 1667.94628906 c 0,77,78
 657.227539062 1671.87169229 657.227539062 1671.87169229 656.952426288 1675.56642956 c 128,-1,79
 656.677313513 1679.26116684 656.677313513 1679.26116684 656.135905502 1682.68266665 c 128,-1,80
 655.594497491 1686.10416647 655.594497491 1686.10416647 654.785981174 1689.2952965 c 0,81,82
 653.578978471 1694.05921096 653.578978471 1694.05921096 651.807477646 1698.28878064 c 128,-1,83
 650.035976821 1702.51835033 650.035976821 1702.51835033 647.701072956 1706.24114054 c 0,84,85
 646.14430113 1708.72327053 646.14430113 1708.72327053 644.329566149 1711.01656409 c 128,-1,86
 642.514831167 1713.30985765 642.514831167 1713.30985765 640.426419871 1715.43040987 c 128,-1,87
 638.338008575 1717.55096209 638.338008575 1717.55096209 635.976232568 1719.49546908 c 0,88,89
 624.786406234 1728.70752192 624.786406234 1728.70752192 612.66162138 1733.22044519 c 0,90,91
 610.247420253 1734.11902645 610.247420253 1734.11902645 607.788640646 1734.83704472 c 128,-1,92
 605.32986104 1735.55506299 605.32986104 1735.55506299 602.817716599 1736.0944582 c 128,-1,93
 600.305572157 1736.63385341 600.305572157 1736.63385341 597.742778592 1736.99305052 c 128,-1,94
 595.179985028 1737.35224763 595.179985028 1737.35224763 592.560446087 1737.53208085 c 128,-1,95
 589.940907146 1737.71191406 589.940907146 1737.71191406 587.264648438 1737.71191406 c 0,96,97
 580.469162556 1737.71191406 580.469162556 1737.71191406 574.189251015 1736.76446876 c 128,-1,98
 567.909339474 1735.81702346 567.909339474 1735.81702346 562.117988921 1733.93029325 c 0,99,100
 550.561720844 1730.16544429 550.561720844 1730.16544429 540.60646626 1722.58215157 c 0,101,102
 531.726585822 1715.81801187 531.726585822 1715.81801187 526.969575066 1702.31975354 c 0,103,104
 525.340246024 1697.69645007 525.340246024 1697.69645007 524.23955106 1692.21297372 c 128,-1,105
 523.138856096 1686.72949738 523.138856096 1686.72949738 522.569428048 1680.26650171 c 128,-1,106
 522 1673.80350605 522 1673.80350605 522 1666.52148438 c 0,107,108
 522 1646.60447092 522 1646.60447092 535.642086022 1631.06993363 c 128,-1,109
 549.284172044 1615.53539634 549.284172044 1615.53539634 577.703668825 1604.16679176 c 0,110,111
 587.600350954 1600.20870288 587.600350954 1600.20870288 602.848499777 1594.98304429 c 128,-1,112
 618.096648599 1589.75738569 618.096648599 1589.75738569 636.926097867 1583.85626185 c 1,71,-1
EndSplineSet
EndChar

StartChar: uni0650
Encoding: 1616 1616 53
Width: -27
VWidth: 2304
GlyphClass: 4
Flags: W
AnchorPoint: "Anchor-7" 567.391 -16.2002 mark 0
AnchorPoint: "Anchor-6" 567.391 -16.2002 mark 0
AnchorPoint: "Anchor-0" 615.023 -326.944 basemark 0
AnchorPoint: "Anchor-0" 567.391 -16.2002 mark 0
LayerCount: 2
Fore
SplineSet
307.856445312 -367.697369249 m 1,0,-1
 307.856445312 -231.349700922 l 1,1,-1
 831.51953125 -17.2205994997 l 1,2,-1
 831.51953125 -153.568267828 l 1,3,-1
 307.856445312 -367.697369249 l 1,0,-1
EndSplineSet
EndChar

StartChar: uni0651
Encoding: 1617 1617 54
Width: -27
VWidth: 2304
GlyphClass: 4
Flags: W
AnchorPoint: "Anchor-10" 609.519 1390.22 mark 0
AnchorPoint: "Anchor-9" 609.519 1390.22 mark 0
AnchorPoint: "Anchor-1" 578.847 1840.34 basemark 0
AnchorPoint: "Anchor-1" 609.519 1390.22 mark 0
LayerCount: 2
Fore
SplineSet
579.37845927 1496.47408144 m 1,0,1
 559.099545473 1426.81249544 559.099545473 1426.81249544 514.773461267 1391.87340457 c 128,-1,2
 470.44737706 1356.93431369 470.44737706 1356.93431369 402.475421676 1356.87598024 c 0,3,4
 351.177881783 1356.92001347 351.177881783 1356.92001347 316.638603459 1379.13330086 c 128,-1,5
 282.099325135 1401.34658824 282.099325135 1401.34658824 264.783945219 1444.88331634 c 128,-1,6
 247.468565303 1488.42004443 247.468565303 1488.42004443 247.186649768 1552.84231295 c 0,7,8
 247.137905441 1562.53962679 247.137905441 1562.53962679 248.093174752 1576.18317068 c 128,-1,9
 249.048444063 1589.82671458 249.048444063 1589.82671458 251.00843969 1607.58512621 c 0,10,11
 254.906497573 1642.90322361 254.906497573 1642.90322361 262.825877797 1695.13766399 c 2,12,-1
 264.114734599 1703.63867188 l 1,13,-1
 359.35889815 1703.63867188 l 1,14,-1
 357.725347336 1692.22222379 l 2,15,16
 345 1603.28818755 345 1603.28818755 345 1576 c 0,17,18
 345 1539.87873752 345 1539.87873752 353.166418508 1516.65277523 c 0,19,20
 357.167500281 1505.27337136 357.167500281 1505.27337136 362.946330824 1497.05996384 c 128,-1,21
 368.725161367 1488.84655631 368.725161367 1488.84655631 376.266090576 1483.6169999 c 0,22,23
 391.49641699 1473.05492606 391.49641699 1473.05492606 414.956773017 1473.0777382 c 0,24,25
 515.380850325 1473.00679757 515.380850325 1473.00679757 520.611679956 1607.80454813 c 0,26,27
 521.999663953 1647.16672454 521.999663953 1647.16672454 521.875035542 1694.14287251 c 0,28,29
 521.899964674 1703.49304965 521.899964674 1703.49304965 521.914434063 1711.36638465 c 128,-1,30
 521.928903636 1719.23967362 521.928903636 1719.23967362 521.93285869 1725.56455092 c 128,-1,31
 521.93681439 1731.88931913 521.93681439 1731.88931913 521.930445489 1736.70960592 c 1,32,-1
 521.907464985 1744.80564692 l 1,33,-1
 521.864446225 1749.80341737 l 1,34,-1
 521.70946103 1759.95605469 l 1,35,-1
 615.614649398 1759.95605469 l 1,36,-1
 616.109449774 1750.47735799 l 2,37,38
 616.740727548 1738.38421732 616.740727548 1738.38421732 617.192393305 1724.98052566 c 128,-1,39
 617.644165612 1711.57641613 617.644165612 1711.57641613 617.917487388 1696.84818851 c 128,-1,40
 618.190816839 1682.1226 618.190816839 1682.1226 618.287170265 1666.01093068 c 0,41,42
 618.195337608 1620.91453654 618.195337608 1620.91453654 630.626596043 1591.81961005 c 0,43,44
 636.751606721 1577.48423634 636.751606721 1577.48423634 645.917974875 1566.93941262 c 128,-1,45
 655.08434303 1556.3945889 655.08434303 1556.3945889 667.412332267 1549.43102296 c 0,46,47
 692.352998179 1535.34308305 692.352998179 1535.34308305 731.038533541 1535.40716014 c 0,48,49
 795.018773199 1535.92027343 795.018773199 1535.92027343 795.222927675 1644.57074814 c 0,50,51
 795.993156296 1749.10799575 795.993156296 1749.10799575 784.494204938 1810.49375841 c 2,52,-1
 782.276078031 1822.33496094 l 1,53,-1
 882.646341919 1822.33496094 l 1,54,-1
 883.847636373 1813.71528596 l 2,55,56
 887.566998382 1787.02766449 887.566998382 1787.02766449 890.045645796 1758.71201337 c 128,-1,57
 892.524293211 1730.39636224 892.524293211 1730.39636224 893.762146606 1700.47513967 c 128,-1,58
 895 1670.55391709 895 1670.55391709 895 1639 c 128,-1,59
 895 1607.46241306 895 1607.46241306 891.460260158 1580.61747351 c 128,-1,60
 887.920520317 1553.77253396 887.920520317 1553.77253396 880.743017438 1531.4355334 c 128,-1,61
 873.565514558 1509.09853284 873.565514558 1509.09853284 862.776501227 1491.59041416 c 128,-1,62
 851.987487896 1474.08229548 851.987487896 1474.08229548 837.411081416 1461.30570295 c 128,-1,63
 822.834674935 1448.52911043 822.834674935 1448.52911043 804.574987393 1440.71763428 c 0,64,65
 770.19131619 1426.06359701 770.19131619 1426.06359701 736.367264112 1425.00659538 c 0,66,67
 728.25611412 1424.66517536 728.25611412 1424.66517536 720.546345797 1424.70207342 c 128,-1,68
 712.836577474 1424.73897148 712.836577474 1424.73897148 705.502777081 1425.16025384 c 128,-1,69
 698.168976687 1425.58153619 698.168976687 1425.58153619 691.276952444 1426.38572573 c 0,70,71
 670.453878068 1428.81544709 670.453878068 1428.81544709 653.130612065 1434.90153613 c 0,72,73
 644.39952234 1437.96898251 644.39952234 1437.96898251 636.641464026 1441.97246434 c 128,-1,74
 628.883405713 1445.97594617 628.883405713 1445.97594617 622.086363364 1450.93595004 c 0,75,76
 618.539189005 1453.53721124 618.539189005 1453.53721124 615.215735799 1456.1935355 c 128,-1,77
 611.892282593 1458.84985977 611.892282593 1458.84985977 608.780514185 1461.57230913 c 128,-1,78
 605.668745777 1464.29475849 605.668745777 1464.29475849 602.781346313 1467.07375578 c 128,-1,79
 599.893946848 1469.85275306 599.893946848 1469.85275306 597.221027789 1472.69922642 c 128,-1,80
 594.54810873 1475.54569977 594.54810873 1475.54569977 592.100206403 1478.45020591 c 0,81,82
 584.875819209 1487.02214798 584.875819209 1487.02214798 579.37845927 1496.47408144 c 1,0,1
EndSplineSet
EndChar

StartChar: uni0652
Encoding: 1618 1618 55
Width: -27
VWidth: 2304
GlyphClass: 4
Flags: W
AnchorPoint: "Anchor-10" 588.527 1187.7 mark 0
AnchorPoint: "Anchor-9" 588.527 1187.7 mark 0
AnchorPoint: "Anchor-1" 573.743 1793.31 basemark 0
AnchorPoint: "Anchor-1" 588.527 1187.7 mark 0
LayerCount: 2
Fore
SplineSet
697.344726562 1457.10253906 m 0,0,1
 697.344726562 1479.48460522 697.344726562 1479.48460522 689.600932407 1498.30663053 c 128,-1,2
 681.857138253 1517.12865583 681.857138253 1517.12865583 666.228331204 1532.75746288 c 0,3,4
 655.783714787 1543.20327783 655.783714787 1543.20327783 643.899073316 1550.1056884 c 0,5,6
 637.971519476 1553.5483173 637.971519476 1553.5483173 631.655995966 1556.125346 c 128,-1,7
 625.340472455 1558.7023747 625.340472455 1558.7023747 618.614233672 1560.42189616 c 128,-1,8
 611.87445879 1562.14487804 611.87445879 1562.14487804 604.695293928 1563.00896246 c 128,-1,9
 597.516129066 1563.87304688 597.516129066 1563.87304688 589.884765625 1563.87304688 c 0,10,11
 583.231430214 1563.87304688 583.231430214 1563.87304688 576.926820042 1563.2423607 c 0,12,13
 575.354010603 1563.08502359 575.354010603 1563.08502359 573.802528821 1562.88847606 c 128,-1,14
 572.25104704 1562.69192852 572.25104704 1562.69192852 570.722149798 1562.45636591 c 128,-1,15
 569.193252557 1562.22080329 569.193252557 1562.22080329 567.686843074 1561.94641272 c 128,-1,16
 566.180433591 1561.67202215 566.180433591 1561.67202215 564.694936466 1561.3585592 c 0,17,18
 558.76409524 1560.10705964 558.76409524 1560.10705964 553.157393661 1558.22744681 c 0,19,20
 550.356489222 1557.28846053 550.356489222 1557.28846053 547.636263438 1556.19423189 c 128,-1,21
 544.916037654 1555.10000326 544.916037654 1555.10000326 542.274563098 1553.84994291 c 0,22,23
 536.992989485 1551.35047317 536.992989485 1551.35047317 532.009650223 1548.21681092 c 2,24,-1
 522.325680327 1541.30983381 l 2,25,26
 517.621145949 1537.53187297 517.621145949 1537.53187297 513.19509125 1533.10569 c 0,27,28
 505.447237054 1525.3578358 505.447237054 1525.3578358 499.677276479 1516.78955135 c 128,-1,29
 493.927645074 1508.25145534 493.927645074 1508.25145534 490.096169329 1498.80978794 c 0,30,31
 488.818553348 1495.66143833 488.818553348 1495.66143833 487.754940164 1492.41242644 c 128,-1,32
 486.69132698 1489.16341454 486.69132698 1489.16341454 485.839424161 1485.8040575 c 128,-1,33
 484.987521342 1482.44470046 484.987521342 1482.44470046 484.34925653 1478.97938319 c 128,-1,34
 483.709955946 1475.50844242 483.709955946 1475.50844242 483.283286648 1471.92626772 c 128,-1,35
 482.856617349 1468.34409301 482.856617349 1468.34409301 482.642175862 1464.63479609 c 128,-1,36
 482.427734375 1460.92549916 482.427734375 1460.92549916 482.427734375 1457.10253906 c 0,37,38
 482.427734375 1445.48197948 482.427734375 1445.48197948 484.348230722 1434.93752879 c 128,-1,39
 486.26872707 1424.3930781 486.26872707 1424.3930781 490.097120716 1414.87666078 c 0,40,41
 497.746672164 1395.86181262 497.746672164 1395.86181262 513.195193715 1380.41373879 c 128,-1,42
 528.643043278 1364.96544151 528.643043278 1364.96544151 547.658150411 1357.31588462 c 128,-1,43
 566.722583711 1349.64648438 566.722583711 1349.64648438 589.884765625 1349.64648438 c 0,44,45
 635.118102493 1349.64648438 635.118102493 1349.64648438 666.228838294 1380.76257548 c 0,46,47
 668.193470382 1382.72715121 668.193470382 1382.72715121 670.031399761 1384.74067809 c 128,-1,48
 671.869329139 1386.75420498 671.869329139 1386.75420498 673.578579741 1388.8142735 c 128,-1,49
 675.287830344 1390.87434203 675.287830344 1390.87434203 676.869378292 1392.9805485 c 128,-1,50
 678.450926241 1395.08675497 678.450926241 1395.08675497 679.907992602 1397.24300981 c 0,51,52
 685.724289479 1405.85031734 685.724289479 1405.85031734 689.597361979 1415.33639815 c 128,-1,53
 693.472993724 1424.82874717 693.472993724 1424.82874717 695.404191108 1435.2237401 c 128,-1,54
 697.344726562 1445.66899675 697.344726562 1445.66899675 697.344726562 1457.10253906 c 0,0,1
789.41796875 1457.21875 m 0,55,56
 789.41796875 1443.36725747 789.41796875 1443.36725747 787.811210423 1430.16523222 c 128,-1,57
 786.204452095 1416.96320697 786.204452095 1416.96320697 782.987076617 1404.42539438 c 0,58,59
 776.542836619 1379.31279131 776.542836619 1379.31279131 763.670040405 1357.01144664 c 128,-1,60
 750.814560191 1334.7401009 750.814560191 1334.7401009 731.621502374 1315.42377207 c 0,61,62
 702.8156916 1286.43693458 702.8156916 1286.43693458 667.323991235 1271.85089954 c 128,-1,63
 631.853151284 1257.2734375 631.853151284 1257.2734375 590.212890625 1257.2734375 c 0,64,65
 580.951070039 1257.2734375 580.951070039 1257.2734375 572.003235804 1257.98707885 c 128,-1,66
 563.055401569 1258.7007202 563.055401569 1258.7007202 554.403964791 1260.13234991 c 128,-1,67
 545.752528013 1261.56397962 545.752528013 1261.56397962 537.423238879 1263.71244545 c 0,68,69
 531.160091858 1265.32796835 531.160091858 1265.32796835 525.071357248 1267.35096867 c 128,-1,70
 518.982622638 1269.37396899 518.982622638 1269.37396899 513.071341875 1271.80375139 c 0,71,72
 501.246592552 1276.66421546 501.246592552 1276.66421546 490.158569141 1283.14199077 c 128,-1,73
 479.097543868 1289.60429414 479.097543868 1289.60429414 468.756862043 1297.67834769 c 128,-1,74
 458.416180217 1305.75240124 458.416180217 1305.75240124 448.8048768 1315.4241531 c 128,-1,75
 439.187341102 1325.1031689 439.187341102 1325.1031689 431.161904287 1335.50055697 c 128,-1,76
 423.136467472 1345.89794504 423.136467472 1345.89794504 416.699555111 1357.02874875 c 128,-1,77
 410.26264275 1368.15955246 410.26264275 1368.15955246 405.443425186 1379.98716656 c 0,78,79
 398.214359525 1397.72791011 398.214359525 1397.72791011 394.606377662 1417.07730518 c 128,-1,80
 391.006835938 1436.38143628 391.006835938 1436.38143628 391.006835938 1457.21875 c 0,81,82
 391.006835938 1485.00275239 391.006835938 1485.00275239 397.440788103 1510.02846012 c 128,-1,83
 403.874740268 1535.05416785 403.874740268 1535.05416785 416.726750157 1557.23494243 c 128,-1,84
 429.578760046 1579.415717 429.578760046 1579.415717 448.796119688 1598.6364975 c 0,85,86
 452.389252143 1602.22962996 452.389252143 1602.22962996 456.089599897 1605.60208194 c 128,-1,87
 459.789947651 1608.97453392 459.789947651 1608.97453392 463.599261769 1612.12772565 c 128,-1,88
 467.408575887 1615.28091738 467.408575887 1615.28091738 471.32723305 1618.21404795 c 128,-1,89
 475.245890214 1621.14717851 475.245890214 1621.14717851 479.270305969 1623.8573099 c 0,90,91
 487.322582871 1629.27989288 487.322582871 1629.27989288 495.785128871 1633.80343504 c 128,-1,92
 504.247674872 1638.32697721 504.247674872 1638.32697721 513.111906171 1641.9460197 c 0,93,94
 530.834690051 1649.18178619 530.834690051 1649.18178619 550.151557738 1652.80715401 c 128,-1,95
 569.427306545 1656.42480469 569.427306545 1656.42480469 590.212890625 1656.42480469 c 0,96,97
 673.840429915 1656.42480469 673.840429915 1656.42480469 731.628274779 1598.63593111 c 0,98,99
 760.458631987 1569.80095514 760.458631987 1569.80095514 774.938300369 1534.35589319 c 128,-1,100
 789.41796875 1498.91083124 789.41796875 1498.91083124 789.41796875 1457.21875 c 0,55,56
EndSplineSet
EndChar

StartChar: uni0653
Encoding: 1619 1619 56
Width: -28
VWidth: 2393
GlyphClass: 4
Flags: W
AnchorPoint: "Anchor-10" 412.188 1381.58 mark 0
AnchorPoint: "Anchor-9" 412.188 1381.58 mark 0
AnchorPoint: "Anchor-1" 412.188 1808.58 basemark 0
AnchorPoint: "Anchor-1" 412.188 1381.58 mark 0
LayerCount: 2
Fore
SplineSet
336.745117188 1444.66503906 m 2,0,1
 241.378121816 1455.01000873 241.378121816 1455.01000873 171.194335938 1367.69824219 c 2,2,-1
 155.288085938 1347.91015625 l 1,3,-1
 45.54296875 1501.57324219 l 5,4,-1
 53.6376953125 1513.54980469 l 6,5,6
 161.802459223 1673.70750478 161.802459223 1673.70750478 328.439453125 1650.16308594 c 6,7,-1
 494.1953125 1626.74316406 l 6,8,9
 618 1609 618 1609 713.430664062 1671.48046875 c 5,10,-1
 790 1499 l 1,11,12
 686.671564185 1406.70663985 686.671564185 1406.70663985 496.145507812 1427.37402344 c 2,13,-1
 336.745117188 1444.66503906 l 2,0,1
EndSplineSet
EndChar

StartChar: uni0657
Encoding: 1623 1623 59
Width: -27
VWidth: 2304
GlyphClass: 4
Flags: W
AnchorPoint: "Anchor-10" 569.519 1347.15 mark 0
AnchorPoint: "Anchor-9" 569.519 1347.15 mark 0
AnchorPoint: "Anchor-1" 569.519 2081.6 basemark 0
AnchorPoint: "Anchor-1" 569.519 1347.15 mark 0
LayerCount: 2
Fore
SplineSet
659.133789062 1603.78173828 m 0,0,1
 659 1430 659 1430 491.074544274 1431.54492188 c 0,2,3
 421 1432 421 1432 372.388183594 1478.93945313 c 0,4,5
 324 1526 324 1526 323.975585938 1608.16308594 c 0,6,7
 323.99979061 1641.70979344 323.99979061 1641.70979344 338.994140625 1689.90234375 c 2,8,-1
 345.723632812 1711.53125 l 1,9,-1
 323.10546875 1712.8671875 l 2,10,11
 287 1715 287 1715 257.310546875 1715.06347656 c 1,12,-1
 257.310546875 1803.8671875 l 1,13,14
 314 1803 314 1803 389.303710938 1795.07324219 c 1,15,16
 442 1870 442 1870 516.661132812 1915.09375 c 0,17,18
 698 2026 698 2026 785 2030.74121094 c 5,19,-1
 785 1942 l 5,20,21
 692 1939 692 1939 559.72265625 1835.68164062 c 0,22,23
 533 1815 533 1815 510.338867188 1790.99804688 c 2,24,-1
 488.760742188 1768.28125 l 1,25,-1
 519.344726562 1761.47558594 l 2,26,27
 528 1760 528 1760 565.211425781 1739.94873047 c 0,28,29
 603 1720 603 1720 631.176757812 1681.52148438 c 0,30,31
 659 1643 659 1643 659.133789062 1603.78173828 c 0,0,1
480.167480469 1520.38085938 m 0,32,33
 568.038085938 1520.38085938 568.038085938 1520.38085938 568.038085938 1594.60449219 c 0,34,35
 568.038085938 1648.41148902 568.038085938 1648.41148902 506.048828125 1673.20996094 c 0,36,37
 482.976628637 1682.4430983 482.976628637 1682.4430983 437.471679688 1696.45898438 c 1,38,-1
 424.413085938 1665.99316406 l 2,39,40
 412.810546875 1638.92285156 412.810546875 1638.92285156 412.810546875 1600.15429688 c 128,-1,41
 412.810546875 1561.38574219 412.810546875 1561.38574219 437.703125 1540.88330078 c 128,-1,42
 462.595703125 1520.38085938 462.595703125 1520.38085938 480.167480469 1520.38085938 c 0,32,33
EndSplineSet
EndChar

StartChar: uni065A
Encoding: 1626 1626 60
Width: 1129
VWidth: 2304
GlyphClass: 4
Flags: W
AnchorPoint: "Anchor-10" 569.519 1347.15 mark 0
AnchorPoint: "Anchor-9" 569.519 1347.15 mark 0
AnchorPoint: "Anchor-1" 567.259 1855.62 basemark 0
AnchorPoint: "Anchor-1" 569.519 1347.15 mark 0
LayerCount: 2
Fore
SplineSet
495.958007812 1434.93457031 m 1,0,-1
 296.83203125 1767.83300781 l 1,1,-1
 413.142578125 1767.83300781 l 1,2,-1
 569.518554688 1533.26269531 l 1,3,-1
 725.89453125 1767.83300781 l 1,4,-1
 842.206054688 1767.83300781 l 1,5,-1
 643.077148438 1434.93457031 l 1,6,-1
 495.958007812 1434.93457031 l 1,0,-1
EndSplineSet
EndChar

StartChar: afii57392
Encoding: 1632 1632 61
Width: 1047
VWidth: 2438
GlyphClass: 2
Flags: W
LayerCount: 2
Fore
SplineSet
424.85546875 614.932617188 m 4,0,1
 425 571 425 571 454.973144531 541.3125 c 0,2,3
 485 511 485 511 528.59375 511.1953125 c 4,4,5
 572 511 572 511 602.21484375 541.3125 c 0,6,7
 632 571 632 571 632.333007812 614.932617188 c 4,8,9
 632 658 632 658 602.213867188 688.553710938 c 4,10,11
 572 719 572 719 528.59375 718.671875 c 4,12,13
 485 719 485 719 454.973144531 688.553710938 c 128,-1,14
 425 658 425 658 424.85546875 614.932617188 c 4,0,1
215.997070312 612.5 m 0,15,16
 215.251953125 740.391601562 215.251953125 740.391601562 306.180664062 831.319335938 c 0,17,18
 397.445355823 922.586015169 397.445355823 922.586015169 524.99953338 922.585976335 c 128,-1,19
 652.553710938 922.5859375 652.553710938 922.5859375 743.819335938 831.319335938 c 128,-1,20
 835.086015169 740.054644177 835.086015169 740.054644177 835.085976335 612.50046662 c 128,-1,21
 835.0859375 484.946289062 835.0859375 484.946289062 743.819335938 393.680664062 c 128,-1,22
 652.553710938 302.4140625 652.553710938 302.4140625 525 302.4140625 c 128,-1,23
 397.446289062 302.4140625 397.446289062 302.4140625 306.349121094 393.511230469 c 128,-1,24
 215.251953125 484.608398438 215.251953125 484.608398438 215.997070312 612.5 c 0,15,16
EndSplineSet
EndChar

StartChar: afii57393
Encoding: 1633 1633 62
Width: 779
VWidth: 2438
GlyphClass: 2
Flags: W
LayerCount: 2
Fore
SplineSet
567.952148438 9.3349609375 m 1,0,-1
 309.4609375 9.3349609375 l 1,1,-1
 309.299804688 54.1728515625 l 2,2,3
 308 320 308 320 264.11328125 729.463867188 c 4,4,5
 219.887299528 1136.03606244 219.887299528 1136.03606244 114.223632812 1332.9765625 c 6,6,-1
 89.3212890625 1379.390625 l 5,7,-1
 327.275390625 1462.40429688 l 5,8,-1
 345.810546875 1429.80566406 l 6,9,10
 467 1217 467 1217 530.40625 662.30078125 c 4,11,12
 567.987826143 338.105017226 567.987826143 338.105017226 567.95703125 54.330078125 c 2,13,-1
 567.952148438 9.3349609375 l 1,0,-1
EndSplineSet
EndChar

StartChar: afii57394
Encoding: 1634 1634 63
Width: 1247
VWidth: 2438
GlyphClass: 2
Flags: W
LayerCount: 2
Fore
SplineSet
347.467773438 1464.03710938 m 1,0,-1
 437.025390625 1240.81640625 l 2,1,2
 475 1146 475 1146 530.751953125 1112.74316406 c 0,3,4
 596 1074 596 1074 711.317382812 1080.73144531 c 0,5,6
 827 1088 827 1088 860 1193 c 4,7,8
 883 1266 883 1266 880.149414062 1408.171875 c 2,9,-1
 879.208984375 1454.22851562 l 1,10,-1
 1138.40429688 1453.453125 l 1,11,-1
 1139.67089844 1409.89160156 l 2,12,13
 1153 935 1153 935 911.762695312 806.64453125 c 0,14,15
 831 764 831 764 697.576171875 762.427734375 c 0,16,17
 621 761 621 761 552.732421875 777.793945312 c 1,18,19
 587 613 587 613 604.001953125 406.962402344 c 0,20,21
 623 173 623 173 614.8515625 9.3349609375 c 1,22,-1
 359.096679688 9.3349609375 l 1,23,24
 358 249 358 249 309.111328125 626.375 c 0,25,26
 259.951718224 1000.367314 259.951718224 1000.367314 111.985351562 1336.06152344 c 2,27,-1
 91.8486328125 1381.74609375 l 1,28,-1
 347.467773438 1464.03710938 l 1,0,-1
EndSplineSet
EndChar

StartChar: afii57395
Encoding: 1635 1635 64
Width: 1366
VWidth: 2438
GlyphClass: 2
Flags: W
LayerCount: 2
Fore
SplineSet
764.147460938 834.331054688 m 1,0,1
 684 768 684 768 551.389648438 767.481445312 c 1,2,3
 565 698 565 698 590.330078125 527.420898438 c 0,4,5
 616 354 616 354 617.590820312 9.3349609375 c 1,6,-1
 358.919921875 9.3349609375 l 1,7,-1
 358.788085938 54.203125 l 2,8,9
 358 227 358 227 316.526367188 594.826171875 c 0,10,11
 275.096484541 959.151535959 275.096484541 959.151535959 112.095703125 1336.02148438 c 2,12,-1
 92.587890625 1381.125 l 1,13,-1
 345.114257812 1464.88964844 l 1,14,-1
 429.791992188 1215.69433594 l 6,15,16
 468 1105 468 1105 521.993164062 1090.64355469 c 4,17,18
 544 1085 544 1085 566.727539062 1086.49316406 c 4,19,20
 627 1092 627 1092 630.296875 1172.35742188 c 4,21,22
 637.143742173 1346.65926861 637.143742173 1346.65926861 637.241210938 1357.515625 c 2,23,-1
 637.641601562 1402.11230469 l 1,24,-1
 871.458007812 1402.11230469 l 1,25,-1
 871.540039062 1357.19433594 l 2,26,27
 872 1176 872 1176 876.841796875 1144.76855469 c 4,28,29
 887 1085 887 1085 953.966796875 1088.52832031 c 4,30,31
 997 1091 997 1091 1011 1135 c 4,32,33
 1036.72868081 1212.18604244 1036.72868081 1212.18604244 1032.19921875 1408.08007812 c 2,34,-1
 1031.13574219 1454.07421875 l 1,35,-1
 1274.61621094 1454.31640625 l 1,36,-1
 1274.31835938 1408.97558594 l 2,37,38
 1272 1046 1272 1046 1208.8046875 912.8203125 c 0,39,40
 1137 763 1137 763 970.934570312 764.927734375 c 0,41,42
 843 766 843 766 764.147460938 834.331054688 c 1,0,1
EndSplineSet
EndChar

StartChar: afii57396
Encoding: 1636 1636 65
Width: 1073
VWidth: 2438
GlyphClass: 2
Flags: W
LayerCount: 2
Fore
SplineSet
107.015625 376.9296875 m 0,0,1
 100 580 100 580 383.984375 760.768554688 c 1,2,3
 180 848 180 848 183.173828125 1031.33105469 c 0,4,5
 190.993310742 1437.65240817 190.993310742 1437.65240817 723.208984375 1429.84570312 c 2,6,-1
 767.548828125 1429.1953125 l 1,7,-1
 767.548828125 1159.4765625 l 1,8,-1
 724.091796875 1157.98632812 l 2,9,10
 448 1149 448 1149 448 1036.44384766 c 128,-1,11
 448 923.887908219 448 923.887908219 755.567382812 923.127929688 c 2,12,-1
 799.83203125 923.018554688 l 1,13,-1
 802.952148438 670.141601562 l 1,14,15
 355 504 355 504 357.3515625 409.661132812 c 0,16,17
 359.005538535 324.715549616 359.005538535 324.715549616 617.927734375 325.599609375 c 6,18,-1
 964.291015625 326.782226562 l 5,19,-1
 967.3125 -0.046875 l 1,20,-1
 578.669921875 0.37890625 l 2,21,22
 261 1 261 1 155.797851562 187.123046875 c 0,23,24
 110 268 110 268 107.015625 376.9296875 c 0,0,1
EndSplineSet
EndChar

StartChar: afii57397
Encoding: 1637 1637 66
Width: 1278
VWidth: 2438
GlyphClass: 2
Flags: W
LayerCount: 2
Fore
SplineSet
620.008789062 963.112304688 m 1,0,1
 494 837 494 837 447.896484375 759.108398438 c 0,2,3
 375 637 375 637 374.938476562 574.426757812 c 0,4,5
 375 470 375 470 427.716796875 428.1640625 c 4,6,7
 504 366 504 366 668.471679688 370.290039062 c 0,8,9
 866 376 866 376 899.416015625 496.619140625 c 0,10,11
 933 617 933 617 813.686523438 776.717773438 c 0,12,13
 721 900 721 900 620.008789062 963.112304688 c 1,0,1
371.27734375 1144.63085938 m 1,14,-1
 513.900390625 1360.72460938 l 1,15,-1
 549.77734375 1342.33300781 l 2,16,17
 666 1283 666 1283 810.116210938 1158.15820312 c 0,18,19
 1171 843 1171 843 1170.96484375 513.543945312 c 0,20,21
 1171 321 1171 321 1064.8125 210.420898438 c 0,22,23
 922 60 922 60 644.65625 60.8994140625 c 0,24,25
 270 61 270 61 145.915039062 334.086914062 c 0,26,27
 107 420 107 420 107.227539062 504.25390625 c 0,28,29
 109 801 109 801 412.840820312 1118.86328125 c 1,30,-1
 371.27734375 1144.63085938 l 1,14,-1
EndSplineSet
EndChar

StartChar: afii57398
Encoding: 1638 1638 67
Width: 1291
VWidth: 2438
GlyphClass: 2
Flags: W
LayerCount: 2
Fore
SplineSet
746.174804688 1067.67871094 m 5,0,1
 434.290778961 997.065834532 434.290778961 997.065834532 92.736328125 1095.71386719 c 6,2,-1
 60.22265625 1105.10449219 l 5,3,-1
 60.22265625 1436.00097656 l 1,4,-1
 116.68359375 1421.13085938 l 2,5,6
 501.238307062 1319.93729074 501.238307062 1319.93729074 946.590820312 1422.37304688 c 2,7,-1
 1001.44140625 1434.98925781 l 1,8,-1
 1001.67773438 1378.70703125 l 2,9,10
 1005.02806064 682.166125197 1005.02806064 682.166125197 1132.31152344 180.8515625 c 24,11,12
 1147 123 1147 123 1183.68261719 9.3349609375 c 1,13,-1
 904.97265625 9.3349609375 l 1,14,15
 801 430 801 430 781.619140625 648.666015625 c 0,16,17
 747 1032 747 1032 746.174804688 1067.67871094 c 5,0,1
EndSplineSet
EndChar

StartChar: afii57399
Encoding: 1639 1639 68
Width: 1291
VWidth: 2438
GlyphClass: 2
Flags: W
LayerCount: 2
Fore
SplineSet
381.66796875 553.966796875 m 4,0,1
 206.803471589 1113.6289986 206.803471589 1113.6289986 93.0703125 1333.50195312 c 6,2,-1
 69.169921875 1379.70703125 l 5,3,-1
 309.518554688 1462.80957031 l 5,4,-1
 327.252929688 1427.75976562 l 6,5,6
 544 999 544 999 645.05859375 535.453125 c 5,7,8
 746.347831518 997.586987191 746.347831518 997.586987191 962.8515625 1427.68554688 c 6,9,-1
 980.513671875 1462.77246094 l 5,10,-1
 1221.69628906 1379.92675781 l 5,11,-1
 1198.32910156 1333.81835938 l 6,12,13
 1080 1100 1080 1100 908.263671875 553.293945312 c 4,14,15
 786 166 786 166 773.15234375 9.3349609375 c 5,16,-1
 517.76953125 9.3349609375 l 5,17,18
 506 155 506 155 381.66796875 553.966796875 c 4,0,1
EndSplineSet
EndChar

StartChar: afii57400
Encoding: 1640 1640 69
Width: 1291
VWidth: 2438
GlyphClass: 2
Flags: W
LayerCount: 2
Fore
SplineSet
381.66796875 918.177734375 m 4,0,1
 506 1317.14453125 506 1317.14453125 517.76953125 1462.80957031 c 5,2,-1
 773.15234375 1462.80957031 l 5,3,4
 786 1306.14453125 786 1306.14453125 908.263671875 918.850585938 c 4,5,6
 1080 372.14453125 1080 372.14453125 1198.32910156 138.326171875 c 6,7,-1
 1221.69628906 92.2177734375 l 5,8,-1
 980.513671875 9.3720703125 l 5,9,-1
 962.8515625 44.458984375 l 6,10,11
 746.34765625 474.557617188 746.34765625 474.557617188 645.05859375 936.69140625 c 5,12,13
 544 473.14453125 544 473.14453125 327.252929688 44.384765625 c 6,14,-1
 309.518554688 9.3349609375 l 5,15,-1
 69.169921875 92.4375 l 5,16,-1
 93.0703125 138.642578125 l 6,17,18
 206.803710938 358.515625 206.803710938 358.515625 381.66796875 918.177734375 c 4,0,1
EndSplineSet
EndChar

StartChar: afii57401
Encoding: 1641 1641 70
Width: 1285
VWidth: 2438
GlyphClass: 2
Flags: W
LayerCount: 2
Fore
SplineSet
904.55078125 44.8125 m 2,0,1
 828.716179742 395.097972137 828.716179742 395.097972137 818.927734375 501.94140625 c 5,2,3
 612 503 612 503 513.62109375 525.317382812 c 4,4,5
 230 591 230 591 138.618164062 808.459960938 c 0,6,7
 105 888 105 888 104.870117188 999.654296875 c 0,8,9
 105 1191 105 1191 237.026367188 1324.24609375 c 0,10,11
 410 1500 410 1500 670.754882812 1463.44238281 c 0,12,13
 805 1445 805 1445 883.205078125 1368.74511719 c 0,14,15
 1023 1233 1023 1233 1041.98046875 988.265625 c 0,16,17
 1070 627 1070 627 1092.0546875 465.862304688 c 0,18,19
 1113.49179395 315.551686987 1113.49179395 315.551686987 1177.58398438 65.5078125 c 2,20,-1
 1191.98242188 9.3349609375 l 1,21,-1
 912.231445312 9.3349609375 l 1,22,-1
 904.55078125 44.8125 l 2,0,1
794.272460938 820.221679688 m 1,23,-1
 788.250976562 894.670898438 l 2,24,25
 775 1053 775 1053 744.376953125 1098.12011719 c 0,26,27
 685 1186 685 1186 568.23828125 1186.21679688 c 0,28,29
 485 1187 485 1187 426.013671875 1129.43066406 c 128,-1,30
 367 1072 367 1072 367 1000.5 c 128,-1,31
 367 929 367 929 429 880 c 128,-1,32
 491 831 491 831 620.5 826 c 128,-1,33
 750 821 750 821 794.272460938 820.221679688 c 1,23,-1
EndSplineSet
EndChar

StartChar: afii57381
Encoding: 1642 1642 71
Width: 1263
VWidth: 2438
GlyphClass: 2
Flags: W
LayerCount: 2
Fore
SplineSet
802.077148438 235.817382812 m 128,-1,1
 802.077148438 312.45703125 802.077148438 312.45703125 855.2578125 365.63671875 c 128,-1,2
 908.4375 418.817382812 908.4375 418.817382812 985.077148438 418.817382812 c 128,-1,3
 1061.71679688 418.817382812 1061.71679688 418.817382812 1114.89648438 365.63671875 c 128,-1,4
 1168.07714844 312.45703125 1168.07714844 312.45703125 1168.07714844 235.815429688 c 128,-1,5
 1168.07714844 159.174804688 1168.07714844 159.174804688 1114.89648438 105.998046875 c 128,-1,6
 1061.71679688 52.8173828125 1061.71679688 52.8173828125 985.077148438 52.8173828125 c 128,-1,7
 908.4375 52.8173828125 908.4375 52.8173828125 855.2578125 105.998046875 c 128,-1,0
 802.077148438 159.176757812 802.077148438 159.176757812 802.077148438 235.817382812 c 128,-1,1
105.1015625 1291.59765625 m 0,8,9
 105 1368 105 1368 158.282226562 1421.41699219 c 0,10,11
 211 1475 211 1475 288.1015625 1474.59765625 c 0,12,13
 365 1475 365 1475 417.920898438 1421.41699219 c 128,-1,14
 471 1368 471 1368 471.1015625 1291.59570312 c 0,15,16
 471 1215 471 1215 417.920898438 1161.77832031 c 0,17,18
 365 1109 365 1109 288.1015625 1108.59765625 c 0,19,20
 211 1109 211 1109 158.282226562 1161.77832031 c 0,21,22
 105 1215 105 1215 105.1015625 1291.59765625 c 0,8,9
875.908203125 1491.44335938 m 5,23,-1
 1079 1384 l 5,24,-1
 359.13671875 -3.3681640625 l 1,25,-1
 155.259765625 98.3271484375 l 1,26,-1
 875.908203125 1491.44335938 l 5,23,-1
EndSplineSet
EndChar

StartChar: uni066B
Encoding: 1643 1643 72
Width: 831
VWidth: 2438
GlyphClass: 2
Flags: W
LayerCount: 2
Fore
SplineSet
462.526367188 624.966796875 m 1,0,-1
 680 511 l 1,1,-1
 285.158203125 -288.1953125 l 1,2,-1
 68 -173 l 1,3,-1
 462.526367188 624.966796875 l 1,0,-1
EndSplineSet
EndChar

StartChar: uni066C
Encoding: 1644 1644 73
Width: 654
VWidth: 2349
GlyphClass: 2
Flags: W
LayerCount: 2
Fore
SplineSet
214.40234375 404.861328125 m 128,-1,1
 266.942382812 440.951171875 266.942382812 440.951171875 324.015136719 439.005859375 c 0,2,3
 417.67996742 435.813313834 417.67996742 435.813313834 465.982421875 396.79296875 c 0,4,5
 569.682172227 313.013089545 569.682172227 313.013089545 515.760031426 102.598341647 c 128,-1,6
 461.837890625 -107.81640625 461.837890625 -107.81640625 283.228515625 -249.809570312 c 2,7,-1
 258.069335938 -269.809570312 l 1,8,-1
 121.984375 -182.82421875 l 1,9,-1
 168.852539062 -143.43359375 l 2,10,11
 279.56640625 -50.3798828125 279.56640625 -50.3798828125 303.504882812 87.734375 c 1,12,13
 214.646693616 98.4074823905 214.646693616 98.4074823905 176.16416712 156.548956039 c 128,-1,14
 137.681640625 214.690429688 137.681640625 214.690429688 149.771972656 291.731445312 c 128,-1,0
 161.862304688 368.772460938 161.862304688 368.772460938 214.40234375 404.861328125 c 128,-1,1
EndSplineSet
EndChar

StartChar: afii63167
Encoding: 1645 1645 74
Width: 1282
VWidth: 2438
GlyphClass: 2
Flags: W
LayerCount: 2
Fore
SplineSet
20.71875 948.374023438 m 1,0,-1
 497.6796875 948.374023438 l 1,1,-1
 646.35546875 1401.03710938 l 1,2,-1
 795.03125 948.374023438 l 1,3,-1
 1271.99414062 948.374023438 l 1,4,-1
 886.743164062 666.7421875 l 1,5,-1
 1034.26464844 213.545898438 l 1,6,-1
 646.35546875 493.850585938 l 1,7,-1
 258.447265625 213.545898438 l 1,8,-1
 405.966796875 666.7421875 l 1,9,-1
 20.71875 948.374023438 l 1,0,-1
EndSplineSet
EndChar

StartChar: uni066E
Encoding: 1646 1646 75
Width: 1970
VWidth: 2438
GlyphClass: 2
Flags: W
AnchorPoint: "Anchor-10" 875.918 1198.13 basechar 0
AnchorPoint: "Anchor-7" 875.918 -153.254 basechar 0
LayerCount: 2
Fore
SplineSet
1603.98144531 620.090820312 m 0,0,1
 1600 719 1600 719 1574.09082031 805.279296875 c 1,2,-1
 1820.44824219 857.04296875 l 1,3,-1
 1832.77832031 818.282226562 l 2,4,5
 1900 607 1900 607 1850.59179688 396.7734375 c 0,6,7
 1757 0 1757 0 1041.36230469 -0.0009765625 c 0,8,9
 664 0 664 0 481.156738281 55.8354492188 c 0,10,11
 298 112 298 112 198.017578125 247.356445312 c 0,12,13
 98 383 98 383 98.0380859375 586.212890625 c 0,14,15
 97.999883467 693.326740527 97.999883467 693.326740527 135.94921875 825.575195312 c 2,16,-1
 147.598632812 866.171875 l 1,17,-1
 400.512695312 810.653320312 l 1,18,-1
 389.760742188 766.008789062 l 2,19,20
 349 598 349 598 391.52734375 502.301757812 c 0,21,22
 441 389 441 389 623.735351562 349.720703125 c 0,23,24
 755 321 755 321 1013.72558594 321.133789062 c 0,25,26
 1268 321 1268 321 1347.10839844 339.565429688 c 0,27,28
 1481 372 1481 372 1543.0625 441.153320312 c 4,29,30
 1608 513 1608 513 1603.98144531 620.090820312 c 0,0,1
EndSplineSet
Substitution2: "'init' Initial Forms in Arabic lookup 13 subtable" uni066E.init
Substitution2: "'medi' Medial Forms in Arabic lookup 11 subtable" uni066E.medi
Substitution2: "'fina' Terminal Forms in Arabic lookup 9 subtable" uni066E.fina
EndChar

StartChar: uni066F
Encoding: 1647 1647 76
Width: 1607
VWidth: 2393
GlyphClass: 2
Flags: W
AnchorPoint: "Anchor-10" 402.586 1191.54 basechar 0
AnchorPoint: "Anchor-7" 575.01 -595.719 basechar 0
LayerCount: 2
Fore
SplineSet
1498.79199219 120.766601562 m 28,0,1
 1472 -135 1472 -135 1287.4008789 -267.055664062 c 0,2,3
 1105 -398 1105 -398 804.293945312 -397.88671875 c 0,4,5
 317 -398 317 -398 168.799804688 -115.292480469 c 0,6,7
 21 167 21 167 190.263671875 661.456054688 c 1,8,-1
 429 595 l 1,9,10
 363 402 363 402 363 255 c 0,11,12
 364 -89 364 -89 807.186523438 -89.2685546875 c 0,13,14
 1197 -89 1197 -89 1237.12792969 79.7109375 c 1,15,16
 944 45 944 45 844.319335938 184.881835938 c 0,17,18
 715 367 715 367 820.629882812 617.29296875 c 0,19,20
 932 881 932 881 1141.0703125 886.759765625 c 0,21,22
 1339 893 1339 893 1450.26464844 627.600585938 c 0,23,24
 1531 433 1531 433 1498.79199219 120.766601562 c 28,0,1
1255.18652344 328.974609375 m 1,25,26
 1239.59082031 603.592773438 1239.59082031 603.592773438 1139.39648438 601.138671875 c 0,27,28
 1084.59082031 599.592773438 1084.59082031 599.592773438 1048.86328125 524.157226562 c 0,29,30
 1014.59082031 450.592773438 1014.59082031 450.592773438 1024.96191406 391.162109375 c 0,31,32
 1038.59082031 313.592773438 1038.59082031 313.592773438 1154.80175781 317.5234375 c 0,33,34
 1188.59082031 318.592773438 1188.59082031 318.592773438 1255.18652344 328.974609375 c 1,25,26
EndSplineSet
Substitution2: "'init' Initial Forms in Arabic lookup 13 subtable" uni066F.init
Substitution2: "'medi' Medial Forms in Arabic lookup 11 subtable" uni066F.medi
Substitution2: "'fina' Terminal Forms in Arabic lookup 9 subtable" uni066F.fina
EndChar

StartChar: uni0670
Encoding: 1648 1648 77
Width: -27
VWidth: 2304
GlyphClass: 4
Flags: W
AnchorPoint: "Anchor-10" 569.519 1347.15 mark 0
AnchorPoint: "Anchor-9" 569.519 1347.15 mark 0
AnchorPoint: "Anchor-1" 569.519 1881.6 basemark 0
AnchorPoint: "Anchor-1" 569.519 1347.15 mark 0
LayerCount: 2
Fore
SplineSet
515.1015625 1392.16699219 m 1,0,-1
 515.1015625 1836.58496094 l 1,1,-1
 623.936523437 1836.58496094 l 1,2,-1
 623.936523438 1392.12940319 l 1,3,-1
 618.936523438 1392.16699219 l 1,4,-1
 515.1015625 1392.16699219 l 1,0,-1
EndSplineSet
EndChar

StartChar: uni0674
Encoding: 1652 1652 78
Width: 672
VWidth: 2393
GlyphClass: 2
Flags: W
LayerCount: 2
Fore
SplineSet
201.332561922 1695.72002972 m 1,0,1
 124.791015625 1754.29570392 124.791015625 1754.29570392 124.791015625 1856.18675858 c 128,-1,2
 124.791015625 1958.07781324 124.791015625 1958.07781324 193.961134264 2018.77456611 c 128,-1,3
 263.131252903 2079.47131897 263.131252903 2079.47131897 354.471478077 2079.78315126 c 128,-1,4
 445.811703251 2080.09498355 445.811703251 2080.09498355 523.954101562 2036.18754515 c 1,5,-1
 523.954101562 1896.21219429 l 1,6,7
 300.768314628 1998.57029214 300.768314628 1998.57029214 264.373457216 1884.17930022 c 4,8,9
 236 1795 236 1795 361.977696637 1749.43280637 c 0,10,11
 388.611554402 1739.40364504 388.611554402 1739.40364504 524.242662547 1769.91282658 c 2,12,-1
 548.631835938 1775.39898479 l 1,13,-1
 548.631835938 1632.03721162 l 1,14,-1
 122.44140625 1536.35481491 l 1,15,-1
 122.44140625 1677.51604955 l 1,16,-1
 201.332561922 1695.72002972 l 1,0,1
EndSplineSet
EndChar

StartChar: uni06A1
Encoding: 1697 1697 82
Width: 1948
VWidth: 2438
GlyphClass: 2
Flags: W
AnchorPoint: "Anchor-10" 604.034 1388.99 basechar 0
AnchorPoint: "Anchor-7" 589.757 -229.998 basechar 0
LayerCount: 2
Fore
SplineSet
1839.49804688 654.434570312 m 0,0,1
 1848 366 1848 366 1749 220 c 0,2,3
 1661 90 1661 90 1483.828125 45.9658203125 c 0,4,5
 1296 -1 1296 -1 945.5 -1 c 128,-1,6
 595 -1 595 -1 425.963378906 71.9448242188 c 0,7,8
 99 213 99 213 98.041015625 594.803710938 c 0,9,10
 98.0000801467 703.786624557 98.0000801467 703.786624557 140.661132812 823.399414062 c 2,11,-1
 153.686523438 859.919921875 l 1,12,-1
 405.948242188 810.299804688 l 1,13,-1
 391.705078125 762.793945312 l 2,14,15
 367 680 367 680 365.349609375 617.162109375 c 0,16,17
 360 403 360 403 616.05859375 339.421875 c 0,18,19
 674 325 674 325 824.32421875 317.373046875 c 0,20,21
 975 310 975 310 1025.19921875 310.391601562 c 0,22,23
 1329 313 1329 313 1415.15039062 324.931640625 c 4,24,25
 1503 337 1503 337 1547.89160156 377.770507812 c 5,26,27
 1281 355 1281 355 1175.08300781 492.94140625 c 0,28,29
 1042 666 1042 666 1151.39355469 925.352539062 c 0,30,31
 1262 1189 1262 1189 1471.83398438 1194.81933594 c 0,32,33
 1671 1201 1671 1201 1781.02832031 935.66015625 c 0,34,35
 1835 806 1835 806 1839.49804688 654.434570312 c 0,0,1
1585.95019531 637.034179688 m 1,36,37
 1570.35449219 911.65234375 1570.35449219 911.65234375 1470.16015625 909.198242188 c 0,38,39
 1415.35449219 907.65234375 1415.35449219 907.65234375 1379.62695312 832.216796875 c 0,40,41
 1345.35449219 758.65234375 1345.35449219 758.65234375 1355.72558594 699.221679688 c 0,42,43
 1369.35449219 621.65234375 1369.35449219 621.65234375 1485.56542969 625.583007812 c 0,44,45
 1519.35449219 626.65234375 1519.35449219 626.65234375 1585.95019531 637.034179688 c 1,36,37
EndSplineSet
Substitution2: "'init' Initial Forms in Arabic lookup 13 subtable" uni06A1.init
Substitution2: "'medi' Medial Forms in Arabic lookup 11 subtable" uni06A1.medi
Substitution2: "'fina' Terminal Forms in Arabic lookup 9 subtable" uni06A1.fina
EndChar

StartChar: uni06A9
Encoding: 1705 1705 83
Width: 1811
VWidth: 2438
GlyphClass: 2
Flags: W
AnchorPoint: "Anchor-10" 460.659 1363.79 basechar 0
AnchorPoint: "Anchor-7" 573.777 -237.467 basechar 0
LayerCount: 2
Fore
SplineSet
892.024414062 0 m 1,0,1
 644 3 644 3 492.291015625 47.0380859375 c 0,2,3
 297 103 297 103 196.2265625 243.499023438 c 0,4,5
 96 384 96 384 95.6923828125 597.685546875 c 0,6,7
 96.0001194761 706.042068482 96.0001194761 706.042068482 134.9921875 822.508789062 c 2,8,-1
 147.623046875 860.236328125 l 1,9,-1
 391.912109375 810.6640625 l 1,10,-1
 382.05078125 765.969726562 l 2,11,12
 336 558 336 558 420.7578125 455.208007812 c 0,13,14
 482 381 482 381 621.2109375 345.538085938 c 0,15,16
 703 325 703 325 892.767578125 320.243164062 c 1,17,-1
 1191.85644531 320.26953125 l 2,18,19
 1375 320 1375 320 1425.0625 370.634765625 c 0,20,21
 1454 400 1454 400 1446.14746094 451.158203125 c 0,22,23
 1440 493 1440 493 1388.87792969 557.529296875 c 0,24,25
 1280 696 1280 696 995.887695312 855.254882812 c 0,26,27
 889 915 889 915 889.000000018 1060.57413211 c 0,28,29
 889 1209.40381847 889 1209.40381847 1034.90820312 1276.50292969 c 2,30,-1
 1752 1606.2734375 l 5,31,-1
 1752 1328 l 5,32,-1
 1172.94042969 1068.36035156 l 1,33,34
 1464 855 1464 855 1529.49121094 783.498046875 c 0,35,36
 1683 616 1683 616 1697.26074219 473.329101562 c 0,37,38
 1715 296 1715 296 1648.48925781 191.041015625 c 0,39,40
 1527 0 1527 0 1237.22460938 0 c 2,41,-1
 892.024414062 0 l 1,0,1
EndSplineSet
Substitution2: "'init' Initial Forms in Arabic lookup 13 subtable" uniFB90
Substitution2: "'medi' Medial Forms in Arabic lookup 11 subtable" uniFB91
Substitution2: "'fina' Terminal Forms in Arabic lookup 9 subtable" uniFB8F
EndChar

StartChar: afii57514
Encoding: 1722 1722 85
Width: 1568
VWidth: 2393
GlyphClass: 2
Flags: W
AnchorPoint: "Anchor-10" 741.929 994.235 basechar 0
AnchorPoint: "Anchor-7" 801.607 -457.659 basechar 0
LayerCount: 2
Fore
SplineSet
1204.25976562 267.693359375 m 0,0,1
 1204 381 1204 381 1123.81835938 696.840820312 c 1,2,-1
 1399.96875 747.659179688 l 1,3,4
 1474 390 1474 390 1470.49121094 199.120117188 c 0,5,6
 1465 -104 1465 -104 1270.47265625 -245.2734375 c 0,7,8
 1083 -381 1083 -381 764.153320312 -379.88671875 c 0,9,10
 400 -379 400 -379 246.5 -218.60546875 c 0,11,12
 98 -63 98 -63 97.90234375 239.110351562 c 0,13,14
 98 411 98 411 190.262695312 679.458007812 c 1,15,-1
 427 609 l 5,16,17
 360 410 360 410 360.358398438 280.14453125 c 0,18,19
 361 100 361 100 460.731445312 13.9482421875 c 0,20,21
 561 -72 561 -72 778 -72 c 0,22,23
 1001 -72 1001 -72 1102.72558594 11.2119140625 c 0,24,25
 1205 94 1205 94 1204.25976562 267.693359375 c 0,0,1
EndSplineSet
Substitution2: "'init' Initial Forms in Arabic lookup 13 subtable" uni06BA.init
Substitution2: "'medi' Medial Forms in Arabic lookup 11 subtable" uni06BA.medi
Substitution2: "'fina' Terminal Forms in Arabic lookup 9 subtable" uniFB9F
EndChar

StartChar: uni06F4
Encoding: 1780 1780 92
Width: 1270
VWidth: 2438
GlyphClass: 2
Flags: W
LayerCount: 2
Fore
SplineSet
633.125976562 1012.21972656 m 0,0,1
 651 983 651 983 710.515625 963.3515625 c 0,2,3
 770 944 770 944 848.45703125 944.004882812 c 128,-1,4
 926.718392267 944.000017507 926.718392267 944.000017507 1108.61523438 970.684570312 c 2,5,-1
 1159.34667969 978.126953125 l 1,6,-1
 1162.98535156 693.217773438 l 1,7,-1
 1125.62597656 686.2734375 l 2,8,9
 979 659 979 659 858.334960938 657.889648438 c 0,10,11
 683 657 683 657 558.168945312 715.00390625 c 1,12,13
 622 419 622 419 617.18359375 9.3349609375 c 1,14,-1
 358.916992188 9.3349609375 l 1,15,16
 357 520 357 520 276.5390625 847.0703125 c 0,17,18
 220.235774127 1075.09506641 220.235774127 1075.09506641 112.364257812 1336.67480469 c 2,19,-1
 93.875 1381.50976562 l 1,20,-1
 345.369140625 1463.83300781 l 1,21,-1
 359.80859375 1421.95117188 l 2,22,23
 396 1316 396 1316 428.5546875 1221.68457031 c 1,24,25
 556 1525 556 1525 957.81640625 1472.83886719 c 0,26,27
 1018.11391433 1465.11352566 1018.11391433 1465.11352566 1067.4765625 1446.88769531 c 2,28,-1
 1096.890625 1436.02734375 l 1,29,-1
 1096.890625 1188.27441406 l 5,30,-1
 1039.37304688 1204.93066406 l 6,31,32
 967 1226 967 1226 877.348632812 1226.28808594 c 4,33,34
 747 1228 747 1228 672.208007812 1164.34667969 c 4,35,36
 584 1090 584 1090 633.125976562 1012.21972656 c 0,0,1
EndSplineSet
EndChar

StartChar: uni06F5
Encoding: 1781 1781 93
Width: 1418
VWidth: 2438
GlyphClass: 2
Flags: W
LayerCount: 2
Fore
SplineSet
478.6015625 312.551757812 m 0,0,1
 592.564453125 312.998046875 592.564453125 312.998046875 627.875 485.330078125 c 2,2,-1
 635.250976562 521.328125 l 1,3,-1
 785.697265625 521.166992188 l 1,4,-1
 791.755859375 483.310546875 l 2,5,6
 819 310 819 310 951.9765625 308.5625 c 0,7,8
 1003 308 1003 308 1029.01171875 333.79296875 c 0,9,10
 1054 358 1054 358 1054.16210938 416.306640625 c 0,11,12
 1054 646 1054 646 683.063476562 990.969726562 c 1,13,14
 355 603 355 603 367.310546875 404.93359375 c 0,15,16
 370 363 370 363 397.827148438 337.662109375 c 0,17,18
 425 313 425 313 478.6015625 312.551757812 c 0,0,1
711.073242188 129.8671875 m 1,19,20
 621 2 621 2 442.5 9.5 c 128,-1,21
 264 17 264 17 175.5 122 c 128,-1,22
 87 227 87 227 96 364 c 128,-1,23
 105 501 105 501 161.791015625 650.295898438 c 0,24,25
 242 860 242 860 496.250976562 1179.87890625 c 1,26,-1
 450.380859375 1222.81640625 l 1,27,-1
 621.213867188 1431.57128906 l 1,28,-1
 656.37109375 1396.32226562 l 2,29,30
 690 1363 690 1363 763.026367188 1294.18261719 c 0,31,32
 1320 773 1320 773 1320.20996094 365.399414062 c 0,33,34
 1320 231 1320 231 1256 125.5 c 4,35,36
 1185 10 1185 10 987.5 9.5 c 128,-1,37
 790 9 790 9 711.073242188 129.8671875 c 1,19,20
EndSplineSet
EndChar

StartChar: uni06F6
Encoding: 1782 1782 94
Width: 1101
VWidth: 2438
GlyphClass: 2
Flags: W
LayerCount: 2
Fore
SplineSet
110.077148438 68.01171875 m 2,0,1
 235.225271363 460.287005188 235.225271363 460.287005188 379.095703125 643.583984375 c 1,2,3
 143 709 143 709 91.41796875 879.4609375 c 0,4,5
 74 939.013044636 74 939.013044636 74 990.5 c 0,6,7
 74 1111.37234074 74 1111.37234074 123.637695312 1209.56054688 c 4,8,9
 245 1452 245 1452 585.880859375 1449.43457031 c 0,10,11
 636.645722451 1449.00301176 636.645722451 1449.00301176 719.33203125 1435.40820312 c 2,12,-1
 763.338867188 1428.17285156 l 1,13,-1
 722.646484375 1176.03613281 l 1,14,15
 658 1192 658 1192 589.643554688 1191.09667969 c 0,16,17
 398 1187 398 1187 336.20703125 1062.19140625 c 0,18,19
 318 1025 318 1025 318 995.5 c 128,-1,20
 318 966 318 966 337.8515625 939.575195312 c 0,21,22
 380 886 380 886 542.8515625 876.852539062 c 1,23,24
 870.56090809 995.840570058 870.56090809 995.840570058 945.579101562 1014.58691406 c 2,25,-1
 1003.62011719 1029.09082031 l 1,26,-1
 1014.734375 728.9765625 l 1,27,-1
 977.96875 720.817382812 l 2,28,29
 688 657 688 657 527.380859375 402.712890625 c 0,30,31
 455.741128121 289.591232187 455.741128121 289.591232187 381.7734375 41.4794921875 c 2,32,-1
 372.190429688 9.3349609375 l 1,33,-1
 91.357421875 9.3349609375 l 1,34,-1
 110.077148438 68.01171875 l 2,0,1
EndSplineSet
EndChar

StartChar: uniFB8F
Encoding: 64399 64399 109
Width: 1896
VWidth: 2438
GlyphClass: 2
Flags: W
AnchorPoint: "Anchor-10" 466.178 1373.21 basechar 0
AnchorPoint: "Anchor-7" 550.742 -187.299 basechar 0
LayerCount: 2
Fore
SplineSet
1876.5703125 1.09765625 m 2,0,1
 1677.92224035 1.09765625 1677.92224035 1.09765625 1581.60058594 122.065429688 c 1,2,3
 1451.51806576 0.5498046875 1451.51806576 0.5498046875 1224.92578125 0.5498046875 c 2,4,-1
 849.030273438 0.5498046875 l 1,5,6
 599 3 599 3 447.311523438 47.0322265625 c 0,7,8
 251 103 251 103 150.444335938 243.505859375 c 128,-1,9
 50 384 50 384 50.6923828125 597.870117188 c 0,10,11
 51.0008457001 705.294521091 51.0008457001 705.294521091 89.9609375 822.42578125 c 2,12,-1
 102.54296875 860.252929688 l 1,13,-1
 349.118164062 810.215820312 l 1,14,-1
 336.526367188 763.868164062 l 2,15,16
 317 692 317 692 315.724609375 619.103515625 c 0,17,18
 315 530 315 530 376.30078125 454.747070312 c 0,19,20
 457 356 457 356 644.286132812 334.53515625 c 0,21,22
 734 324 734 324 880.400390625 320.79296875 c 1,23,-1
 1179.52832031 320.818359375 l 2,24,25
 1364 321 1364 321 1413.77148438 371.702148438 c 0,26,27
 1441 399 1441 399 1433.81347656 442.828125 c 0,28,29
 1426 493 1426 493 1375.93164062 555.603515625 c 0,30,31
 1268 692 1268 692 983.181640625 856.038085938 c 0,32,33
 878 917 878 917 878.110351562 1061.93359375 c 0,34,35
 878.00016135 1210.78204326 878.00016135 1210.78204326 1022.60839844 1277.05273438 c 2,36,-1
 1741 1606.27539062 l 5,37,-1
 1741 1328 l 5,38,-1
 1160.609375 1068.89648438 l 1,39,40
 1453 855 1453 855 1515.54785156 786.147460938 c 0,41,42
 1640 651 1640 651 1698.76660156 461.395507812 c 0,43,44
 1720 393 1720 393 1764.37402344 355.833007812 c 0,45,46
 1804.73006374 321.231445312 1804.73006374 321.231445312 1868.54394531 321.231445312 c 2,47,-1
 1907.05175781 321.231445312 l 1,48,-1
 1907.05175781 1.09765625 l 1,49,-1
 1876.5703125 1.09765625 l 2,0,1
EndSplineSet
EndChar

StartChar: uniFB9F
Encoding: 64415 64415 117
Width: 1548
VWidth: 2393
GlyphClass: 2
Flags: W
AnchorPoint: "Anchor-10" 671.411 796.724 basechar 0
AnchorPoint: "Anchor-7" 634.05 -608.475 basechar 0
LayerCount: 2
Fore
SplineSet
1541.94042969 -4.453125 m 2,0,1
 1480.35411567 -4.48563466745 1480.35411567 -4.48563466745 1395.14550781 26.0732421875 c 1,2,3
 1367 -227 1367 -227 1196.97753906 -355.974609375 c 128,-1,4
 1027 -485 1027 -485 729.293945312 -484.88671875 c 0,5,6
 282 -485 282 -485 128.806853966 -202.597709644 c 0,7,8
 -24 80 -24 80 145.263671875 574.456054688 c 1,9,-1
 384 509.225585938 l 5,10,11
 315 308 315 308 315.106445312 159.935546875 c 0,12,13
 315 -5 315 -5 415 -90.5 c 128,-1,14
 515 -176 515 -176 734.907226562 -176.142578125 c 0,15,16
 955 -176 955 -176 1057.04882812 -93.05078125 c 128,-1,17
 1159 -10 1159 -10 1159.07617188 164.653320312 c 0,18,19
 1158.99981239 291.311187579 1158.99981239 291.311187579 1093.61523438 545.447265625 c 2,20,-1
 1081.93554688 590.84375 l 1,21,-1
 1339.05175781 643.771484375 l 1,22,-1
 1348.37011719 598.1171875 l 2,23,24
 1375 466 1375 466 1394.20214844 411.594726562 c 0,25,26
 1426.10589647 315.681640625 1426.10589647 315.681640625 1546.45898438 315.681640625 c 2,27,-1
 1560.44042969 315.681640625 l 1,28,-1
 1560.44042969 -4.443359375 l 1,29,-1
 1541.94042969 -4.453125 l 2,0,1
EndSplineSet
EndChar

StartChar: uniFBE8
Encoding: 64488 64488 120
Width: 711
VWidth: 2438
GlyphClass: 2
Flags: W
AnchorPoint: "Anchor-10" 333.214 1190.44 basechar 0
AnchorPoint: "Anchor-7" 305.758 -344.896 basechar 0
LayerCount: 2
Fore
SplineSet
59.884765625 320.243164062 m 2,0,1
 248.282613247 320.243164062 248.282613247 320.243164062 303.590820312 367.831054688 c 4,2,3
 356 414 356 414 346.02734375 496.275390625 c 132,-1,4
 336.054032753 578.55423505 336.054032753 578.55423505 288.915039062 703.067382812 c 6,5,-1
 273.645507812 743.400390625 l 5,6,-1
 507.872070312 843.650390625 l 5,7,-1
 526.764648438 805.495117188 l 6,8,9
 604 650 604 650 613.366210938 459.290039062 c 4,10,11
 625 231 625 231 484.420898438 109.784179688 c 4,12,13
 357 0 357 0 50.93359375 0 c 2,14,-1
 -10.1650390625 0 l 1,15,-1
 -10.1650390625 320.243164062 l 1,16,-1
 59.884765625 320.243164062 l 2,0,1
EndSplineSet
EndChar

StartChar: uniFBE9
Encoding: 64489 64489 121
Width: 722
VWidth: 2438
GlyphClass: 2
Flags: W
AnchorPoint: "Anchor-10" 309.627 1102.58 basechar 0
AnchorPoint: "Anchor-7" 356.851 -89.0068 basechar 0
LayerCount: 2
Fore
SplineSet
418.194335938 102.84765625 m 1,0,1
 299 0 299 0 98.732421875 0 c 2,2,-1
 -12.2451171875 0 l 1,3,-1
 -12.2451171875 320.243164062 l 5,4,-1
 47.310546875 320.243164062 l 6,5,6
 206 320 206 320 254.678710938 367.423828125 c 4,7,8
 282.280255001 394.272611774 282.280255001 394.272611774 293.403320312 472.561523438 c 6,9,-1
 320.416015625 662.688476562 l 1,10,-1
 517.0859375 662.688476562 l 1,11,-1
 546.436523438 473.086914062 l 6,12,13
 559 390 559 390 596.78515625 355.8828125 c 4,14,15
 636.727479423 320.243164062 636.727479423 320.243164062 718.041015625 320.243164062 c 6,16,-1
 734.07421875 320.243164062 l 5,17,-1
 734.07421875 0 l 1,18,-1
 706.124023438 0 l 2,19,20
 535 0 535 0 418.194335938 102.84765625 c 1,0,1
EndSplineSet
EndChar

StartChar: uniFE73
Encoding: 65139 65139 129
Width: 601
VWidth: 2438
GlyphClass: 2
Flags: W
AnchorPoint: "Anchor-10" 222.139 1443.04 basechar 0
AnchorPoint: "Anchor-7" 222.139 -84.6133 basechar 0
LayerCount: 2
Fore
SplineSet
353.8125 423.037109375 m 2,0,1
 353.8125 395.852539062 353.8125 395.852539062 365.83984375 369.982421875 c 128,-1,2
 377.866210938 344.112304688 377.866210938 344.112304688 404.493164062 317.485351562 c 0,3,4
 449.29296875 272.681640625 449.29296875 272.681640625 555.87109375 272.681640625 c 2,5,-1
 667.568359375 272.681640625 l 1,6,-1
 667.568359375 9.3349609375 l 1,7,-1
 491.239257812 9.3349609375 l 2,8,9
 314.614257812 9.3349609375 314.614257812 9.3349609375 199.6015625 124.34765625 c 0,10,11
 145.130859375 178.817382812 145.130859375 178.817382812 117.796875 250.815429688 c 128,-1,12
 90.4638671875 322.813476562 90.4638671875 322.813476562 90.4638671875 408.935546875 c 2,13,-1
 90.4638671875 483.028320312 l 1,14,-1
 353.8125 483.028320312 l 1,15,-1
 353.8125 423.037109375 l 2,0,1
EndSplineSet
EndChar

StartChar: uniFE8E
Encoding: 65166 65166 155
Width: 635
VWidth: 2438
GlyphClass: 2
Flags: W
AnchorPoint: "Anchor-10" 284.479 1602.66 basechar 0
AnchorPoint: "Anchor-7" 328.246 -225.188 basechar 0
LayerCount: 2
Fore
SplineSet
159.392578125 534.879882812 m 6,0,-1
 159.392578125 1503.24902344 l 5,1,-1
 442.34765625 1503.24902344 l 5,2,-1
 442.34765625 508.993164062 l 6,3,4
 442 389 442 389 530.190429688 340.9140625 c 4,5,6
 567.560546875 320.243164062 567.560546875 320.243164062 627.93359375 320.243164062 c 6,7,-1
 645.915039062 320.243164062 l 5,8,-1
 645.915039062 0 l 5,9,-1
 622.608398438 0 l 6,10,11
 352.885742188 0 352.885742188 0 225.634765625 200.833984375 c 4,12,13
 159 305 159 305 159.392578125 534.879882812 c 6,0,-1
EndSplineSet
EndChar

StartChar: uniFEA2
Encoding: 65186 65186 175
Width: 1386
VWidth: 2438
GlyphClass: 2
Flags: W
AnchorPoint: "Anchor-10" 611.107 1297.12 basechar 0
AnchorPoint: "Anchor-7" 475.396 -665.504 basechar 0
LayerCount: 2
Fore
SplineSet
766 703 m 1,0,1
 679 751 l 0,2,3
 635 778 635 778 596.762695312 792.799804688 c 0,4,5
 519 821 519 821 451.650390625 777.669921875 c 0,6,7
 379.393803663 732.247555207 379.393803663 732.247555207 317.26171875 650.43359375 c 2,8,-1
 290.76171875 615.5390625 l 1,9,-1
 93.2578125 767.384765625 l 1,10,-1
 123.325195312 804.446289062 l 2,11,12
 209 910 209 910 237.84765625 939.201171875 c 0,13,14
 361 1064 361 1064 535.249023438 1065.14453125 c 0,15,16
 635 1066 635 1066 770.943359375 979.576171875 c 0,17,18
 1000.36679425 833.76688516 1000.36679425 833.76688516 1230.4140625 818.245117188 c 2,19,-1
 1278.50976562 815 l 1,20,-1
 1266.56054688 494.529296875 l 5,21,22
 1193 493 1193 493 1118.97851562 490.994140625 c 5,23,24
 1125.01127684 320.681640625 1125.01127684 320.681640625 1361.35839844 320.681640625 c 2,25,-1
 1396.54492188 320.681640625 l 1,26,-1
 1396.54492188 0.5498046875 l 1,27,-1
 1371.63574219 0.5498046875 l 2,28,29
 1147 1 1147 1 1024.79785156 130.614257812 c 0,30,31
 903 261 903 261 892.885742188 465.775390625 c 1,32,33
 610 418 610 418 476.715820312 287.383789062 c 0,34,35
 356 170 356 170 356.107421875 36.69140625 c 0,36,37
 356 -85 356 -85 473.5 -161.5 c 128,-1,38
 591 -238 591 -238 840.290039062 -238.734375 c 0,39,40
 1028 -239 1028 -239 1221.62792969 -170.850585938 c 1,41,-1
 1288.49511719 -458.64453125 l 1,42,43
 1084 -546 1084 -546 808.016601562 -542.42578125 c 0,44,45
 451 -538 451 -538 273.821289062 -380.418945312 c 0,46,47
 97 -223 97 -223 98.017578125 38.650390625 c 0,48,49
 99 300 99 300 320.888671875 496.58984375 c 0,50,51
 481 639 481 639 766 703 c 1,0,1
EndSplineSet
EndChar

StartChar: uniFEA3
Encoding: 65187 65187 176
Width: 1417
VWidth: 2438
GlyphClass: 2
Flags: W
AnchorPoint: "Anchor-10" 488.918 1247.81 basechar 0
AnchorPoint: "Anchor-7" 620.707 -232.876 basechar 0
LayerCount: 2
Fore
SplineSet
866.203125 515.922851562 m 1,0,1
 776 550 776 550 680.287109375 597.458984375 c 0,2,3
 546 664 546 664 487.186523438 671.00390625 c 0,4,5
 388.188077132 682.97725305 388.188077132 682.97725305 260.5625 517.169921875 c 2,6,-1
 233.616210938 482.162109375 l 1,7,-1
 35.7978515625 637.701171875 l 5,8,-1
 62.0322265625 673.776367188 l 6,9,10
 121 755 121 755 175.298828125 811.6484375 c 4,11,12
 310 952 310 952 472.161132812 945.565429688 c 4,13,14
 535 943 535 943 621.139648438 911.15625 c 4,15,16
 707 879 707 879 824.803710938 815.7421875 c 4,17,18
 1042.97804666 698.474303601 1042.97804666 698.474303601 1294.36816406 653.55859375 c 6,19,-1
 1336.0390625 646.11328125 l 5,20,-1
 1311.8828125 381.201171875 l 1,21,-1
 1269.20507812 383.971679688 l 2,22,23
 1187 389 1187 389 1021.87988281 279.029296875 c 0,24,25
 839 157 839 157 701.876953125 98.9951171875 c 0,26,27
 584 49 584 49 428.940429688 24.4970703125 c 128,-1,28
 274 0 274 0 80.6533203125 0 c 2,29,-1
 -15.6220703125 0 l 1,30,-1
 -15.6220703125 320.243164062 l 1,31,-1
 43.69140625 320.243164062 l 2,32,33
 365 320 365 320 488.561523438 346.865234375 c 0,34,35
 660 383 660 383 866.203125 515.922851562 c 1,0,1
EndSplineSet
EndChar

StartChar: uniFEA4
Encoding: 65188 65188 177
Width: 1481
VWidth: 2438
GlyphClass: 2
Flags: W
AnchorPoint: "Anchor-10" 486.339 1265.4 basechar 0
AnchorPoint: "Anchor-7" 590.058 -223.616 basechar 0
LayerCount: 2
Fore
SplineSet
1175.30761719 413.400390625 m 1,0,1
 1215.89807336 321.231445312 1215.89807336 321.231445312 1437.05078125 321.231445312 c 2,2,-1
 1493.171875 321.231445312 l 1,3,-1
 1493.171875 0 l 1,4,-1
 1413.54882812 0 l 2,5,6
 1213 0 1213 0 1105.2578125 76.3916015625 c 0,7,8
 1018 138 1018 138 976.109375 249.255859375 c 1,9,10
 809 143 809 143 701.440429688 98.814453125 c 0,11,12
 461 0 461 0 80.6533203125 0 c 2,13,-1
 -10.6220703125 0 l 1,14,-1
 -10.6220703125 320.243164062 l 1,15,-1
 43.69140625 320.243164062 l 2,16,17
 363 320 363 320 488.6015625 346.873046875 c 0,18,19
 661 383 661 383 866.491210938 515.947265625 c 1,20,21
 822 533 822 533 777.251953125 552.569335938 c 0,22,23
 732 572 732 572 683.396484375 596.405273438 c 0,24,25
 547 664 547 664 487.186523438 671.00390625 c 0,26,27
 388.188077132 682.97725305 388.188077132 682.97725305 260.5625 517.169921875 c 2,28,-1
 233.616210938 482.162109375 l 1,29,-1
 35.7978515625 637.701171875 l 5,30,-1
 62.0322265625 673.776367188 l 6,31,32
 121 755 121 755 175.298828125 811.6484375 c 4,33,34
 310 952 310 952 472.161132812 945.565429688 c 4,35,36
 535 943 535 943 621.139648438 911.15625 c 4,37,38
 707 879 707 879 824.803710938 815.7421875 c 4,39,40
 1042.97804666 698.474303601 1042.97804666 698.474303601 1294.36816406 653.55859375 c 6,41,-1
 1336.0390625 646.11328125 l 5,42,-1
 1311.88769531 429.248046875 l 1,43,-1
 1269.26074219 431.959960938 l 2,44,45
 1225 435 1225 435 1175.30761719 413.400390625 c 1,0,1
EndSplineSet
EndChar

StartChar: uniFEAA
Encoding: 65194 65194 183
Width: 1164
VWidth: 2438
GlyphClass: 2
Flags: W
AnchorPoint: "Anchor-10" 459.434 1350.95 basechar 0
AnchorPoint: "Anchor-7" 419.359 -219.148 basechar 0
LayerCount: 2
Fore
SplineSet
1141.90722656 0.5498046875 m 6,0,1
 1004.42210818 0.5498046875 1004.42210818 0.5498046875 899.03515625 112.94921875 c 5,2,3
 751 -12 751 -12 396.692382812 0.0205078125 c 4,4,5
 218 6 218 6 98.5634765625 35.587890625 c 1,6,-1
 98.5634765625 359.024414062 l 1,7,8
 387 296 387 296 629.829101562 326.803710938 c 4,9,10
 711 337 711 337 724.643554688 353.192382812 c 4,11,12
 738 369 738 369 725.047851562 410.180664062 c 4,13,14
 713.039075024 448.874096518 713.039075024 448.874096518 659.75 571.329101562 c 6,15,-1
 488 966 l 5,16,-1
 725.150390625 1087.60058594 l 5,17,-1
 967.46484375 531.979492188 l 6,18,19
 1016 420 1016 420 1059.01074219 365.177734375 c 4,20,21
 1096.00632167 316.991766161 1096.00632167 316.991766161 1151.33496094 319.26171875 c 6,22,-1
 1174.54296875 320.213867188 l 5,23,-1
 1174.54296875 0.5498046875 l 5,24,-1
 1141.90722656 0.5498046875 l 6,0,1
EndSplineSet
EndChar

StartChar: uniFEAE
Encoding: 65198 65198 187
Width: 929
VWidth: 2393
GlyphClass: 2
Flags: W
AnchorPoint: "Anchor-10" 532.16 936.2 basechar 0
AnchorPoint: "Anchor-7" 364.048 -675.522 basechar 0
LayerCount: 2
Fore
SplineSet
901.158203125 0 m 2,0,1
 824 0 824 0 769.41015625 34.8427734375 c 1,2,3
 669.092407734 -406.593370921 669.092407734 -406.593370921 89.11328125 -466.918945312 c 2,4,-1
 47.5771484375 -471.239257812 l 1,5,-1
 1.7275390625 -166.819335938 l 1,6,-1
 50.7568359375 -162.458007812 l 2,7,8
 299 -140 299 -140 414.78515625 -36.2724609375 c 0,9,10
 521 59 521 59 521.999023438 234.330078125 c 4,11,12
 523 392 523 392 446.970703125 566.708984375 c 5,13,-1
 698.583007812 665.262695312 l 1,14,15
 770 421 770 421 806 370 c 0,16,17
 841.824921875 320.243164062 841.824921875 320.243164062 921.859375 320.243164062 c 2,18,-1
 939.204101562 320.243164062 l 1,19,-1
 939.204101562 0 l 1,20,-1
 901.158203125 0 l 2,0,1
EndSplineSet
PairPos2: "'kern' Horizontal Kerning lookup 15-1" uniFEE7 dx=-150 dy=0 dh=-150 dv=0 dx=0 dy=0 dh=0 dv=0
PairPos2: "'kern' Horizontal Kerning lookup 15-2" uniFB90 dx=-190 dy=0 dh=-190 dv=0 dx=0 dy=0 dh=0 dv=0
PairPos2: "'kern' Horizontal Kerning lookup 15-2" uniFB8E dx=-190 dy=0 dh=-190 dv=0 dx=0 dy=0 dh=0 dv=0
PairPos2: "'kern' Horizontal Kerning lookup 15-2" uni06A9 dx=-190 dy=0 dh=-190 dv=0 dx=0 dy=0 dh=0 dv=0
PairPos2: "'kern' Horizontal Kerning lookup 15-2" uni064A dx=-50 dy=0 dh=-50 dv=0 dx=0 dy=0 dh=0 dv=0
PairPos2: "'kern' Horizontal Kerning lookup 15-2" afii57414 dx=-50 dy=0 dh=-50 dv=0 dx=0 dy=0 dh=0 dv=0
PairPos2: "'kern' Horizontal Kerning lookup 15-2" uni0649 dx=-50 dy=0 dh=-50 dv=0 dx=0 dy=0 dh=0 dv=0
PairPos2: "'kern' Horizontal Kerning lookup 15-2" uniFEEB dx=-150 dy=0 dh=-150 dv=0 dx=0 dy=0 dh=0 dv=0
PairPos2: "'kern' Horizontal Kerning lookup 15-2" uni0647 dx=-150 dy=0 dh=-150 dv=0 dx=0 dy=0 dh=0 dv=0
PairPos2: "'kern' Horizontal Kerning lookup 15-2" uni0646 dx=-50 dy=0 dh=-50 dv=0 dx=0 dy=0 dh=0 dv=0
PairPos2: "'kern' Horizontal Kerning lookup 15-2" uniFEE3 dx=-150 dy=0 dh=-150 dv=0 dx=0 dy=0 dh=0 dv=0
PairPos2: "'kern' Horizontal Kerning lookup 15-2" uni0645 dx=-150 dy=0 dh=-150 dv=0 dx=0 dy=0 dh=0 dv=0
PairPos2: "'kern' Horizontal Kerning lookup 15-2" uniFEFB dx=-120 dy=0 dh=-120 dv=0 dx=0 dy=0 dh=0 dv=0
PairPos2: "'kern' Horizontal Kerning lookup 15-2" uniFEDF dx=-120 dy=0 dh=-120 dv=0 dx=0 dy=0 dh=0 dv=0
PairPos2: "'kern' Horizontal Kerning lookup 15-2" uni0644 dx=-50 dy=0 dh=-50 dv=0 dx=0 dy=0 dh=0 dv=0
PairPos2: "'kern' Horizontal Kerning lookup 15-2" uniFEDB dx=-190 dy=0 dh=-190 dv=0 dx=0 dy=0 dh=0 dv=0
PairPos2: "'kern' Horizontal Kerning lookup 15-2" uni0643 dx=-120 dy=0 dh=-120 dv=0 dx=0 dy=0 dh=0 dv=0
PairPos2: "'kern' Horizontal Kerning lookup 15-2" uniFED7 dx=-150 dy=0 dh=-150 dv=0 dx=0 dy=0 dh=0 dv=0
PairPos2: "'kern' Horizontal Kerning lookup 15-2" uni0642 dx=-50 dy=0 dh=-50 dv=0 dx=0 dy=0 dh=0 dv=0
PairPos2: "'kern' Horizontal Kerning lookup 15-2" uniFED3 dx=-150 dy=0 dh=-150 dv=0 dx=0 dy=0 dh=0 dv=0
PairPos2: "'kern' Horizontal Kerning lookup 15-2" uni0641 dx=-150 dy=0 dh=-150 dv=0 dx=0 dy=0 dh=0 dv=0
PairPos2: "'kern' Horizontal Kerning lookup 15-2" uniFECF dx=-150 dy=0 dh=-150 dv=0 dx=0 dy=0 dh=0 dv=0
PairPos2: "'kern' Horizontal Kerning lookup 15-2" uniFECB dx=-150 dy=0 dh=-150 dv=0 dx=0 dy=0 dh=0 dv=0
PairPos2: "'kern' Horizontal Kerning lookup 15-2" uniFEC7 dx=-150 dy=0 dh=-150 dv=0 dx=0 dy=0 dh=0 dv=0
PairPos2: "'kern' Horizontal Kerning lookup 15-2" uni0638 dx=-150 dy=0 dh=-150 dv=0 dx=0 dy=0 dh=0 dv=0
PairPos2: "'kern' Horizontal Kerning lookup 15-2" uniFEC3 dx=-150 dy=0 dh=-150 dv=0 dx=0 dy=0 dh=0 dv=0
PairPos2: "'kern' Horizontal Kerning lookup 15-2" uni0637 dx=-150 dy=0 dh=-150 dv=0 dx=0 dy=0 dh=0 dv=0
PairPos2: "'kern' Horizontal Kerning lookup 15-2" uniFEBF dx=-150 dy=0 dh=-150 dv=0 dx=0 dy=0 dh=0 dv=0
PairPos2: "'kern' Horizontal Kerning lookup 15-2" uni0636 dx=-150 dy=0 dh=-150 dv=0 dx=0 dy=0 dh=0 dv=0
PairPos2: "'kern' Horizontal Kerning lookup 15-2" uniFEBB dx=-150 dy=0 dh=-150 dv=0 dx=0 dy=0 dh=0 dv=0
PairPos2: "'kern' Horizontal Kerning lookup 15-2" uni0635 dx=-150 dy=0 dh=-150 dv=0 dx=0 dy=0 dh=0 dv=0
PairPos2: "'kern' Horizontal Kerning lookup 15-2" uniFEB7 dx=-150 dy=0 dh=-150 dv=0 dx=0 dy=0 dh=0 dv=0
PairPos2: "'kern' Horizontal Kerning lookup 15-2" uni0634 dx=-150 dy=0 dh=-150 dv=0 dx=0 dy=0 dh=0 dv=0
PairPos2: "'kern' Horizontal Kerning lookup 15-2" uniFEB3 dx=-150 dy=0 dh=-150 dv=0 dx=0 dy=0 dh=0 dv=0
PairPos2: "'kern' Horizontal Kerning lookup 15-2" uni0633 dx=-150 dy=0 dh=-150 dv=0 dx=0 dy=0 dh=0 dv=0
PairPos2: "'kern' Horizontal Kerning lookup 15-2" uni0630 dx=-150 dy=0 dh=-150 dv=0 dx=0 dy=0 dh=0 dv=0
PairPos2: "'kern' Horizontal Kerning lookup 15-2" uni062F dx=-150 dy=0 dh=-150 dv=0 dx=0 dy=0 dh=0 dv=0
PairPos2: "'kern' Horizontal Kerning lookup 15-2" uniFEA7 dx=-150 dy=0 dh=-150 dv=0 dx=0 dy=0 dh=0 dv=0
PairPos2: "'kern' Horizontal Kerning lookup 15-2" uniFEA3 dx=-150 dy=0 dh=-150 dv=0 dx=0 dy=0 dh=0 dv=0
PairPos2: "'kern' Horizontal Kerning lookup 15-2" uniFE9F dx=-150 dy=0 dh=-150 dv=0 dx=0 dy=0 dh=0 dv=0
PairPos2: "'kern' Horizontal Kerning lookup 15-2" uniFE9B dx=-150 dy=0 dh=-150 dv=0 dx=0 dy=0 dh=0 dv=0
PairPos2: "'kern' Horizontal Kerning lookup 15-2" uni062B dx=-150 dy=0 dh=-150 dv=0 dx=0 dy=0 dh=0 dv=0
PairPos2: "'kern' Horizontal Kerning lookup 15-2" uniFE97 dx=-150 dy=0 dh=-150 dv=0 dx=0 dy=0 dh=0 dv=0
PairPos2: "'kern' Horizontal Kerning lookup 15-2" uni062A dx=-150 dy=0 dh=-150 dv=0 dx=0 dy=0 dh=0 dv=0
PairPos2: "'kern' Horizontal Kerning lookup 15-2" uni0629 dx=-150 dy=0 dh=-150 dv=0 dx=0 dy=0 dh=0 dv=0
PairPos2: "'kern' Horizontal Kerning lookup 15-2" uniFE91 dx=-50 dy=0 dh=-50 dv=0 dx=0 dy=0 dh=0 dv=0
PairPos2: "'kern' Horizontal Kerning lookup 15-2" uni0628 dx=-150 dy=0 dh=-150 dv=0 dx=0 dy=0 dh=0 dv=0
PairPos2: "'kern' Horizontal Kerning lookup 15-2" uni0627 dx=-120 dy=0 dh=-120 dv=0 dx=0 dy=0 dh=0 dv=0
PairPos2: "'kern' Horizontal Kerning lookup 15-2" uni0623 dx=-120 dy=0 dh=-120 dv=0 dx=0 dy=0 dh=0 dv=0
PairPos2: "'kern' Horizontal Kerning lookup 15-2" uni0622 dx=-120 dy=0 dh=-120 dv=0 dx=0 dy=0 dh=0 dv=0
PairPos2: "'kern' Horizontal Kerning lookup 15-2" uni0621 dx=-150 dy=0 dh=-150 dv=0 dx=0 dy=0 dh=0 dv=0
PairPos2: "'kern' Horizontal Kerning lookup 15-2" uniFB94 dx=-190 dy=0 dh=-190 dv=0 dx=0 dy=0 dh=0 dv=0
PairPos2: "'kern' Horizontal Kerning lookup 15-2" uniFB92 dx=-190 dy=0 dh=-190 dv=0 dx=0 dy=0 dh=0 dv=0
PairPos2: "'kern' Horizontal Kerning lookup 15-2" afii57509 dx=-190 dy=0 dh=-190 dv=0 dx=0 dy=0 dh=0 dv=0
PairPos2: "'kern' Horizontal Kerning lookup 15-2" afii57506 dx=-150 dy=0 dh=-150 dv=0 dx=0 dy=0 dh=0 dv=0
PairPos2: "'kern' Horizontal Kerning lookup 15-2" afii57440 dx=-150 dy=0 dh=-150 dv=0 dx=0 dy=0 dh=0 dv=0
PairPos2: "'kern' Horizontal Kerning lookup 15-2" uniFE8B dx=-150 dy=0 dh=-150 dv=0 dx=0 dy=0 dh=0 dv=0
EndChar

StartChar: uniFEB2
Encoding: 65202 65202 191
Width: 2651
VWidth: 2393
GlyphClass: 2
Flags: W
AnchorPoint: "Anchor-10" 786.809 1011.43 basechar 0
AnchorPoint: "Anchor-7" 553.981 -664.484 basechar 0
LayerCount: 2
Fore
SplineSet
2591.3984375 0.5498046875 m 2,0,1
 2436.39115199 0.5498046875 2436.39115199 0.5498046875 2345.58789062 105.059570312 c 1,2,3
 2254 -1 2254 -1 2114.52636719 0.0009765625 c 0,4,5
 1938 1 1938 1 1847.03222656 110.913085938 c 1,6,7
 1764 -1 1764 -1 1617.50292969 -0.51953125 c 0,8,9
 1519 -0 1519 -0 1450.1640625 31.1435546875 c 1,10,11
 1393 -480 1393 -480 765 -479.5 c 0,12,13
 451 -479 451 -479 274.5 -322 c 128,-1,14
 98 -165 98 -165 97.90234375 139.110351562 c 0,15,16
 98 311 98 311 190.262695312 579.458007812 c 1,17,-1
 428 512 l 5,18,19
 361 314 361 314 361 164.5 c 0,20,21
 361 -172 361 -172 777.319335938 -171.6796875 c 0,22,23
 1000 -172 1000 -172 1102.09375 -88.6650390625 c 0,24,25
 1204 -5 1204 -5 1204 169.165039062 c 0,26,27
 1204 295.327585741 1204 295.327585741 1138.59960938 550.486328125 c 2,28,-1
 1126.97167969 595.852539062 l 1,29,-1
 1386.74023438 649.348632812 l 1,30,31
 1422 451 1422 451 1457 394 c 0,32,33
 1503 320 1503 320 1583 318.5 c 0,34,35
 1648 317 1648 317 1679.24804688 344.72265625 c 0,36,37
 1712.87198546 373.888956772 1712.87198546 373.888956772 1720.30957031 444.299804688 c 2,38,-1
 1743.51171875 663.952148438 l 1,39,-1
 1957.61035156 663.952148438 l 1,40,-1
 1985 448 l 2,41,42
 2002 314 2002 314 2108 317.5 c 0,43,44
 2194.54402442 319.986897253 2194.54402442 319.986897253 2207.95019531 455.995117188 c 2,45,-1
 2228.41699219 663.634765625 l 1,46,-1
 2438.37695312 663.634765625 l 1,47,-1
 2461.4453125 459.184570312 l 2,48,49
 2477.03583599 320.681640625 2477.03583599 320.681640625 2622.74511719 320.681640625 c 2,50,-1
 2659.50585938 320.681640625 l 1,51,-1
 2659.50585938 0.5498046875 l 1,52,-1
 2591.3984375 0.5498046875 l 2,0,1
EndSplineSet
EndChar

StartChar: uniFEB3
Encoding: 65203 65203 192
Width: 1767
VWidth: 2393
GlyphClass: 2
Flags: W
AnchorPoint: "Anchor-10" 770.466 1090.51 basechar 0
AnchorPoint: "Anchor-7" 799.645 -248.801 basechar 0
LayerCount: 2
Fore
SplineSet
1353.21484375 344.731445312 m 0,0,1
 1447.77381073 428.798906881 1447.77381073 428.798906881 1344.07128906 702.56640625 c 6,2,-1
 1328.79101562 742.905273438 l 5,3,-1
 1563.00585938 843.149414062 l 5,4,-1
 1581.90820312 805.0234375 l 6,5,6
 1658 652 1658 652 1669.20068359 458.962890625 c 0,7,8
 1681 255 1681 255 1568.23095703 126.610351562 c 0,9,10
 1455 -2 1455 -2 1271.47949219 -2.4287109375 c 0,11,12
 1087 -3 1087 -3 1001.87988281 108.166992188 c 1,13,14
 918 -2 918 -2 730.540527344 -0.978515625 c 128,-1,15
 543 -0 543 -0 438.967773438 118.606445312 c 1,16,17
 350 0 350 0 163.241210938 0 c 2,18,-1
 -10.42578125 0 l 1,19,-1
 -10.42578125 320.243164062 l 1,20,-1
 134.876953125 320.243164062 l 2,21,22
 220 320 220 320 260.520507812 355.057617188 c 0,23,24
 298.73330131 387.771678631 298.73330131 387.771678631 311.2265625 469.099609375 c 2,25,-1
 340.892578125 662.217773438 l 1,26,-1
 544.372070312 662.217773438 l 1,27,-1
 570.247070312 473.520507812 l 2,28,29
 591 319 591 319 733.266601562 318.26953125 c 0,30,31
 803 318 803 318 834.338867188 353.169921875 c 0,32,33
 862.593382733 384.548424709 862.593382733 384.548424709 876.448242188 469.877929688 c 2,34,-1
 907.80859375 663.020507812 l 1,35,-1
 1111.57324219 663.020507812 l 1,36,-1
 1141.65527344 468.795898438 l 2,37,38
 1158 361 1158 361 1209.8671875 332.529296875 c 0,39,40
 1236 318 1236 318 1279.94140625 318.66015625 c 0,41,42
 1324 319 1324 319 1353.21484375 344.731445312 c 0,0,1
EndSplineSet
EndChar

StartChar: uniFEB4
Encoding: 65204 65204 193
Width: 1797
VWidth: 2387
GlyphClass: 2
Flags: W
AnchorPoint: "Anchor-10" 697.932 1085.02 basechar 0
AnchorPoint: "Anchor-7" 762.335 -220.246 basechar 0
LayerCount: 2
Fore
SplineSet
448.983398438 120.373046875 m 1,0,1
 361 0 361 0 172.30078125 0 c 2,2,-1
 -10.826171875 0 l 1,3,-1
 -10.826171875 320.241210938 l 1,4,-1
 133.33203125 320.2421875 l 2,5,6
 263 320 263 320 297.93359375 399.919921875 c 0,7,8
 308.521315079 425.247049594 308.521315079 425.247049594 314.038085938 465.280273438 c 2,9,-1
 341.096679688 661.634765625 l 1,10,-1
 545.932617188 661.634765625 l 1,11,-1
 574.9375 475.5390625 l 2,12,13
 588 391 588 391 624.064453125 355.759765625 c 0,14,15
 663 319 663 319 728.828125 318.923828125 c 0,16,17
 795 319 795 319 825.142578125 349.424804688 c 0,18,19
 853.006319398 378.006482223 853.006319398 378.006482223 865.274414062 451.696289062 c 2,20,-1
 900.225585938 661.634765625 l 1,21,-1
 1099.4921875 661.634765625 l 1,22,-1
 1131.31835938 453.87890625 l 2,23,24
 1152 320 1152 320 1251 319.915039062 c 4,25,26
 1338.43981876 320.000429511 1338.43981876 320.000429511 1358.30371094 462.75390625 c 2,27,-1
 1386.07519531 662.3359375 l 1,28,-1
 1589.36621094 662.3359375 l 1,29,-1
 1618.46386719 460.33203125 l 2,30,31
 1629 385 1629 385 1664.0703125 353.53125 c 0,32,33
 1700.73726177 321.231445312 1700.73726177 321.231445312 1777.390625 321.231445312 c 2,34,-1
 1811.61816406 321.231445312 l 1,35,-1
 1811.61816406 0 l 1,36,-1
 1731.20117188 0 l 2,37,38
 1583 0 1583 0 1496.765625 101.592773438 c 1,39,40
 1425 1 1425 1 1255.23242188 1.01123046875 c 0,41,42
 1086 1 1086 1 999.569335938 110.087890625 c 1,43,44
 920 1 920 1 734.010253906 5.02978515625 c 128,-1,45
 548 9 548 9 448.983398438 120.373046875 c 1,0,1
EndSplineSet
EndChar

StartChar: uniFEBA
Encoding: 65210 65210 199
Width: 2665
VWidth: 2393
GlyphClass: 2
Flags: W
AnchorPoint: "Anchor-10" 654.816 972.991 basechar 0
AnchorPoint: "Anchor-7" 547.364 -729.28 basechar 0
LayerCount: 2
Fore
SplineSet
1677.48242188 320.618164062 m 1,0,-1
 1784.30566406 320.618164062 l 2,1,2
 2042 321 2042 321 2098.97265625 336.868164062 c 0,3,4
 2217 371 2217 371 2216.73144531 465.328125 c 0,5,6
 2217 613 2217 613 2084.04492188 612.96875 c 0,7,8
 1915 613 1915 613 1677.48242188 320.618164062 c 1,0,-1
2627.87304688 -6 m 2,9,10
 2433 -6 2433 -6 2318.65820312 103.017578125 c 1,11,12
 2223 37 2223 37 2079.04827035 14.8213667643 c 0,13,14
 1935.21421349 -6.96754954969 1935.21421349 -6.96754954969 1752.98632812 -6.828125 c 2,15,-1
 1751.70996094 -6.8271484375 l 2,16,17
 1747.80693924 -6.880228333 1747.80693924 -6.880228333 1728.33984375 -6.7353515625 c 2,18,-1
 1629.39941406 -5.9990234375 l 2,19,20
 1518 -5 1518 -5 1450.82324219 40.044921875 c 1,21,22
 1429 -212 1429 -212 1251.5 -350 c 128,-1,23
 1074 -488 1074 -488 756.655811245 -487.124734214 c 0,24,25
 439 -486 439 -486 265.5 -326.5 c 128,-1,26
 92 -167 92 -167 91.90234375 139.111328125 c 0,27,28
 92 311 92 311 186.315429688 586.442382812 c 1,29,-1
 434 509.225585938 l 1,30,31
 367 312 367 312 366.5 165.5 c 0,32,33
 366 2 366 2 464 -82 c 128,-1,34
 562 -166 562 -166 781 -166 c 128,-1,35
 1000 -166 1000 -166 1099.40039062 -84.4609375 c 128,-1,36
 1199 -3 1199 -3 1198.26074219 167.502929688 c 0,37,38
 1198.00072023 297.639535146 1198.00072023 297.639535146 1132.83398438 548.85546875 c 2,39,-1
 1119.46777344 600.381835938 l 1,40,-1
 1394.24804688 657.091796875 l 1,41,-1
 1404.49804688 602.35546875 l 2,42,43
 1436 434 1436 434 1440.73535156 424.233398438 c 1,44,45
 1779 901 1779 901 2094.12304688 901.103515625 c 4,46,47
 2288 901 2288 901 2390.27734375 784.541015625 c 4,48,49
 2489 673 2489 673 2487.40136719 459.204101562 c 0,50,51
 2487 421 2487 421 2471.95019531 359.936523438 c 1,52,53
 2512.83816802 326.133789062 2512.83816802 326.133789062 2655.53417969 326.133789062 c 2,54,-1
 2681.75585938 326.133789062 l 1,55,-1
 2681.75585938 -6 l 1,56,-1
 2627.87304688 -6 l 2,9,10
EndSplineSet
EndChar

StartChar: uniFEBB
Encoding: 65211 65211 200
Width: 1645
VWidth: 2393
GlyphClass: 2
Flags: W
AnchorPoint: "Anchor-10" 629.482 1132.67 basechar 0
AnchorPoint: "Anchor-7" 607.643 -245.479 basechar 0
LayerCount: 2
Fore
SplineSet
729.129882812 320.618164062 m 1,0,-1
 848.515625 320.618164062 l 2,1,2
 1007.47265625 320.262695312 1007.47265625 320.262695312 1102.36425781 329.087890625 c 0,3,4
 1286.47265625 345.262695312 1286.47265625 345.262695312 1286.91503906 476.553710938 c 0,5,6
 1287.47265625 625.262695312 1287.47265625 625.262695312 1159.37304688 624.971679688 c 0,7,8
 973.47265625 625.262695312 973.47265625 625.262695312 729.129882812 320.618164062 c 1,0,-1
512.78515625 427.129882812 m 1,9,10
 851 901 851 901 1160.38085938 901.103515625 c 0,11,12
 1355 901 1355 901 1453.21777344 786.399414062 c 0,13,14
 1551 672 1551 672 1547.64746094 455.448242188 c 0,15,16
 1543 193 1543 193 1337.10839844 81.0224609375 c 0,17,18
 1184.81467632 -1.09993336751 1184.81467632 -1.09993336751 819.232421875 -0.828125 c 2,19,-1
 817.918945312 -0.8271484375 l 2,20,21
 814.199457821 -0.881089386771 814.199457821 -0.881089386771 794.627929688 -0.7353515625 c 2,22,-1
 695.61328125 0.001953125 l 2,23,24
 500 1 500 1 385.149414062 143.032226562 c 1,25,26
 256 0 256 0 63.4609375 0 c 2,27,-1
 -13.6220703125 0 l 1,28,-1
 -13.6220703125 320.243164062 l 1,29,-1
 34.2099609375 320.243164062 l 2,30,31
 218.319431057 319.999577376 218.319431057 319.999577376 238.55078125 461.444335938 c 2,32,-1
 267.27734375 662.282226562 l 1,33,-1
 469.95703125 662.282226562 l 1,34,-1
 494.749023438 506.793945312 l 2,35,36
 505 445 505 445 512.78515625 427.129882812 c 1,9,10
EndSplineSet
EndChar

StartChar: uniFEBC
Encoding: 65212 65212 201
Width: 1730
VWidth: 2393
GlyphClass: 2
Flags: W
AnchorPoint: "Anchor-10" 684.328 1163.16 basechar 0
AnchorPoint: "Anchor-7" 695.919 -280.622 basechar 0
LayerCount: 2
Fore
SplineSet
729.129882812 321.618164062 m 1,0,-1
 848.559570312 321.618164062 l 2,1,2
 993 322 993 322 1099.07226562 330.0703125 c 0,3,4
 1287 346 1287 346 1286.93554688 491.467773438 c 0,5,6
 1287 558 1287 558 1254.41503906 592.125976562 c 0,7,8
 1222 626 1222 626 1147.67578125 625.96875 c 0,9,10
 974 626 974 626 729.129882812 321.618164062 c 1,0,-1
1531.0625 364.087890625 m 1,11,12
 1589.42807726 320.681640625 1589.42807726 320.681640625 1717.29296875 320.681640625 c 2,13,-1
 1740.51464844 320.681640625 l 1,14,-1
 1740.51464844 0.5498046875 l 1,15,-1
 1693.74023438 0.5498046875 l 2,16,17
 1493 1 1493 1 1385.1953125 112.020507812 c 1,18,19
 1230.81497012 -1.13562131828 1230.81497012 -1.13562131828 817.232421875 -0.828125 c 2,20,-1
 815.918945312 -0.8271484375 l 1,21,22
 812 1 812 1 809.713373432 0.077225112476 c 128,-1,23
 807.389731929 -0.845274146276 807.389731929 -0.845274146276 792.627929688 -0.7353515625 c 2,24,-1
 693.61328125 0.001953125 l 2,25,26
 498 1 498 1 383.177734375 142.998046875 c 1,27,28
 254 0 254 0 64.4609375 0 c 2,29,-1
 -13.6220703125 0 l 1,30,-1
 -13.6220703125 320.243164062 l 1,31,-1
 33.208984375 320.243164062 l 2,32,33
 221.994990045 320.000006453 221.994990045 320.000006453 239.48046875 459.791015625 c 2,34,-1
 264.68359375 661.282226562 l 1,35,-1
 467.95703125 661.282226562 l 1,36,-1
 490.749023438 506.793945312 l 2,37,38
 499 452 499 452 510.78515625 428.129882812 c 1,39,40
 852 906 852 906 1158.38085938 902.103515625 c 4,41,42
 1166 902 1166 902 1172.96875 901.939453125 c 4,43,44
 1360 898 1360 898 1455.5 784.5 c 132,-1,45
 1551 671 1551 671 1545.640625 476.138671875 c 0,46,47
 1544 416 1544 416 1531.0625 364.087890625 c 1,11,12
EndSplineSet
EndChar

StartChar: uniFEC2
Encoding: 65218 65218 207
Width: 1571
VWidth: 2393
GlyphClass: 2
Flags: W
AnchorPoint: "Anchor-7" 661.701 -240.714 basechar 0
AnchorPoint: "Anchor-10" 422.876 1665.38 basechar 0
LayerCount: 2
Fore
SplineSet
583.657226562 320.35546875 m 1,0,-1
 703.04296875 320.35546875 l 2,1,2
 862 320 862 320 956.891601562 328.825195312 c 0,3,4
 1141 345 1141 345 1141.44238281 476.291015625 c 0,5,6
 1142 625 1142 625 1013.90039062 624.708984375 c 0,7,8
 828 625 828 625 583.657226562 320.35546875 c 1,0,-1
577.616210938 690.068359375 m 1,9,10
 793 902 793 902 1004.74414062 901.959960938 c 0,11,12
 1207 902 1207 902 1306.16894531 786.189453125 c 0,13,14
 1406 670 1406 670 1400.13671875 475.62109375 c 0,15,16
 1398 406 1398 406 1386.88183594 359.352539062 c 1,17,18
 1427.3330156 320.681640625 1427.3330156 320.681640625 1552.41894531 320.681640625 c 2,19,-1
 1580.98730469 320.681640625 l 1,20,-1
 1580.98730469 0.5498046875 l 1,21,-1
 1487.71777344 0.5498046875 l 2,22,23
 1336 1 1336 1 1232.46289062 97.8330078125 c 1,24,25
 1078 0 1078 0 653.94921875 0 c 2,26,-1
 97.7392578125 0 l 1,27,-1
 97.7392578125 320.102539062 l 1,28,-1
 273.529296875 320.248046875 l 1,29,30
 275 323 275 323 294.662109375 364.032226562 c 1,31,-1
 294.662109375 1503.81542969 l 1,32,-1
 577.616210938 1503.81542969 l 1,33,-1
 577.616210938 690.068359375 l 1,9,10
EndSplineSet
EndChar

StartChar: uniFEC3
Encoding: 65219 65219 208
Width: 1382
VWidth: 2438
GlyphClass: 2
Flags: W
AnchorPoint: "Anchor-10" 308.745 1675.08 basechar 0
AnchorPoint: "Anchor-7" 488.394 -235.622 basechar 0
LayerCount: 2
Fore
SplineSet
467.778320312 322.35546875 m 1,0,-1
 587.1640625 322.35546875 l 2,1,2
 746 322 746 322 841.012695312 330.825195312 c 0,3,4
 1025 347 1025 347 1025.56347656 478.291015625 c 0,5,6
 1026 627 1026 627 898.021484375 626.708984375 c 0,7,8
 712 627 712 627 467.778320312 322.35546875 c 1,0,-1
461.737304688 690.884765625 m 1,9,10
 677 900 677 900 888.350585938 898.723632812 c 4,11,12
 1090 897 1090 897 1189.12109375 784.5 c 4,13,14
 1287 673 1287 673 1284.26855469 477.108398438 c 0,15,16
 1280 185 1280 185 1081.69921875 78.412109375 c 0,17,18
 936 0 936 0 546.62109375 0 c 2,19,-1
 -15.1396484375 0 l 1,20,-1
 -15.1396484375 320.102539062 l 1,21,-1
 157.650390625 320.248046875 l 1,22,23
 167 343 167 343 178.783203125 363.032226562 c 1,24,-1
 178.783203125 1503.81542969 l 1,25,-1
 461.737304688 1503.81542969 l 1,26,-1
 461.737304688 690.884765625 l 1,9,10
EndSplineSet
EndChar

StartChar: uniFEC4
Encoding: 65220 65220 209
Width: 1454
VWidth: 2438
GlyphClass: 2
Flags: W
AnchorPoint: "Anchor-10" 326.112 1672.67 basechar 0
AnchorPoint: "Anchor-7" 569.839 -253.193 basechar 0
LayerCount: 2
Fore
SplineSet
467.57421875 322.353515625 m 1,0,-1
 586.959960938 322.353515625 l 2,1,2
 745.916992188 321.998046875 745.916992188 321.998046875 840.80859375 330.823242188 c 0,3,4
 1024.91699219 346.998046875 1024.91699219 346.998046875 1025.359375 478.2890625 c 0,5,6
 1025.91699219 626.998046875 1025.91699219 626.998046875 897.817382812 626.70703125 c 0,7,8
 711.916992188 626.998046875 711.916992188 626.998046875 467.57421875 322.353515625 c 1,0,-1
461.533203125 691.06640625 m 1,9,10
 677 903 677 903 888.661132812 902.958007812 c 0,11,12
 1091 903 1091 903 1190.0859375 787.1875 c 0,13,14
 1291 670 1291 670 1284.05371094 476.619140625 c 0,15,16
 1282 417 1282 417 1269.79882812 365.350585938 c 1,17,18
 1316.33367796 320.6796875 1316.33367796 320.6796875 1436.3359375 320.6796875 c 2,19,-1
 1464.90429688 320.6796875 l 1,20,-1
 1464.90429688 0.5478515625 l 1,21,-1
 1371.63476562 0.5478515625 l 2,22,23
 1220 1 1220 1 1116.37988281 97.8310546875 c 1,24,25
 961.996917919 -0.001953125 961.996917919 -0.001953125 537.866210938 -0.001953125 c 2,26,-1
 -15.34375 -0.001953125 l 1,27,-1
 -15.34375 320.100585938 l 1,28,-1
 157.446289062 320.24609375 l 1,29,30
 168 343 168 343 178.579101562 365.030273438 c 1,31,-1
 178.579101562 1503.81347656 l 1,32,-1
 461.533203125 1503.81347656 l 1,33,-1
 461.533203125 691.06640625 l 1,9,10
EndSplineSet
EndChar

StartChar: uniFECA
Encoding: 65226 65226 215
Width: 1264
VWidth: 2393
GlyphClass: 2
Flags: W
AnchorPoint: "Anchor-10" 760.28 1252.35 basechar 0
AnchorPoint: "Anchor-7" 560.435 -706.551 basechar 0
LayerCount: 2
Fore
SplineSet
714.409179688 651.1015625 m 1,0,1
 813 687 813 687 876.071289062 742.96484375 c 1,2,3
 847.376953125 755.379882812 847.376953125 755.379882812 766.518554688 756.133789062 c 128,-1,4
 685.66015625 756.887695312 685.66015625 756.887695312 656.157226562 740.350585938 c 1,5,6
 667.754882812 708.22265625 667.754882812 708.22265625 714.409179688 651.1015625 c 1,0,1
838.862304688 457.055664062 m 1,7,8
 939.2343142 320.681640625 939.2343142 320.681640625 1236.79882812 320.681640625 c 2,9,-1
 1279.86816406 320.681640625 l 1,10,-1
 1279.86816406 0.5498046875 l 1,11,-1
 1255.59863281 0.5498046875 l 2,12,13
 844 1 844 1 619.579101562 329.836914062 c 5,14,15
 362 201 362 201 361.999023438 13.890625 c 0,16,17
 362 -227 362 -227 779.872070312 -229.994140625 c 0,18,19
 979 -231 979 -231 1116.11425781 -182.955078125 c 1,20,-1
 1183.07617188 -482.083984375 l 1,21,22
 1021 -550 1021 -550 804.178710938 -547.564453125 c 0,23,24
 451 -544 451 -544 273.767578125 -384.344726562 c 0,25,26
 75 -205 75 -205 98.1279296875 37.90625 c 0,27,28
 128 363 128 363 489.178710938 541.083984375 c 1,29,30
 299 755 299 755 440.077148438 893.517578125 c 0,31,32
 559 1010 559 1010 767.615234375 1010.52832031 c 0,33,34
 942 1011 942 1011 1072.44238281 913.487304688 c 0,35,36
 1157 850 1157 850 1159.70019531 768.3125 c 0,37,38
 1164 668 1164 668 1052 585.397460938 c 0,39,40
 987 538 987 538 838.862304688 457.055664062 c 1,7,8
EndSplineSet
EndChar

StartChar: uniFECB
Encoding: 65227 65227 216
Width: 1133
VWidth: 2438
GlyphClass: 2
Flags: W
AnchorPoint: "Anchor-10" 466.469 1274.59 basechar 0
AnchorPoint: "Anchor-7" 432.792 -246.055 basechar 0
LayerCount: 2
Fore
SplineSet
556.431640625 721.192382812 m 4,0,1
 433 702 433 702 394.533203125 608.077148438 c 0,2,3
 384 582 384 582 383.104492188 548.951171875 c 0,4,5
 381 475 381 475 435 429.5 c 128,-1,6
 489 384 489 384 614.034179688 355.14453125 c 1,7,-1
 1035.56542969 444.954101562 l 1,8,-1
 1035.56542969 120.162109375 l 1,9,-1
 997.505859375 111.220703125 l 2,10,11
 603 23 603 23 567.452166525 13.9879865777 c 0,12,13
 511.904751 -0.0240268652823 511.904751 -0.0240268652823 382.00390625 -0.017578125 c 2,14,-1
 -11.42578125 0.001953125 l 1,15,-1
 -11.42578125 320.23828125 l 1,16,-1
 201.500976562 320.267578125 l 1,17,18
 125 414 125 414 122.32421875 534.883789062 c 0,19,20
 118 772 118 772 312.01171875 903.580078125 c 0,21,22
 474 1013 474 1013 694.5078125 972.348632812 c 0,23,24
 849.8382336 944.029492519 849.8382336 944.029492519 941.864257812 839.064453125 c 2,25,-1
 960.853515625 817.405273438 l 1,26,-1
 869.33984375 621.918945312 l 1,27,28
 710 744 710 744 556.431640625 721.192382812 c 4,0,1
EndSplineSet
EndChar

StartChar: uniFECC
Encoding: 65228 65228 217
Width: 1023
VWidth: 2438
GlyphClass: 2
Flags: W
AnchorPoint: "Anchor-10" 510.221 1208.02 basechar 0
AnchorPoint: "Anchor-7" 493.747 -246.055 basechar 0
LayerCount: 2
Fore
SplineSet
647.606445312 648.333984375 m 5,0,1
 608.548828125 664.0859375 608.548828125 664.0859375 523.995117188 664.0859375 c 132,-1,2
 439.440429688 664.0859375 439.440429688 664.0859375 400.3828125 648.333984375 c 5,3,4
 435.7421875 609.373046875 435.7421875 609.373046875 523.995117188 544.934570312 c 5,5,6
 612.251953125 609.377929688 612.251953125 609.377929688 647.606445312 648.333984375 c 5,0,1
971.284179688 0.5498046875 m 1,7,8
 695 3 695 3 511.340820312 165.080078125 c 1,9,10
 317 0 317 0 44.8740234375 0 c 2,11,-1
 -10.2451171875 0 l 1,12,-1
 -10.2451171875 320.243164062 l 5,13,-1
 19.041015625 320.243164062 l 6,14,15
 237 320 237 320 349.029296875 416.40625 c 5,16,17
 155 520 155 520 108.841796875 594.998046875 c 4,18,19
 95 618 95 618 95.25390625 641.635742188 c 4,20,21
 95 769 95 769 279.422851562 854.907226562 c 4,22,23
 419 920 419 920 606.209960938 898.686523438 c 4,24,25
 691 889 691 889 772.678710938 850.452148438 c 4,26,27
 854 812 854 812 906 758 c 132,-1,28
 958 704 958 704 945 642.5 c 132,-1,29
 932 581 932 581 869.071289062 530.032226562 c 132,-1,30
 806 479 806 479 686.458007812 414.543945312 c 5,31,32
 795.516640061 315.439243019 795.516640061 315.439243019 1001.15820312 320.2421875 c 6,33,-1
 1036.78222656 321.07421875 l 5,34,-1
 1036.78222656 0.5498046875 l 1,35,-1
 1004.25390625 0.5244140625 l 1,36,-1
 973.740234375 0.5478515625 l 2,37,38
 974 1 974 1 972.826171875 0.5498046875 c 2,39,-1
 971.284179688 0.5498046875 l 1,7,8
EndSplineSet
EndChar

StartChar: uniFEDA
Encoding: 65242 65242 231
Width: 2074
VWidth: 2438
GlyphClass: 2
Flags: W
AnchorPoint: "Anchor-10" 682.503 1532 basechar 0
AnchorPoint: "Anchor-7" 903.25 -202.125 basechar 0
LayerCount: 2
Fore
SplineSet
801.0546875 875.872070312 m 2,0,1
 864.071289062 867.684570312 864.071289062 867.684570312 922.310546875 867.684570312 c 128,-1,2
 980.549804688 867.684570312 980.549804688 867.684570312 1035.796875 889.192382812 c 128,-1,3
 1091.04296875 910.700195312 1091.04296875 910.700195312 1091.04296875 940.48046875 c 128,-1,4
 1091.04296875 970.122070312 1091.04296875 970.122070312 1016.5078125 981.85546875 c 128,-1,5
 941.971679688 993.587890625 941.971679688 993.587890625 897.586914062 1042.22460938 c 128,-1,6
 853.203125 1090.86035156 853.203125 1090.86035156 854.685546875 1155.43652344 c 0,7,8
 857.452148438 1275.8984375 857.452148438 1275.8984375 955.352539062 1325.46972656 c 128,-1,9
 1053.25292969 1375.04101562 1053.25292969 1375.04101562 1179.453125 1383.54199219 c 2,10,-1
 1227.47753906 1386.77636719 l 1,11,-1
 1227.47753906 1243.21484375 l 1,12,-1
 1185.88671875 1240.0546875 l 2,13,14
 1024.58691406 1227.74804688 1024.58691406 1227.74804688 1001.89355469 1174.29492188 c 24,15,16
 991 1148 991 1148 1014.85644531 1128.04785156 c 0,17,18
 1026.87304688 1117.9375 1026.87304688 1117.9375 1070.16894531 1111.5703125 c 128,-1,19
 1113.46484375 1105.203125 1113.46484375 1105.203125 1146.92578125 1095.08691406 c 128,-1,20
 1180.38769531 1084.97070312 1180.38769531 1084.97070312 1209.02832031 1049.13671875 c 128,-1,21
 1237.66992188 1013.30175781 1237.66992188 1013.30175781 1237.66992188 956.365234375 c 128,-1,22
 1237.66992188 899.428710938 1237.66992188 899.428710938 1204.16210938 847.348632812 c 128,-1,23
 1170.65527344 795.267578125 1170.65527344 795.267578125 1109.0703125 760.440429688 c 0,24,25
 989.517578125 692.83203125 989.517578125 692.83203125 787.958007812 725.96484375 c 2,26,-1
 750.256835938 732.162109375 l 1,27,-1
 750.256835938 882.471679688 l 1,28,-1
 801.0546875 875.872070312 l 2,0,1
1875 360 m 5,29,30
 1919.35917468 320.681640625 1919.35917468 320.681640625 2026.04589844 320.681640625 c 6,31,-1
 2092.74316406 320.681640625 l 5,32,-1
 2092.74316406 0.5498046875 l 5,33,-1
 2023.4140625 0.5498046875 l 6,34,35
 1830 1 1830 1 1698.02539062 112.119140625 c 5,36,37
 1539 29 1539 29 1283 10 c 128,-1,38
 1027 -9 1027 -9 817.174804688 9.060546875 c 0,39,40
 608 27 608 27 503.446289062 56.078125 c 128,-1,41
 399 85 399 85 309.338867188 150.616210938 c 0,42,43
 126 284 126 284 99.0556640625 535.688476562 c 0,44,45
 85.0086478495 671.916133344 85.0086478495 671.916133344 138.439453125 823.259765625 c 2,46,-1
 151.389648438 859.94140625 l 1,47,-1
 405.438476562 809.969726562 l 1,48,49
 339 607 339 607 402.159179688 495.196289062 c 0,50,51
 486 346 486 346 762.34375 320.05078125 c 0,52,53
 1043 293 1043 293 1295.11035156 320.4765625 c 0,54,55
 1440 336 1440 336 1520.02148438 386.112304688 c 0,56,57
 1599.72790631 436.826875748 1599.72790631 436.826875748 1606.41894531 515.080078125 c 2,58,-1
 1610.48828125 562.671875 l 1,59,-1
 1610.48828125 1504.27050781 l 1,60,-1
 1891.82421875 1504.27050781 l 5,61,-1
 1891.82421875 490.111328125 l 6,62,63
 1892 398 1892 398 1875 360 c 5,29,30
EndSplineSet
EndChar

StartChar: uniFEDB
Encoding: 65243 65243 232
Width: 913
VWidth: 2438
GlyphClass: 2
Flags: W
AnchorPoint: "Anchor-10" 256.26 1585.73 basechar 0
AnchorPoint: "Anchor-7" 385.043 -209.264 basechar 0
LayerCount: 2
Fore
SplineSet
749.05078125 178.662109375 m 1,0,1
 636 0 636 0 347.633789062 0 c 2,2,-1
 -10.1650390625 0 l 1,3,-1
 -10.1650390625 320.239257812 l 1,4,-1
 302.264648438 320.26953125 l 2,5,6
 487 320 487 320 536.640625 371.1875 c 0,7,8
 565 400 565 400 556.638671875 449.756835938 c 0,9,10
 546 517 546 517 430.76953125 624.6875 c 0,11,12
 318 731 318 731 105.733398438 855.579101562 c 0,13,14
 1 917 1 917 0.7578125 1061.60253906 c 0,15,16
 1.00016012434 1210.09811425 1.00016012434 1210.09811425 145.31640625 1276.50292969 c 2,17,-1
 862 1606.2734375 l 5,18,-1
 862 1328 l 5,19,-1
 283.469726562 1068.41992188 l 1,20,21
 570 859 570 859 640.000976562 783.385742188 c 0,22,23
 927 472 927 472 749.05078125 178.662109375 c 1,0,1
EndSplineSet
EndChar

StartChar: uniFEDC
Encoding: 65244 65244 233
Width: 1009
VWidth: 2438
GlyphClass: 2
Flags: W
AnchorPoint: "Anchor-10" 266.046 1554.97 basechar 0
AnchorPoint: "Anchor-7" 402.615 -281.748 basechar 0
LayerCount: 2
Fore
SplineSet
705.388671875 121.485351562 m 1,0,1
 576 0 576 0 348.633789062 0 c 2,2,-1
 -10.1650390625 0 l 1,3,-1
 -10.1650390625 320.239257812 l 1,4,-1
 303.26171875 320.26953125 l 1,5,6
 485 319 485 319 536.7265625 370.782226562 c 0,7,8
 565 399 565 399 557.599609375 441.994140625 c 0,9,10
 532 605 532 605 106.831054688 855.520507812 c 0,11,12
 2 917 2 917 2.1787109375 1061.77636719 c 0,13,14
 1.99975067757 1210.20678912 1.99975067757 1210.20678912 146.31640625 1276.50292969 c 2,15,-1
 862 1605.2734375 l 5,16,-1
 862 1327 l 5,17,-1
 284.397460938 1068.38476562 l 1,18,19
 575 856 575 856 635.903320312 789.3046875 c 0,20,21
 762.243281788 650.924138865 762.243281788 650.924138865 822.673828125 460.279296875 c 0,22,23
 844 393 844 393 888.079101562 355.139648438 c 0,24,25
 929.381595952 320.681640625 929.381595952 320.681640625 992.250976562 320.681640625 c 2,26,-1
 1025.75976562 320.681640625 l 1,27,-1
 1025.75976562 0.5498046875 l 1,28,-1
 1000.296875 0.5498046875 l 2,29,30
 802 1 802 1 705.388671875 121.485351562 c 1,0,1
EndSplineSet
EndChar

StartChar: uniFEDE
Encoding: 65246 65246 235
Width: 1554
VWidth: 2438
GlyphClass: 2
Flags: W
AnchorPoint: "Anchor-10" 532.594 1010.33 basechar 0
AnchorPoint: "Anchor-7" 437.969 -723.57 basechar 0
LayerCount: 2
Fore
SplineSet
1531.12402344 0.5498046875 m 2,0,1
 1445.15134751 0.5498046875 1445.15134751 0.5498046875 1340.62597656 41.4208984375 c 1,2,3
 1318 -204 1318 -204 1183.58203125 -348.885742188 c 0,4,5
 1025 -520 1025 -520 721.263671875 -519.482421875 c 0,6,7
 441 -519 441 -519 269.346679688 -369.129882812 c 0,8,9
 98 -219 98 -219 98.3564453125 66.994140625 c 0,10,11
 99 214 99 214 162.232421875 383.127929688 c 1,12,-1
 399 318 l 5,13,14
 288 -71 288 -71 509.255859375 -172.74609375 c 0,15,16
 593 -211 593 -211 748.012695312 -210.504882812 c 0,17,18
 1063.39123135 -208.998130854 1063.39123135 -208.998130854 1062.90625 122.974609375 c 2,19,-1
 1062.43359375 446.510742188 l 1,20,-1
 1062.43359375 1503.08789062 l 1,21,-1
 1344.29003906 1503.08789062 l 1,22,-1
 1344.29003906 530.9921875 l 2,23,24
 1344 417 1344 417 1385.16992188 368.8125 c 128,-1,25
 1426.27186694 320.681640625 1426.27186694 320.681640625 1515.59863281 320.681640625 c 2,26,-1
 1567.13378906 320.681640625 l 1,27,-1
 1567.13378906 0.5498046875 l 1,28,-1
 1531.12402344 0.5498046875 l 2,0,1
EndSplineSet
EndChar

StartChar: uniFEDF
Encoding: 65247 65247 236
Width: 622
VWidth: 2438
GlyphClass: 2
Flags: W
AnchorPoint: "Anchor-10" 341.619 1677.34 basechar 0
AnchorPoint: "Anchor-7" 252.823 -227.385 basechar 0
LayerCount: 2
Fore
SplineSet
4.798828125 320.243164062 m 2,0,1
 206.811523438 320.243164062 206.811523438 320.243164062 206.811523438 585.022460938 c 2,2,-1
 206.811523438 1503.30664062 l 1,3,-1
 489.766601562 1503.30664062 l 1,4,-1
 489.766601562 570.921875 l 2,5,6
 490 261 490 261 366.3828125 130.284179688 c 0,7,8
 243 0 243 0 58.4013671875 -0 c 2,9,-1
 -13.6220703125 0 l 1,10,-1
 -13.6220703125 320.243164062 l 1,11,-1
 4.798828125 320.243164062 l 2,0,1
EndSplineSet
EndChar

StartChar: uniFEE0
Encoding: 65248 65248 237
Width: 737
VWidth: 2438
GlyphClass: 2
Flags: W
AnchorPoint: "Anchor-10" 391.605 1673.99 basechar 0
AnchorPoint: "Anchor-7" 267.674 -225.188 basechar 0
LayerCount: 2
Fore
SplineSet
650.83203125 0 m 6,0,1
 496 0 496 0 384.2265625 102.321289062 c 5,2,3
 269 0 269 0 88.62890625 0 c 6,4,-1
 -13.7529296875 0 l 5,5,-1
 -13.7529296875 320.243164062 l 5,6,-1
 23.998046875 320.243164062 l 6,7,8
 143 320 143 320 195.685546875 369.994140625 c 4,9,10
 248.012695312 420.012135078 248.012695312 420.012135078 248.012695312 530.967773438 c 6,11,-1
 248.012695312 1503.171875 l 5,12,-1
 530.967773438 1503.171875 l 5,13,-1
 530.967773438 530.959960938 l 6,14,15
 531 417 531 417 574.391601562 368.62109375 c 132,-1,16
 617.781905455 320.243164062 617.781905455 320.243164062 715.462890625 320.243164062 c 6,17,-1
 749.211914062 320.243164062 l 5,18,-1
 749.211914062 0 l 5,19,-1
 650.83203125 0 l 6,0,1
EndSplineSet
EndChar

StartChar: uniFEE2
Encoding: 65250 65250 239
Width: 1342
VWidth: 2171
GlyphClass: 2
Flags: W
AnchorPoint: "Anchor-10" 503.856 1209.66 basechar 0
AnchorPoint: "Anchor-7" 230.563 -607.646 basechar 0
LayerCount: 2
Fore
SplineSet
736.47265625 530.434570312 m 5,0,-1
 735.915039062 490.834960938 l 6,1,2
 733 267 733 267 836.706054688 256.521484375 c 4,3,4
 889.854492188 251.213867188 889.854492188 251.213867188 915.686523438 273.360351562 c 4,5,6
 947 300 947 300 957.001953125 359.7265625 c 4,7,8
 967 421 967 421 961.616210938 462.107421875 c 4,9,10
 955 516 955 516 908.15234375 527.51171875 c 4,11,12
 827 546 827 546 736.47265625 530.434570312 c 5,0,-1
97.6396484375 189.83984375 m 2,13,14
 97.6396484375 498.68796504 97.6396484375 498.68796504 269.172851562 647.221679688 c 0,15,16
 441 796 441 796 805.288085938 787.184570312 c 4,17,18
 970 783 970 783 1058.13671875 738.104492188 c 4,19,20
 1230 651 1230 651 1196.34472656 382.030273438 c 5,21,22
 1242.85181459 319.200195312 1242.85181459 319.200195312 1334.55957031 319.200195312 c 6,23,-1
 1351.3203125 319.200195312 l 5,24,-1
 1351.3203125 0 l 5,25,-1
 1333.51953125 0 l 6,26,27
 1217 0 1217 0 1106.98730469 79.673828125 c 5,28,29
 1008 -49 1008 -49 821.466796875 -42.6162109375 c 4,30,31
 718 -39 718 -39 641.209960938 15.5166015625 c 4,32,33
 479 132 479 132 497.360351562 478.809570312 c 5,34,35
 375.360351562 428.14963432 375.360351562 428.14963432 375.360351562 174.240234375 c 6,36,-1
 375.360351562 -510.440429688 l 5,37,-1
 97.6396484375 -510.440429688 l 1,38,-1
 97.6396484375 189.83984375 l 2,13,14
EndSplineSet
EndChar

StartChar: uniFEE3
Encoding: 65251 65251 240
Width: 984
VWidth: 2393
GlyphClass: 2
Flags: W
AnchorPoint: "Anchor-10" 411.291 1050.38 basechar 0
AnchorPoint: "Anchor-7" 417.881 -188.849 basechar 0
LayerCount: 2
Fore
SplineSet
261.147460938 78.79296875 m 1,0,1
 183 0 183 0 38.3056640625 0 c 2,2,-1
 -11.42578125 0 l 1,3,-1
 -11.42578125 320.243164062 l 1,4,-1
 34.818359375 320.241210938 l 1,5,6
 95.1925445407 318.974988876 95.1925445407 318.974988876 120.974609375 386.090820312 c 0,7,8
 197 584 197 584 307.5 703.5 c 0,9,10
 411 816 411 816 555 816 c 128,-1,11
 699 816 699 816 787.5 701 c 0,12,13
 878 583 878 583 893.880859375 384.298828125 c 0,14,15
 911 170 911 170 808.5 57 c 0,16,17
 718 -43 718 -43 581.543945312 -42.6572265625 c 4,18,19
 419 -43 419 -43 261.147460938 78.79296875 c 1,0,1
374.28515625 344.78125 m 1,20,21
 483 266 483 266 552 262 c 0,22,23
 597 259 597 259 623 284 c 0,24,25
 652 312 652 312 652 364 c 0,26,27
 652 476 652 476 600 529.5 c 0,28,29
 580 550 580 550 544 549.5 c 128,-1,30
 508 549 508 549 463 498 c 0,31,32
 411 439 411 439 374.28515625 344.78125 c 1,20,21
EndSplineSet
EndChar

StartChar: uniFEE4
Encoding: 65252 65252 241
Width: 1062
VWidth: 2393
GlyphClass: 2
Flags: W
AnchorPoint: "Anchor-10" 496.252 1162.44 basechar 0
AnchorPoint: "Anchor-7" 546.483 -208.715 basechar 0
LayerCount: 2
Fore
SplineSet
374.28515625 344.78125 m 1,0,1
 483 266 483 266 552 262 c 0,2,3
 597 259 597 259 623 284 c 0,4,5
 652 312 652 312 652 364 c 0,6,7
 652 476 652 476 600 529.5 c 0,8,9
 580 550 580 550 544 549.5 c 128,-1,10
 508 549 508 549 463 498 c 0,11,12
 411 439 411 439 374.28515625 344.78125 c 1,0,1
821.994140625 72.0546875 m 1,13,14
 815 64 815 64 808.5 57 c 0,15,16
 716 -43 716 -43 581.543945312 -42.6572265625 c 4,17,18
 419 -43 419 -43 261.147460938 78.79296875 c 1,19,20
 183 0 183 0 38.3056640625 0 c 2,21,-1
 -11.42578125 0 l 1,22,-1
 -11.42578125 320.243164062 l 1,23,-1
 34.818359375 320.241210938 l 1,24,25
 94 319 94 319 120.974609375 386.090820312 c 0,26,27
 203 590 203 590 307.5 703.5 c 0,28,29
 411 816 411 816 555 816 c 128,-1,30
 699 816 699 816 787.5 701 c 0,31,32
 849.616926503 620.915367483 849.616926503 620.915367483 877 484 c 24,33,34
 895 394 895 394 931.80859375 359.181640625 c 0,35,36
 972.61705811 320.364257812 972.61705811 320.364257812 1050.23046875 320.364257812 c 2,37,-1
 1077.23730469 320.364257812 l 1,38,-1
 1077.23730469 0.2919921875 l 1,39,-1
 1050.24707031 0.0009765625 l 2,40,41
 924 -1 924 -1 821.994140625 72.0546875 c 1,13,14
EndSplineSet
EndChar

StartChar: uniFEEA
Encoding: 65258 65258 247
Width: 1028
VWidth: 2438
GlyphClass: 2
Flags: W
AnchorPoint: "Anchor-10" 685.009 1232.95 basechar 0
AnchorPoint: "Anchor-7" 456.482 -244.264 basechar 0
LayerCount: 2
Fore
SplineSet
631.893554688 394.575195312 m 1,0,-1
 602.063476562 625.501953125 l 1,1,2
 461 597 461 597 399.116210938 557.83984375 c 0,3,4
 337 519 337 519 337.411132812 474.236328125 c 0,5,6
 338 429 338 429 381.036132812 416.0703125 c 0,7,8
 443 398 443 398 631.893554688 394.575195312 c 1,0,-1
1022.09472656 0 m 2,9,10
 799 0 799 0 695.555664062 155.3828125 c 1,11,12
 365 159 365 159 247.8125 210.838867188 c 0,13,14
 92 279 92 279 92.3935546875 447.04296875 c 0,15,16
 93 615 93 615 216.5 714 c 128,-1,17
 340 813 340 813 569.814453125 859.823242188 c 1,18,-1
 554.568359375 981.826171875 l 1,19,-1
 803.100585938 1014.65917969 l 1,20,-1
 861 520 l 2,21,22
 877 386 877 386 915 353.5 c 128,-1,23
 953 321 953 321 1038.00585938 320.178710938 c 1,24,-1
 1038.00585938 0 l 1,25,-1
 1022.09472656 0 l 2,9,10
EndSplineSet
EndChar

StartChar: uniFEEB
Encoding: 65259 65259 248
Width: 1340
VWidth: 2393
GlyphClass: 2
Flags: W
AnchorPoint: "Anchor-10" 451.683 1457.48 basechar 0
AnchorPoint: "Anchor-7" 324.843 -213.598 basechar 0
LayerCount: 2
Fore
SplineSet
456.747070312 352.854492188 m 1,0,1
 482 357 482 357 525.5 396 c 128,-1,2
 569 435 569 435 596.4765625 483.95703125 c 0,3,4
 643 567 643 567 619.155273438 638.29296875 c 0,5,6
 601 691 601 691 523.954101562 693.16796875 c 0,7,8
 446 695 446 695 398.822265625 628.1171875 c 0,9,10
 321 517 321 517 376.432617188 421.866210938 c 0,11,12
 406 371 406 371 456.747070312 352.854492188 c 1,0,1
835.86328125 615.111328125 m 1,13,14
 852 427 852 427 711.544921875 273.795898438 c 1,15,16
 779 252 779 252 809.1953125 247.37109375 c 0,17,18
 923.8671875 225.512695312 923.8671875 225.512695312 970 337 c 0,19,20
 1006 423 1006 423 929 515 c 0,21,22
 892 560 892 560 835.86328125 615.111328125 c 1,13,14
436.66796875 55.025390625 m 1,23,24
 259 0 259 0 44.01953125 0 c 2,25,-1
 -13.6220703125 0 l 1,26,-1
 -13.6220703125 320.279296875 l 5,27,-1
 154.608398438 319.744140625 l 1,28,29
 93 420 93 420 109.545898438 568.154296875 c 0,30,31
 126 715 126 715 228.87890625 813.334960938 c 0,32,33
 332 912 332 912 455.046875 919.522460938 c 1,34,-1
 437.755859375 932.163085938 l 1,35,-1
 592.384765625 1133.2265625 l 1,36,-1
 627.3203125 1110.1796875 l 2,37,38
 776 1012 776 1012 973.412109375 823.34375 c 0,39,40
 1180 626 1180 626 1219.37792969 474.252929688 c 0,41,42
 1254 338 1254 338 1208 220 c 0,43,44
 1139 41 1139 41 1008.50390625 -8.2451171875 c 0,45,46
 783 -92 783 -92 436.66796875 55.025390625 c 1,23,24
EndSplineSet
EndChar

StartChar: uniFEEC
Encoding: 65260 65260 249
Width: 1037
VWidth: 2438
GlyphClass: 2
Flags: W
AnchorPoint: "Anchor-7" 401.824 -573.907 basechar 0
AnchorPoint: "Anchor-10" 464.292 1178.37 basechar 0
LayerCount: 2
Fore
SplineSet
384.353515625 319.272460938 m 1,0,1
 461 323 461 323 521.286132812 375.970703125 c 0,2,3
 612 455 612 455 612.665039062 570.051757812 c 0,4,5
 613 633 613 633 593.5 657 c 128,-1,6
 574 681 574 681 540.790039062 681.953125 c 0,7,8
 483 683 483 683 440.084960938 597.630859375 c 0,9,10
 398 512 398 512 384.353515625 319.272460938 c 1,0,1
139.892578125 320.293945312 m 1,11,12
 179 928 179 928 542.018554688 925.73046875 c 0,13,14
 689 925 689 925 767 831.5 c 0,15,16
 860 720 860 720 835.73828125 521 c 0,17,18
 814 335 814 335 662.5546875 172.065429688 c 0,19,20
 533 32 533 32 389.338867188 4.1796875 c 1,21,22
 421 -126 421 -126 516.826171875 -196.204101562 c 1,23,24
 570 40 570 40 709.157226562 175.153320312 c 0,25,26
 854.079179108 315.076447966 854.079179108 315.076447966 1010.2578125 319.336914062 c 2,27,-1
 1047.2734375 320.346679688 l 1,28,-1
 1047.2734375 1.2548828125 l 1,29,-1
 1028.89941406 0.0087890625 l 6,30,31
 867 -11 867 -11 801.161899554 -97.2889211929 c 0,32,33
 729.32372433 -191.575118162 729.32372433 -191.575118162 734.983398438 -397.764648438 c 2,34,-1
 735.637695312 -421.6015625 l 1,35,-1
 578.1953125 -534.876953125 l 1,36,-1
 554.345703125 -523.837890625 l 2,37,38
 224 -371 224 -371 147.013671875 0 c 1,39,-1
 -12.537109375 0 l 1,40,-1
 -12.537109375 320.229492188 l 1,41,-1
 139.892578125 320.293945312 l 1,11,12
EndSplineSet
EndChar

StartChar: uniFEEE
Encoding: 65262 65262 251
Width: 935
VWidth: 2438
GlyphClass: 2
Flags: W
AnchorPoint: "Anchor-10" 470.484 1206.36 basechar 0
AnchorPoint: "Anchor-7" 491.917 -692.751 basechar 0
LayerCount: 2
Fore
SplineSet
590.682617188 308.459960938 m 1,0,1
 581 579 581 579 482.69140625 578.935546875 c 0,2,3
 438 579 438 579 399.826171875 524.822265625 c 4,4,5
 361 471 361 471 361.34765625 415.34765625 c 0,6,7
 361 358 361 358 393.419921875 333.149414062 c 0,8,9
 425 308 425 308 504.366210938 308.311523438 c 0,10,11
 577 308 577 308 590.682617188 308.459960938 c 1,0,1
552.352539062 -0.923828125 m 1,12,13
 278 -2 278 -2 178.8671875 136.78515625 c 0,14,15
 113 230 113 230 113.017578125 408.04296875 c 0,16,17
 113 539 113 539 195.5859375 674.58203125 c 0,18,19
 310 863 310 863 472 863.28515625 c 0,20,21
 662 864 662 864 774.965820312 639.135742188 c 0,22,23
 832 526 832 526 844.389648438 319.98046875 c 1,24,-1
 945.091796875 320.959960938 l 1,25,-1
 945.091796875 0.5498046875 l 1,26,-1
 832.375976562 0.5498046875 l 1,27,28
 787 -167 787 -167 643.087890625 -292.672851562 c 0,29,30
 492.252614359 -425.777081062 492.252614359 -425.777081062 157.768554688 -465.842773438 c 2,31,-1
 115.716796875 -470.879882812 l 1,32,-1
 69.23828125 -157.225585938 l 1,33,-1
 117.58203125 -152.231445312 l 2,34,35
 487 -114 487 -114 552.352539062 -0.923828125 c 1,12,13
EndSplineSet
EndChar

StartChar: uniFEF0
Encoding: 65264 65264 253
Width: 1573
VWidth: 2438
GlyphClass: 2
Flags: W
AnchorPoint: "Anchor-10" 663.537 647.71 basechar 0
AnchorPoint: "Anchor-7" 438.628 -694.555 basechar 0
LayerCount: 2
Fore
SplineSet
1483.88964844 0.5693359375 m 1,0,1
 1501 -36 1501 -36 1501.48144531 -78.1875 c 0,2,3
 1501 -279 1501 -279 1234.51171875 -406.185546875 c 0,4,5
 968 -533 968 -533 620.241210938 -500.228515625 c 0,6,7
 97 -451 97 -451 96.939453125 54.5078125 c 0,8,9
 97 221 97 221 189.5390625 463.526367188 c 1,10,-1
 432 388 l 5,11,12
 365 183 365 183 364.883789062 90.0625 c 0,13,14
 365 -201 365 -201 757.703125 -201.629882812 c 0,15,16
 1061 -202 1061 -202 1208.10644531 -71.7958984375 c 0,17,18
 1244 -40 1244 -40 1245 -21 c 0,19,20
 1246 -0 1246 -0 1224.47851562 0.552734375 c 1,21,-1
 1008.12695312 0.7607421875 l 1,22,23
 917 11 917 11 881.690429688 219.115234375 c 0,24,25
 873 270 873 270 905.869140625 302.7421875 c 0,26,27
 918 315 918 315 940.88671875 320.241210938 c 1,28,-1
 1588.29785156 320.709960938 l 1,29,-1
 1588.29785156 0.537109375 l 1,30,-1
 1483.88964844 0.5693359375 l 1,0,1
EndSplineSet
EndChar

StartChar: uniFEFB
Encoding: 65275 65275 264
Width: 1273
VWidth: 2393
GlyphClass: 3
Flags: W
AnchorPoint: "Anchor-9" 1081.31 1602.25 baselig 0
AnchorPoint: "Anchor-6" 1017.41 -141.723 baselig 0
AnchorPoint: "Anchor-6" 278.077 -200.479 baselig 1
AnchorPoint: "Anchor-9" 189.142 1451.94 baselig 1
LayerCount: 2
Fore
SplineSet
454.162109375 322.637695312 m 5,0,1
 329 800 329 800 100.946289062 1253.0546875 c 5,2,-1
 312.26953125 1381.51855469 l 5,3,4
 563 926 563 926 694.342773438 370.11328125 c 5,5,6
 868.889648438 446.951171875 868.889648438 446.951171875 872.19140625 665.729492188 c 2,7,-1
 884.831054688 1503.171875 l 1,8,-1
 1142.12109375 1503.171875 l 1,9,-1
 1142.00292969 1012.94433594 l 2,10,11
 1142 572 1142 572 1111.625 442.178710938 c 0,12,13
 1060 220 1060 220 883.653320312 108.872070312 c 0,14,15
 717 4 717 4 441.703125 0.0009765625 c 0,16,17
 361 -1 361 -1 349.666015625 -0.5 c 0,18,19
 252 0 252 0 166.369140625 17.4189453125 c 1,20,-1
 169.256835938 334.409179688 l 1,21,22
 313 309 313 309 454.162109375 322.637695312 c 5,0,1
EndSplineSet
LCarets2: 1 0
Ligature2: "'rlig' Required Ligatures in Arabic lookup 16 subtable" uniFEDF uniFE8E
EndChar

StartChar: uniFEFC
Encoding: 65276 65276 265
Width: 1416
VWidth: 2393
GlyphClass: 3
Flags: W
AnchorPoint: "Anchor-9" 1035.54 1616.61 baselig 0
AnchorPoint: "Anchor-6" 930.76 -166.981 baselig 0
AnchorPoint: "Anchor-6" 197.621 -225.737 baselig 1
AnchorPoint: "Anchor-9" 168.49 1502.8 baselig 1
LayerCount: 2
Fore
SplineSet
690 389 m 5,0,1
 810 458 810 458 858.983398438 637.180664062 c 4,2,3
 892.096679688 760.358398438 892.096679688 760.358398438 892.251953125 1055.26660156 c 6,4,-1
 892.48828125 1503.33691406 l 5,5,-1
 1150.32714844 1503.33691406 l 5,6,-1
 1150.32714844 785.950195312 l 6,7,8
 1150 494 1150 494 1241 396 c 4,9,10
 1311.296875 320.681640625 1311.296875 320.681640625 1401.98046875 320.681640625 c 6,11,-1
 1431.3671875 320.681640625 l 5,12,-1
 1431.3671875 0.5498046875 l 5,13,-1
 1371.39648438 0.5498046875 l 6,14,15
 1231 1 1231 1 1129.39160156 78.6650390625 c 4,16,17
 1034 153 1034 153 991.81640625 302.577148438 c 5,18,19
 961 251 961 251 915.655273438 203.038085938 c 4,20,21
 703 -20 703 -20 321.70703125 2.0712890625 c 4,22,23
 239 7 239 7 176 16.1943359375 c 5,24,-1
 176 334.973632812 l 5,25,26
 326 309 326 309 454.162109375 322.637695312 c 5,27,28
 329 800 329 800 100.946289062 1253.0546875 c 5,29,-1
 312.26953125 1381.51855469 l 5,30,31
 562 927 562 927 690 389 c 5,0,1
EndSplineSet
LCarets2: 1 0
Ligature2: "'rlig' Required Ligatures in Arabic lookup 16 subtable" uniFEE0 uniFE8E
EndChar

StartChar: arabic_dot
Encoding: 65536 -1 266
Width: 164
VWidth: 2245
GlyphClass: 2
Flags: W
LayerCount: 2
Fore
SplineSet
140.33535384 197.795284284 m 2,0,-1
 192.241573364 145.889063697 l 2,1,2
 250.495238458 87.5714860593 250.495238458 87.5714860593 190.889992815 27.9673625027 c 2,3,-1
 139.019954648 -23.901692222 l 2,4,5
 81.8981362621 -81.1831008087 81.8981362621 -81.1831008087 27.0943164537 -26.3782748902 c 2,6,-1
 -26.1064913645 26.8235214782 l 2,7,8
 -86.7781342964 87.7190183653 -86.7781342964 87.7190183653 -27.8098803138 146.685015621 c 2,9,-1
 23.2387867546 197.731677617 l 2,10,11
 82.0116044896 256.055633736 82.0116044896 256.055633736 140.33535384 197.795284284 c 2,0,-1
EndSplineSet
EndChar

StartChar: arabic_2dots
Encoding: 65537 -1 267
Width: 438
VWidth: 2245
GlyphClass: 2
Flags: W
LayerCount: 2
Fore
SplineSet
422.33535384 197.795284283 m 6,0,-1
 474.241589794 145.889047249 l 6,1,2
 502.877341115 117.180519843 502.877341115 117.180519843 502.513118504 87.2031379188 c 132,-1,3
 502.148895892 57.2257559946 502.148895892 57.2257559946 472.889992815 27.9673625027 c 6,4,-1
 421.019976959 -23.9016698481 l 6,5,6
 363.898478825 -81.1834812695 363.898478825 -81.1834812695 309.094316453 -26.3782748902 c 6,7,-1
 255.893506201 26.8235239221 l 6,8,9
 195.221478702 87.7194908252 195.221478702 87.7194908252 254.190119687 146.685015621 c 6,10,-1
 305.238786755 197.731677617 l 6,11,12
 364.01160449 256.055633736 364.01160449 256.055633736 422.33535384 197.795284283 c 6,0,-1
130.33535384 197.795284284 m 6,13,-1
 182.241573364 145.889063697 l 6,14,15
 240.495238458 87.5714860593 240.495238458 87.5714860593 180.889992815 27.9673625027 c 6,16,-1
 129.019954648 -23.901692222 l 6,17,18
 71.8981362621 -81.1831008087 71.8981362621 -81.1831008087 17.0943164537 -26.3782748902 c 6,19,-1
 -36.1064913645 26.8235214782 l 6,20,21
 -96.7781342964 87.7190183653 -96.7781342964 87.7190183653 -37.8098803138 146.685015621 c 6,22,-1
 13.2387867546 197.731677617 l 6,23,24
 72.0116044896 256.055633736 72.0116044896 256.055633736 130.33535384 197.795284284 c 6,13,-1
EndSplineSet
EndChar

StartChar: arabic_3dots
Encoding: 65538 -1 268
Width: 438
VWidth: 2245
GlyphClass: 2
Flags: W
LayerCount: 2
Fore
SplineSet
275.705471028 421.638057721 m 2,0,-1
 327.611706982 369.731820687 l 2,1,2
 385.865042678 311.41403051 385.865042678 311.41403051 326.260110002 251.81013594 c 2,3,-1
 274.390094146 199.94110359 l 2,4,5
 217.268596012 142.659292167 217.268596012 142.659292167 162.464433641 197.464498547 c 2,6,-1
 109.263623388 250.66629736 l 2,7,8
 48.5915958904 311.562264262 48.5915958904 311.562264262 107.560236874 370.527789059 c 2,9,-1
 158.608903942 421.574451054 l 2,10,11
 217.381721678 479.898407174 217.381721678 479.898407174 275.705471028 421.638057721 c 2,0,-1
421.33535384 181.795284284 m 2,12,-1
 473.241573364 129.889063697 l 2,13,14
 531.495238458 71.5714860593 531.495238458 71.5714860593 471.889992815 11.9673625027 c 2,15,-1
 420.019954648 -39.901692222 l 2,16,17
 362.898136263 -97.1831008087 362.898136263 -97.1831008087 308.094316453 -42.3782748902 c 2,18,-1
 254.893508636 10.8235214782 l 2,19,20
 194.221865704 71.7190183653 194.221865704 71.7190183653 253.190119687 130.685015621 c 2,21,-1
 304.238786755 181.731677617 l 2,22,23
 363.01160449 240.055633736 363.01160449 240.055633736 421.33535384 181.795284284 c 2,12,-1
130.33535384 181.795284284 m 2,24,-1
 182.241573364 129.889063697 l 2,25,26
 240.495238458 71.5714860593 240.495238458 71.5714860593 180.889992815 11.9673625027 c 2,27,-1
 129.019954648 -39.901692222 l 2,28,29
 71.8981362621 -97.1831008087 71.8981362621 -97.1831008087 17.0943164537 -42.3782748902 c 2,30,-1
 -36.1064913645 10.8235214782 l 2,31,32
 -96.7781342964 71.7190183653 -96.7781342964 71.7190183653 -37.8098803138 130.685015621 c 2,33,-1
 13.2387867546 181.731677617 l 2,34,35
 72.0116044896 240.055633736 72.0116044896 240.055633736 130.33535384 181.795284284 c 2,24,-1
EndSplineSet
EndChar

StartChar: arabic_3dots_a
Encoding: 65539 -1 269
Width: 438
VWidth: 2245
GlyphClass: 2
Flags: W
LayerCount: 2
Fore
SplineSet
275.70547101 -249.379268678 m 2,0,1
 256.638311094 -268.425701943 256.638311094 -268.425701943 236.956992173 -274.813781514 c 128,-1,2
 217.275673253 -281.201861085 217.275673253 -281.201861085 197.54433519 -274.787449459 c 128,-1,3
 177.812997127 -268.373037834 177.812997127 -268.373037834 158.595393124 -249.302203121 c 2,4,-1
 107.56026264 -198.269025762 l 2,5,6
 88.2525699701 -178.962353404 88.2525699701 -178.962353404 81.9820911621 -158.878845232 c 128,-1,7
 75.7116123541 -138.795337061 75.7116123541 -138.795337061 82.5807637385 -118.544848789 c 128,-1,8
 89.4499151229 -98.2943605167 89.4499151229 -98.2943605167 109.270097703 -78.4010219848 c 2,9,-1
 162.464432419 -25.205710707 l 2,10,11
 217.268592494 29.5994933765 217.268592494 29.5994933765 274.385110002 -27.6773234402 c 2,12,-1
 326.260112492 -79.5513493682 l 2,13,14
 385.865042138 -139.155240907 385.865042138 -139.155240907 327.609752656 -197.474987031 c 2,15,-1
 275.70547101 -249.379268678 l 2,0,1
422.339522529 -9.53232653317 m 2,16,17
 403.273683284 -28.6674763351 403.273683284 -28.6674763351 383.587203566 -35.0847827915 c 128,-1,18
 363.900723848 -41.502089248 363.900723848 -41.502089248 344.168497753 -35.0578984804 c 128,-1,19
 324.436271658 -28.6137077128 324.436271658 -28.6137077128 305.225275937 -9.45942968435 c 2,20,-1
 254.190119687 41.5737734406 l 2,21,22
 194.828523416 100.933097932 194.828523416 100.933097932 255.899980516 161.441751453 c 2,23,-1
 309.094316453 214.637063953 l 2,24,25
 363.759797382 269.30354845 363.759797382 269.30354845 421.014992815 212.165449997 c 2,26,-1
 472.889992815 160.29142656 l 2,27,28
 532.100606668 101.081927363 532.100606668 101.081927363 474.252575794 42.380726733 c 2,29,-1
 422.339522529 -9.53232653317 l 2,16,17
130.339522529 -9.53232653319 m 2,30,31
 72.0116472408 -68.0722427106 72.0116472408 -68.0722427106 13.2252759363 -9.45942968435 c 2,32,-1
 -37.8098803137 41.5737734406 l 2,33,34
 -97.1714765845 100.933097932 -97.1714765845 100.933097932 -36.1000194838 161.441751453 c 2,35,-1
 17.0943164537 214.637063953 l 2,36,37
 71.7597973813 269.30354845 71.7597973813 269.30354845 129.014992815 212.165449997 c 2,38,-1
 180.889992815 160.29142656 l 2,39,40
 240.100606668 101.081927363 240.100606668 101.081927363 182.252575794 42.380726733 c 2,41,-1
 130.339522529 -9.53232653319 l 2,30,31
EndSplineSet
EndChar

StartChar: uni066E.fina
Encoding: 65540 -1 270
Width: 2013
VWidth: 2438
GlyphClass: 2
Flags: W
AnchorPoint: "Anchor-10" 809.783 1208.02 basechar 0
AnchorPoint: "Anchor-7" 809.783 -153.254 basechar 0
LayerCount: 2
Fore
SplineSet
1975.04589844 0.5498046875 m 2,0,1
 1771.22812864 0.5498046875 1771.22812864 0.5498046875 1687.64941406 165.486328125 c 1,2,3
 1621 97 1621 97 1499 53 c 0,4,5
 1353 1 1353 1 946.94921875 2.3232421875 c 1,6,7
 672 2 672 2 520.444335938 45.3828125 c 0,8,9
 312 105 312 105 204.638671875 242.229492188 c 0,10,11
 31.9592864605 463.052064515 31.9592864605 463.052064515 138.137695312 827.908203125 c 2,12,-1
 149.95703125 868.522460938 l 1,13,-1
 398.734375 812.546875 l 1,14,-1
 387.377929688 767.736328125 l 2,15,16
 301 425 301 425 623.987304688 351.859375 c 0,17,18
 747 324 747 324 972.57421875 322.1171875 c 0,19,20
 1486 316 1486 316 1562.4921875 442.588867188 c 0,21,22
 1597.50990305 500.848332879 1597.50990305 500.848332879 1601.7265625 633.717773438 c 2,23,-1
 1603.109375 677.291015625 l 1,24,-1
 1830.06054688 677.291015625 l 1,25,-1
 1836.0703125 554.396484375 l 2,26,27
 1844 389 1844 389 1913 346 c 0,28,29
 1954.52210938 320.681640625 1954.52210938 320.681640625 2003.65429688 320.681640625 c 2,30,-1
 2028.56054688 320.681640625 l 1,31,-1
 2028.56054688 0.5498046875 l 1,32,-1
 1975.04589844 0.5498046875 l 2,0,1
EndSplineSet
EndChar

StartChar: uni06A1.fina
Encoding: 65543 -1 273
Width: 2142
VWidth: 2438
GlyphClass: 2
Flags: W
AnchorPoint: "Anchor-10" 701.174 1325.53 basechar 0
AnchorPoint: "Anchor-7" 601.233 -195.536 basechar 0
LayerCount: 2
Fore
SplineSet
1636.0234375 715.8515625 m 4,0,1
 1561.99023438 716.014648438 1561.99023438 716.014648438 1523.3359375 663.172851562 c 4,2,3
 1499.46289062 631.65234375 1499.46289062 631.65234375 1499.35351562 592.543945312 c 4,4,5
 1499.46289062 544.3125 1499.46289062 544.3125 1530.05859375 507.0625 c 4,6,7
 1596.72753906 427.197265625 1596.72753906 427.197265625 1644.40429688 427.029296875 c 4,8,9
 1692.0078125 427.197265625 1692.0078125 427.197265625 1739.47558594 505.870117188 c 4,10,11
 1767.4375 552.252929688 1767.4375 552.252929688 1767.88671875 588.735351562 c 4,12,13
 1768.4296875 627.682617188 1768.4296875 627.682617188 1748.84570312 658.638671875 c 4,14,15
 1714.83496094 716.014648438 1714.83496094 716.014648438 1636.0234375 715.8515625 c 4,0,1
1369.421875 330.798828125 m 5,16,17
 1253 443 1253 443 1253.19824219 595.729492188 c 4,18,19
 1253 835 1253 835 1472.20117188 929.154296875 c 4,20,21
 1538 957 1538 957 1641.33984375 959.225585938 c 4,22,23
 1742 961 1742 961 1825.78808594 915.182617188 c 4,24,25
 2012.39727444 812.878655416 2012.39727444 812.878655416 2013.09960938 593.340820312 c 4,26,27
 2014 444 2014 444 1893.74902344 329.28125 c 5,28,29
 1987.46955405 320.681640625 1987.46955405 320.681640625 2094.59277344 320.681640625 c 2,30,-1
 2152.59765625 320.681640625 l 1,31,-1
 2152.59765625 0.5498046875 l 1,32,-1
 2000.51269531 0.5498046875 l 2,33,34
 1817 1 1817 1 1614.61914062 103.38671875 c 1,35,36
 1503 46 1503 46 1361.80175781 23.0454101562 c 0,37,38
 1221 0 1221 0 947.340820312 0 c 0,39,40
 674 0 674 0 490.681152344 49.7875976562 c 0,41,42
 307 100 307 100 202.236134222 238.14751279 c 0,43,44
 97 377 97 377 96.0078125 593.786132812 c 0,45,46
 96.0000176333 703.751240418 96.0000176333 703.751240418 138.442382812 823.333984375 c 2,47,-1
 151.431640625 859.931640625 l 1,48,-1
 399.844726562 811.069335938 l 1,49,-1
 387.71484375 766.619140625 l 2,50,51
 366 687 366 687 366.864257812 616.559570312 c 0,52,53
 368 522 368 522 430.578125 447.907226562 c 0,54,55
 495 373 495 373 637.793945312 344.469726562 c 0,56,57
 781 316 781 316 1196.93164062 324.860351562 c 0,58,59
 1350 328 1350 328 1369.421875 330.798828125 c 5,16,17
EndSplineSet
EndChar

StartChar: uni06A1.init
Encoding: 65544 -1 274
Width: 902
VWidth: 2438
GlyphClass: 2
Flags: W
AnchorPoint: "Anchor-10" 405.049 1379.34 basechar 0
AnchorPoint: "Anchor-7" 377.594 -143.369 basechar 0
LayerCount: 2
Fore
SplineSet
-11.42578125 320.243164062 m 1,0,-1
 100.717773438 320.243164062 l 2,1,2
 385 320 385 320 440.583984375 338.162109375 c 4,3,4
 487 353 487 353 505.537109375 378.118164062 c 5,5,6
 239 355 239 355 132.728515625 493.2890625 c 0,7,8
 -0 667 -0 667 109.0390625 925.700195312 c 0,9,10
 220 1189 220 1189 429.479492188 1195.16699219 c 0,11,12
 629 1201 629 1201 738.673828125 936.0078125 c 0,13,14
 793 806 793 806 797.143554688 654.782226562 c 0,15,16
 808 286 808 286 636.633918827 141.409853985 c 0,17,18
 468 0 468 0 175.1875 0 c 2,19,-1
 -11.42578125 0 l 1,20,-1
 -11.42578125 320.243164062 l 1,0,-1
543.595703125 637.381835938 m 1,21,22
 528 912 528 912 427.805664062 909.545898438 c 0,23,24
 373 908 373 908 337.272460938 832.564453125 c 0,25,26
 303 759 303 759 313.37109375 699.569335938 c 0,27,28
 327 622 327 622 443.2109375 625.930664062 c 0,29,30
 477 627 477 627 543.595703125 637.381835938 c 1,21,22
EndSplineSet
EndChar

StartChar: uni06A1.medi
Encoding: 65545 -1 275
Width: 1070
VWidth: 2438
GlyphClass: 2
Flags: W
AnchorPoint: "Anchor-10" 535.245 1149.26 basechar 0
AnchorPoint: "Anchor-7" 535.245 -143.369 basechar 0
LayerCount: 2
Fore
SplineSet
539.717773438 715.165039062 m 4,0,1
 465.87109375 715.329101562 465.87109375 715.329101562 427.314453125 662.620117188 c 4,2,3
 403.500976562 631.178710938 403.500976562 631.178710938 403.392578125 592.168945312 c 4,4,5
 403.500976562 544.05859375 403.500976562 544.05859375 434.01953125 506.903320312 c 4,6,7
 500.521484375 427.239257812 500.521484375 427.239257812 548.078125 427.0703125 c 4,8,9
 595.561523438 427.239257812 595.561523438 427.239257812 642.91015625 505.713867188 c 4,10,11
 670.80078125 551.978515625 670.80078125 551.978515625 671.249023438 588.370117188 c 4,12,13
 671.791015625 627.21875 671.791015625 627.21875 652.255859375 658.09765625 c 4,14,15
 618.331054688 715.329101562 618.331054688 715.329101562 539.717773438 715.165039062 c 4,0,1
534.560546875 109.596679688 m 1,16,17
 356 0 356 0 203.345703125 0 c 2,18,-1
 -9.3515625 0 l 1,19,-1
 -9.3515625 321 l 1,20,-1
 52.55859375 321 l 2,21,22
 193 321 193 321 273.788085938 331.083007812 c 5,23,24
 158 443 158 443 157.857421875 595.346679688 c 4,25,26
 158.002513681 834.136984783 158.002513681 834.136984783 376.307617188 927.931640625 c 4,27,28
 442 956 442 956 545.020507812 957.926757812 c 4,29,30
 645.409763792 959.947851879 645.409763792 959.947851879 729.004882812 913.995117188 c 4,31,32
 916 811 916 811 915.844726562 592.962890625 c 4,33,34
 916 444 916 444 796.793945312 329.569335938 c 5,35,36
 887 321 887 321 1018.54980469 321 c 2,37,-1
 1080.41113281 321 l 1,38,-1
 1080.41113281 0 l 1,39,-1
 868.814453125 0 l 2,40,41
 703 0 703 0 534.560546875 109.596679688 c 1,16,17
EndSplineSet
EndChar

StartChar: uni066F.fina
Encoding: 65546 -1 276
Width: 1611
VWidth: 2393
GlyphClass: 2
Flags: W
AnchorPoint: "Anchor-10" 468.318 1031.75 basechar 0
AnchorPoint: "Anchor-7" 577.753 -605.531 basechar 0
LayerCount: 2
Fore
SplineSet
1250.94726562 322.376953125 m 1,0,1
 1242 593 1242 593 1142.95605469 592.852539062 c 0,2,3
 1098 593 1098 593 1059.09082031 538.739257812 c 0,4,5
 1022 486 1022 486 1021.61132812 429.264648438 c 0,6,7
 1022.34079283 321.789571204 1022.34079283 321.789571204 1155.13085937 322.228515625 c 0,8,9
 1238 322 1238 322 1250.94726562 322.376953125 c 1,0,1
1489.89160156 0.5498046875 m 1,10,11
 1453 -238 1453 -238 1282.67675781 -358.983398438 c 0,12,13
 1113 -480 1113 -480 804.293945312 -479.88671875 c 0,14,15
 317 -480 317 -480 168.888183594 -197.300292969 c 0,16,17
 21 85 21 85 190.263671875 579.456054688 c 1,18,-1
 428 509.225585938 l 5,19,20
 364 323 364 323 364 161 c 0,21,22
 365 -171 365 -171 807.186523438 -171.268554688 c 0,23,24
 1199 -171 1199 -171 1237.90039062 1.05078125 c 1,25,-1
 1134.4296875 1.16015625 l 1,26,27
 932 4 932 4 836.522460938 133.456054688 c 0,28,29
 693 329 693 329 823.145507812 613.366210938 c 0,30,31
 942 874 942 874 1133.83886719 873.967773438 c 0,32,33
 1489 874 1489 874 1504.17285156 320.94921875 c 1,34,-1
 1621.99902344 320.556640625 l 1,35,-1
 1621.99902344 0.5498046875 l 1,36,-1
 1489.89160156 0.5498046875 l 1,10,11
EndSplineSet
EndChar

StartChar: arabic_ring
Encoding: 65549 -1 279
Width: 452
VWidth: 2286
GlyphClass: 2
Flags: W
LayerCount: 2
Fore
SplineSet
232.2265625 348.141601562 m 0,0,1
 195 348 195 348 175.522460938 323 c 0,2,3
 161 304 161 304 160.46484375 278.866210938 c 4,4,5
 160 249 160 249 179.893554688 229.9609375 c 0,6,7
 199 211 199 211 230.994140625 210.763671875 c 0,8,9
 261 211 261 211 280.17578125 230.431640625 c 0,10,11
 300 250 300 250 299.84375 279.020019531 c 0,12,13
 300 316 300 316 277.5 333 c 0,14,15
 257 348 257 348 232.2265625 348.141601562 c 0,0,1
509.509765625 279.453125 m 128,-1,17
 509.509765625 162.811523438 509.509765625 162.811523438 428.8125 81.478515625 c 128,-1,18
 347.969726562 0 347.969726562 0 231.154296875 0 c 128,-1,19
 114.372070312 0 114.372070312 0 33.5126953125 81.49609375 c 128,-1,20
 -47.2001953125 162.844726562 -47.2001953125 162.844726562 -47.2001953125 279.453125 c 128,-1,21
 -47.2001953125 396.1640625 -47.2001953125 396.1640625 33.62109375 476.985351562 c 128,-1,22
 114.442382812 557.807617188 114.442382812 557.807617188 231.154296875 557.807617188 c 128,-1,23
 347.695930223 557.807617188 347.695930223 557.807617188 429.23828125 477.536132812 c 0,24,16
 509.509765625 395.989496816 509.509765625 395.989496816 509.509765625 279.453125 c 128,-1,17
EndSplineSet
EndChar

StartChar: arabic_gaf_bar
Encoding: 65550 -1 280
Width: 613
VWidth: 2241
GlyphClass: 2
Flags: W
LayerCount: 2
Fore
SplineSet
606 1782 m 1,0,-1
 -2.2001953125 1499.24511719 l 1,1,-1
 -2.2001953125 1632.02539062 l 5,2,-1
 606 1914.77929688 l 5,3,-1
 606 1782 l 1,0,-1
EndSplineSet
EndChar

StartChar: uni066E.init.math
Encoding: 65560 -1 290
Width: 934
VWidth: 2438
GlyphClass: 2
Flags: W
LayerCount: 2
Fore
SplineSet
653.862304688 118.850585938 m 0,0,1
 562.166992188 9.3349609375 562.166992188 9.3349609375 366.676757812 9.3349609375 c 2,2,-1
 -56.42578125 9.3349609375 l 1,3,-1
 -56.42578125 272.681640625 l 1,4,-1
 302.045898438 272.681640625 l 2,5,6
 303.942382812 272.681640625 303.942382812 272.681640625 305.822265625 272.696289062 c 128,-1,7
 307.702148438 272.7109375 307.702148438 272.7109375 309.557617188 272.739257812 c 128,-1,8
 311.413085938 272.768554688 311.413085938 272.768554688 313.249023438 272.811523438 c 128,-1,9
 315.083984375 272.85546875 315.083984375 272.85546875 316.897460938 272.913085938 c 128,-1,10
 318.7109375 272.970703125 318.7109375 272.970703125 320.5 273.041992188 c 128,-1,11
 322.2890625 273.114257812 322.2890625 273.114257812 324.05859375 273.200195312 c 0,12,13
 329.348632812 273.45703125 329.348632812 273.45703125 334.470703125 273.840820312 c 128,-1,14
 339.592773438 274.225585938 339.592773438 274.225585938 344.530273438 274.733398438 c 0,15,16
 354.310546875 275.741210938 354.310546875 275.741210938 363.44140625 277.2421875 c 128,-1,17
 372.42578125 278.71875 372.42578125 278.71875 380.783203125 280.673828125 c 2,18,-1
 396.565429688 284.970703125 l 2,19,20
 408.8046875 288.810546875 408.8046875 288.810546875 419.362304688 293.864257812 c 0,21,22
 429.514648438 298.723632812 429.514648438 298.723632812 438.14453125 304.73828125 c 0,23,24
 446.5 310.561523438 446.5 310.561523438 453.42578125 317.487304688 c 0,25,26
 504.10546875 368.165039062 504.10546875 368.165039062 504.10546875 482.967773438 c 2,27,-1
 504.10546875 761.530273438 l 1,28,-1
 767.453125 761.530273438 l 1,29,-1
 767.453125 482.911132812 l 2,30,31
 767.357421875 445.372070312 767.357421875 445.372070312 764.302734375 410.53125 c 128,-1,32
 761.248046875 375.690429688 761.248046875 375.690429688 755.080078125 342.861328125 c 128,-1,33
 748.912109375 310.033203125 748.912109375 310.033203125 739.627929688 279.717773438 c 0,34,35
 711.15234375 187.350585938 711.15234375 187.350585938 653.862304688 118.850585938 c 0,0,1
EndSplineSet
EndChar

StartChar: guillemotleft
Encoding: 171 171 291
Width: 1320
VWidth: 38
Flags: W
LayerCount: 2
Fore
SplineSet
1131.57714844 1105.97460938 m 1,0,-1
 1131.57714844 782.525390625 l 1,1,-1
 909.416015625 592.747070312 l 1,2,3
 864.667785234 552.594300184 864.667785234 552.594300184 873.886980173 527.071503388 c 128,-1,4
 883.106175112 501.548706592 883.106175112 501.548706592 913.799804688 474.036132812 c 1,5,-1
 1131.57714844 288.171875 l 1,6,-1
 1131.57714844 -35.283203125 l 1,7,-1
 753.889648438 288.795898438 l 2,8,9
 642.926208675 382.700935921 642.926208675 382.700935921 622.623260588 472.796268741 c 0,10,11
 585.142594698 639.118570955 585.142594698 639.118570955 756.203125 783.844726562 c 1,12,-1
 1131.57714844 1105.97460938 l 1,0,-1
672.689453125 1104.65429688 m 1,13,-1
 672.689453125 781.938476562 l 1,14,-1
 441.005859375 592.453125 l 1,15,16
 377.347441339 535.324968651 377.347441339 535.324968651 445.379882812 474.33984375 c 1,17,-1
 672.689453125 288.771484375 l 1,18,-1
 672.689453125 -33.9970703125 l 1,19,-1
 288.466796875 289.022460938 l 1,20,21
 97.5934834675 459.132067352 97.5934834675 459.132067352 179.134765625 640.434570312 c 0,22,23
 212.002929688 713.514648438 212.002929688 713.514648438 290.665039062 783.622070312 c 1,24,-1
 672.689453125 1104.65429688 l 1,13,-1
EndSplineSet
EndChar

StartChar: guillemotright
Encoding: 187 187 292
Width: 1311
VWidth: 38
Flags: W
LayerCount: 2
Fore
SplineSet
188.875976562 1105.97460938 m 1,0,-1
 564.249023438 783.845703125 l 1,1,2
 721.098523578 651.148548842 721.098523578 651.148548842 704.380859375 508.28515625 c 0,3,4
 691.019053396 394.094846802 691.019053396 394.094846802 566.5625 288.796875 c 1,5,-1
 188.875976562 -35.283203125 l 1,6,-1
 188.875976562 288.171875 l 1,7,-1
 406.662109375 474.043945312 l 1,8,9
 450.30854454 513.147588261 450.30854454 513.147588261 447.793140212 537.715698599 c 128,-1,10
 445.277735883 562.283808937 445.277735883 562.283808937 411.140625 592.658203125 c 2,11,-1
 188.875976562 782.525390625 l 1,12,-1
 188.875976562 1105.97460938 l 1,0,-1
647.763671875 1104.65429688 m 1,13,-1
 1029.78710938 783.623046875 l 1,14,15
 1308.36247806 535.348438232 1308.36247806 535.348438232 1031.98730469 289.0234375 c 1,16,-1
 647.763671875 -33.9970703125 l 1,17,-1
 647.763671875 288.771484375 l 1,18,-1
 875.069335938 474.3359375 l 1,19,20
 943.092977752 535.332605454 943.092977752 535.332605454 879.448242188 592.452148438 c 1,21,-1
 647.763671875 781.938476562 l 1,22,-1
 647.763671875 1104.65429688 l 1,13,-1
EndSplineSet
EndChar

StartChar: uniFDFC
Encoding: 65020 65020 301
Width: 2967
VWidth: 2393
Flags: W
LayerCount: 2
Fore
SplineSet
2067.31542969 261.697265625 m 2,0,-1
 2119.22167969 209.791015625 l 2,1,2
 2177.43359375 151.430664062 2177.43359375 151.430664062 2117.87011719 91.869140625 c 2,3,-1
 2066 40 l 2,4,5
 2008.87890625 -17.2822265625 2008.87890625 -17.2822265625 1954.07421875 37.5234375 c 2,6,-1
 1900.87304688 90.7255859375 l 2,7,8
 1840.20117188 151.62109375 1840.20117188 151.62109375 1899.16992188 210.586914062 c 2,9,-1
 1950.21875 261.633789062 l 2,10,11
 2008.99121094 319.95703125 2008.99121094 319.95703125 2067.31542969 261.697265625 c 2,0,-1
1775.31542969 261.697265625 m 2,12,-1
 1827.22167969 209.791015625 l 2,13,14
 1885.47558594 151.473632812 1885.47558594 151.473632812 1825.87011719 91.869140625 c 2,15,-1
 1774 40 l 2,16,17
 1716.87792969 -17.28125 1716.87792969 -17.28125 1662.07421875 37.5234375 c 2,18,-1
 1608.87304688 90.7255859375 l 2,19,20
 1548.20214844 151.62109375 1548.20214844 151.62109375 1607.16992188 210.586914062 c 2,21,-1
 1658.21875 261.633789062 l 2,22,23
 1716.99121094 319.95703125 1716.99121094 319.95703125 1775.31542969 261.697265625 c 2,12,-1
1826.93359375 345 m 2,24,-1
 1793.60839844 345 l 2,25,26
 1457.57876927 345 1457.57876927 345 1376.29296875 622.809570312 c 0,27,28
 1354.39257812 696.675900107 1354.39257812 696.675900107 1354.39257812 831.96875 c 2,29,-1
 1354.39257812 1458.24902344 l 1,30,-1
 1613.34765625 1458.24902344 l 1,31,-1
 1613.34765625 896.0234375 l 2,32,33
 1613 782 1613 782 1637.08007812 731.041992188 c 0,34,35
 1666.88639564 667.243164062 1666.88639564 667.243164062 1798.93359375 667.243164062 c 2,36,-1
 1835.92773438 667.243164062 l 2,37,38
 1969 667 1969 667 2013.59570312 703.578125 c 4,39,40
 2065.3272674 746.270080472 2065.3272674 746.270080472 1992.79394531 942.389648438 c 2,41,-1
 1977.94824219 982.530273438 l 1,42,-1
 2212.05957031 1082.73046875 l 1,43,-1
 2230.859375 1044.30273438 l 2,44,45
 2290 923 2290 923 2289.43164062 792.704101562 c 0,46,47
 2289 586 2289 586 2184.5 466 c 4,48,49
 2079 345 2079 345 1826.93359375 345 c 2,24,-1
2537.97949219 623.520507812 m 1,50,-1
 2778.97753906 717.416015625 l 1,51,52
 2844 573 2844 573 2844.4765625 373 c 0,53,54
 2845 -18 2845 -18 2525.48828125 -191.194335938 c 0,55,56
 2369.98052849 -275.010494831 2369.98052849 -275.010494831 2144.5390625 -298.80859375 c 2,57,-1
 2102.94628906 -303.19921875 l 1,58,-1
 2057.0859375 -48.7158203125 l 1,59,-1
 2106.12207031 -44.3603515625 l 2,60,61
 2354 -22 2354 -22 2469.73632812 81.0283203125 c 0,62,63
 2586 184 2586 184 2586.44335938 375.333984375 c 0,64,65
 2587 489 2587 489 2537.97949219 623.520507812 c 1,50,-1
479.065429688 200.669921875 m 0,66,67
 546 170 546 170 647.5 169.5 c 128,-1,68
 749 169 749 169 811.137695312 203.083984375 c 0,69,70
 935 271 935 271 937.76171875 448.813476562 c 0,71,72
 938 468 938 468 940.190429688 738.659179688 c 1,73,-1
 940.190429688 1458.19140625 l 1,74,-1
 1198.04589844 1458.19140625 l 1,75,-1
 1198.04589844 738.483398438 l 2,76,77
 1198 493 1198 493 1195.5 422.5 c 0,78,79
 1185 169 1185 169 1055.05664062 25.962890625 c 0,80,81
 903 -142 903 -142 635.393554688 -141.479492188 c 0,82,83
 407 -141 407 -141 262.926757812 -16.603515625 c 0,84,85
 99 124 99 124 98.9619140625 407.14453125 c 0,86,87
 99 597 99 597 168.737304688 771.557617188 c 1,88,-1
 400.143554688 720.658203125 l 1,89,90
 355 563 355 563 354.930664062 435.471679688 c 0,91,92
 355 258 355 258 479.065429688 200.669921875 c 0,66,67
EndSplineSet
EndChar

StartChar: NameMe.304
Encoding: 65562 -1 303
Width: 602
VWidth: 2438
Flags: W
LayerCount: 2
Fore
SplineSet
14.798828125 320.243164062 m 2,0,1
 186.811523438 320.243164066 186.811523438 320.243164066 186.811523438 565.022460938 c 2,2,-1
 186.811523438 1283.30664062 l 5,3,-1
 469.766601562 1283.30664062 l 5,4,-1
 469.766601562 570.921875 l 2,5,6
 470 251 470 251 346.3828125 120.284179688 c 0,7,8
 232 0 232 0 38.4013671875 0 c 2,9,-1
 -13.6220703125 0 l 1,10,-1
 -13.6220703125 320.243164062 l 1,11,-1
 14.798828125 320.243164062 l 2,0,1
EndSplineSet
EndChar

StartChar: NameMe.303
Encoding: 65563 -1 304
Width: 697
VWidth: 2438
Flags: W
LayerCount: 2
Fore
SplineSet
630.83203125 0 m 2,0,1
 476 0 476 0 364.2265625 102.321289062 c 1,2,3
 249 0 249 0 68.62890625 0 c 2,4,-1
 -13.7529296875 0 l 1,5,-1
 -13.7529296875 320.243164062 l 1,6,-1
 23.998046875 320.243164062 l 2,7,8
 123 320 123 320 175.685546875 369.994140625 c 0,9,10
 228.012695312 420.012135079 228.012695312 420.012135079 228.012695312 530.967773438 c 2,11,-1
 228.012695312 1133.171875 l 5,12,-1
 510.967773438 1133.171875 l 5,13,-1
 510.967773438 530.959960938 l 2,14,15
 511 417 511 417 554.391601562 368.62109375 c 128,-1,16
 597.781905455 320.243164062 597.781905455 320.243164062 695.462890625 320.243164062 c 2,17,-1
 709.211914062 320.243164062 l 1,18,-1
 709.211914062 0 l 1,19,-1
 630.83203125 0 l 2,0,1
EndSplineSet
EndChar
